<?xml version="1.0" encoding="UTF-8"?><svg id="a" xmlns="http://www.w3.org/2000/svg" viewBox="0 0 397 397"><path d="M397,198.5c0,61.15-27.65,115.83-71.12,152.23-34.47,28.89-78.89,46.27-127.38,46.27-52.52,0-100.26-20.39-135.76-53.69C24.12,307.1,0,255.62,0,198.5,0,88.87,88.87,0,198.5,0s198.5,88.87,198.5,198.5Z" style="fill:#32281e;"/><text transform="translate(42.7 139.18)" style="fill:#f5f2e8; font-family:Century, Century; font-size:39.37px; letter-spacing:0em;"><tspan x="0" y="0">EMPLOYEE OF </tspan><tspan x="27.31" y="47.24">THE MONTH</tspan></text><path d="M325.88,350.73c-34.47,28.89-78.89,46.27-127.38,46.27-52.52,0-100.26-20.39-135.76-53.69,30.24-37.69,76.68-61.81,128.76-61.81,55.42,0,104.46,27.32,134.38,69.23Z" style="fill:#f5f2e8;"/><polygon points="191.5 211.64 214.09 257.41 264.6 264.75 228.05 300.38 236.68 350.68 191.5 326.93 146.32 350.68 154.95 300.38 118.4 264.75 168.91 257.41 191.5 211.64" style="fill:#dfc79e;"/></svg>