<svg width="397" height="397" viewBox="0 0 397 397" fill="none" xmlns="http://www.w3.org/2000/svg">
<path d="M397 198.5C397 259.65 369.35 314.33 325.88 350.73C291.41 379.62 246.99 397 198.5 397C145.98 397 98.24 376.61 62.74 343.31C24.12 307.1 0 255.62 0 198.5C0 88.87 88.87 0 198.5 0C308.13 0 397 88.87 397 198.5Z" fill="#32281E"/>
<path d="M45.6395 110.378H68.1696L68.7079 119.971H67.4199C66.9073 116.946 66.0935 114.832 64.9785 113.627C63.8764 112.422 62.4346 111.82 60.6532 111.82H55.0783C54.6298 111.82 54.2902 111.942 54.0595 112.185C53.8288 112.429 53.7135 112.8 53.7135 113.3V123.431H56.1549C57.4621 123.431 58.5194 122.963 59.3268 122.028C60.147 121.092 60.5891 119.657 60.6532 117.722H61.9796V130.89H60.6532C60.5891 128.711 60.1406 127.154 59.3075 126.219C58.4873 125.27 57.366 124.796 55.9434 124.796H53.7135V136.099C53.7135 136.51 53.848 136.824 54.1172 137.041C54.3991 137.259 54.8605 137.368 55.5013 137.368H59.9035C64.6837 137.368 67.4391 134.318 68.1696 128.218H69.5537L69.0731 138.81H45.6395V137.368H47.5811C48.3373 137.368 48.8691 137.24 49.1767 136.984C49.4843 136.715 49.6381 136.33 49.6381 135.83V113.3C49.6381 112.8 49.5035 112.429 49.2344 112.185C48.9652 111.942 48.5423 111.82 47.9656 111.82H45.6395V110.378ZM72.1681 110.378H81.6454L90.123 132.831L97.947 110.378H107.636V111.82H105.271C104.438 111.82 103.874 111.942 103.58 112.185C103.298 112.429 103.157 112.852 103.157 113.454V135.965C103.157 136.413 103.33 136.759 103.676 137.003C104.022 137.246 104.618 137.368 105.463 137.368H107.636V138.81H94.6406V137.368H97.0628C97.7548 137.368 98.2674 137.24 98.6006 136.984C98.9339 136.715 99.1005 136.375 99.1005 135.965V111.82L89.7001 138.81H88.3929L78.2813 111.935V132.601C78.2813 133.831 78.4351 134.754 78.7426 135.369C79.0502 135.971 79.4859 136.439 80.0498 136.772C80.6265 137.093 81.5749 137.291 82.8949 137.368V138.81H72.1681V137.368C73.9239 137.253 75.1158 136.875 75.7437 136.234C76.3717 135.593 76.6857 134.459 76.6857 132.831V113.223C76.6857 112.736 76.5383 112.384 76.2436 112.166C75.9488 111.935 75.3977 111.82 74.5903 111.82H72.1681V110.378ZM110.231 110.378H124.245C127.41 110.378 129.826 111.096 131.492 112.531C133.158 113.967 133.991 115.844 133.991 118.164C133.991 120.483 133.222 122.252 131.685 123.47C129.57 125.148 126.962 125.988 123.86 125.988H118.785V135.696C118.785 136.26 118.92 136.663 119.189 136.907C119.548 137.214 120.029 137.368 120.631 137.368H123.86V138.81H110.231V137.368H113.076C113.64 137.368 114.05 137.259 114.306 137.041C114.575 136.811 114.71 136.503 114.71 136.119V113.454C114.71 112.877 114.543 112.461 114.21 112.204C113.877 111.948 113.249 111.82 112.326 111.82H110.231V110.378ZM118.785 124.585H122.649C125.097 124.585 126.859 124.078 127.936 123.066C129.025 122.041 129.57 120.355 129.57 118.01C129.57 116.37 129.326 115.114 128.839 114.242C128.352 113.358 127.635 112.704 126.686 112.281C125.751 111.858 124.207 111.647 122.053 111.647C120.631 111.647 119.727 111.782 119.343 112.051C118.971 112.32 118.785 112.788 118.785 113.454V124.585ZM136.183 110.378H149.351V111.82H146.198C145.699 111.82 145.327 111.955 145.083 112.224C144.853 112.48 144.737 112.89 144.737 113.454V135.888C144.737 136.426 144.885 136.811 145.18 137.041C145.487 137.259 146.096 137.368 147.006 137.368H151.004C153.132 137.368 154.868 136.663 156.214 135.254C157.572 133.831 158.559 131.37 159.174 127.872H160.52L159.866 138.81H136.183V137.368H138.509C139.303 137.368 139.861 137.221 140.181 136.926C140.502 136.619 140.662 136.132 140.662 135.465V113.262C140.662 112.788 140.527 112.429 140.258 112.185C139.989 111.942 139.592 111.82 139.066 111.82H136.183V110.378ZM176.283 109.782C178.68 109.782 180.923 110.417 183.012 111.685C185.113 112.941 186.754 114.704 187.933 116.972C189.125 119.228 189.721 121.771 189.721 124.604C189.721 127.436 189.125 129.993 187.933 132.274C186.741 134.555 185.101 136.337 183.012 137.618C180.935 138.887 178.731 139.521 176.399 139.521C174.117 139.521 171.977 138.9 169.978 137.657C167.979 136.401 166.37 134.613 165.153 132.293C163.948 129.961 163.346 127.378 163.346 124.546C163.346 121.752 163.929 119.234 165.095 116.991C166.274 114.736 167.883 112.973 169.92 111.705C171.958 110.423 174.079 109.782 176.283 109.782ZM176.591 111.263C174.092 111.263 172.067 112.301 170.516 114.377C168.966 116.453 168.19 119.836 168.19 124.527C168.19 129.615 168.985 133.133 170.574 135.081C172.163 137.029 174.13 138.003 176.476 138.003C178.116 138.003 179.558 137.56 180.801 136.676C182.044 135.792 183.031 134.389 183.761 132.466C184.505 130.544 184.876 128.019 184.876 124.892C184.876 121.483 184.53 118.824 183.838 116.914C183.146 114.992 182.159 113.569 180.878 112.647C179.596 111.724 178.167 111.263 176.591 111.263ZM191.624 110.378H204.081V111.82H202.697C201.543 111.82 200.793 111.91 200.447 112.089C200.101 112.269 199.928 112.518 199.928 112.839C199.928 113.172 200.018 113.473 200.198 113.742L207.426 124.95L212.616 115.396C212.847 114.973 212.962 114.511 212.962 114.012C212.962 113.345 212.744 112.813 212.308 112.416C211.873 112.019 211.251 111.82 210.444 111.82H209.117V110.378H219.959V111.82C218.716 111.82 217.736 112.038 217.018 112.474C216.301 112.909 215.608 113.73 214.942 114.934L208.387 126.949V135.946C208.387 136.42 208.521 136.759 208.79 136.965C209.162 137.234 209.713 137.368 210.444 137.368H212.885V138.81H199.832V137.368H202.408C203.1 137.368 203.6 137.246 203.908 137.003C204.215 136.747 204.369 136.394 204.369 135.946V127.199L195.545 113.454C195.161 112.865 194.712 112.454 194.2 112.224C193.687 111.98 192.828 111.846 191.624 111.82V110.378ZM222.151 110.378H244.681L245.219 119.971H243.931C243.419 116.946 242.605 114.832 241.49 113.627C240.388 112.422 238.946 111.82 237.165 111.82H231.59C231.141 111.82 230.802 111.942 230.571 112.185C230.34 112.429 230.225 112.8 230.225 113.3V123.431H232.666C233.973 123.431 235.031 122.963 235.838 122.028C236.658 121.092 237.1 119.657 237.165 117.722H238.491V130.89H237.165C237.1 128.711 236.652 127.154 235.819 126.219C234.999 125.27 233.877 124.796 232.455 124.796H230.225V136.099C230.225 136.51 230.359 136.824 230.629 137.041C230.91 137.259 231.372 137.368 232.013 137.368H236.415C241.195 137.368 243.951 134.318 244.681 128.218H246.065L245.585 138.81H222.151V137.368H224.093C224.849 137.368 225.38 137.24 225.688 136.984C225.996 136.715 226.149 136.33 226.149 135.83V113.3C226.149 112.8 226.015 112.429 225.746 112.185C225.477 111.942 225.054 111.82 224.477 111.82H222.151V110.378ZM250.602 110.378H273.132L273.67 119.971H272.382C271.87 116.946 271.056 114.832 269.941 113.627C268.839 112.422 267.397 111.82 265.616 111.82H260.041C259.592 111.82 259.253 111.942 259.022 112.185C258.791 112.429 258.676 112.8 258.676 113.3V123.431H261.117C262.424 123.431 263.482 122.963 264.289 122.028C265.109 121.092 265.551 119.657 265.616 117.722H266.942V130.89H265.616C265.551 128.711 265.103 127.154 264.27 126.219C263.45 125.27 262.328 124.796 260.906 124.796H258.676V136.099C258.676 136.51 258.81 136.824 259.08 137.041C259.361 137.259 259.823 137.368 260.464 137.368H264.866C269.646 137.368 272.402 134.318 273.132 128.218H274.516L274.036 138.81H250.602V137.368H252.543C253.3 137.368 253.831 137.24 254.139 136.984C254.447 136.715 254.6 136.33 254.6 135.83V113.3C254.6 112.8 254.466 112.429 254.197 112.185C253.928 111.942 253.505 111.82 252.928 111.82H250.602V110.378ZM302.506 109.782C304.902 109.782 307.145 110.417 309.234 111.685C311.336 112.941 312.976 114.704 314.155 116.972C315.347 119.228 315.943 121.771 315.943 124.604C315.943 127.436 315.347 129.993 314.155 132.274C312.963 134.555 311.323 136.337 309.234 137.618C307.158 138.887 304.954 139.521 302.621 139.521C300.34 139.521 298.2 138.9 296.2 137.657C294.201 136.401 292.593 134.613 291.375 132.293C290.171 129.961 289.568 127.378 289.568 124.546C289.568 121.752 290.151 119.234 291.318 116.991C292.497 114.736 294.105 112.973 296.143 111.705C298.18 110.423 300.301 109.782 302.506 109.782ZM302.813 111.263C300.314 111.263 298.289 112.301 296.739 114.377C295.188 116.453 294.413 119.836 294.413 124.527C294.413 129.615 295.207 133.133 296.796 135.081C298.385 137.029 300.353 138.003 302.698 138.003C304.338 138.003 305.78 137.56 307.023 136.676C308.266 135.792 309.253 134.389 309.984 132.466C310.727 130.544 311.099 128.019 311.099 124.892C311.099 121.483 310.753 118.824 310.061 116.914C309.369 114.992 308.382 113.569 307.1 112.647C305.819 111.724 304.39 111.263 302.813 111.263ZM320.115 110.378H343.241L343.625 120.221H342.299C341.709 116.837 340.882 114.633 339.819 113.608C338.601 112.416 336.865 111.82 334.609 111.82H330.053C329.605 111.82 329.278 111.929 329.073 112.147C328.868 112.352 328.765 112.666 328.765 113.089V123.373H331.207C332.565 123.373 333.648 122.925 334.455 122.028C335.263 121.131 335.699 119.747 335.763 117.875H337.147V130.698H335.763C335.673 128.57 335.237 127.052 334.455 126.142C333.674 125.232 332.591 124.777 331.207 124.777H328.765V135.619C328.765 136.26 328.919 136.715 329.227 136.984C329.534 137.24 330.066 137.368 330.822 137.368H333.783V138.81H320.115V137.368H323.037C323.626 137.368 324.043 137.253 324.286 137.022C324.542 136.779 324.671 136.388 324.671 135.85V113.243C324.671 112.73 324.536 112.365 324.267 112.147C324.011 111.929 323.556 111.82 322.902 111.82H320.115V110.378ZM72.1874 157.378H95.2557L95.8132 168.124H94.4868C93.6153 161.806 91.3341 158.647 87.6432 158.647C86.8999 158.647 86.3872 158.775 86.1053 159.031C85.8361 159.288 85.7016 159.711 85.7016 160.3V183.023C85.7016 183.484 85.8361 183.824 86.1053 184.041C86.3744 184.259 86.8166 184.368 87.4317 184.368H90.296V185.81H77.0894V184.368H80.3574C80.7931 184.368 81.1264 184.259 81.357 184.041C81.5877 183.824 81.7031 183.535 81.7031 183.176V160.127C81.7031 159.64 81.5557 159.275 81.2609 159.031C80.9662 158.775 80.492 158.647 79.8384 158.647C77.9801 158.647 76.4294 159.525 75.1863 161.281C74.161 162.729 73.4241 165.01 72.9755 168.124H71.5722L72.1874 157.378ZM98.5622 157.378H110.692V158.82H108.462C107.681 158.82 107.168 158.961 106.924 159.243C106.694 159.512 106.578 160.178 106.578 161.242V170.008H119.593V161.242C119.593 160.14 119.478 159.461 119.247 159.204C119.029 158.948 118.504 158.82 117.67 158.82H115.594V157.378H127.667V158.82H125.456C124.905 158.82 124.514 158.891 124.283 159.031C124.066 159.172 123.886 159.416 123.745 159.762C123.668 159.98 123.63 160.55 123.63 161.473V181.927C123.63 182.914 123.713 183.51 123.88 183.715C124.213 184.15 124.822 184.368 125.706 184.368H127.667V185.81H115.594V184.368H117.67C118.491 184.368 119.048 184.144 119.343 183.695C119.51 183.452 119.593 182.811 119.593 181.773V171.892H106.578V181.927C106.578 182.926 106.655 183.529 106.809 183.734C107.13 184.157 107.681 184.368 108.462 184.368H110.692V185.81H98.5622V184.368H100.888C101.298 184.368 101.625 184.285 101.869 184.118C102.112 183.952 102.292 183.715 102.407 183.407C102.471 183.202 102.503 182.657 102.503 181.773V161.242C102.503 160.178 102.381 159.512 102.138 159.243C101.907 158.961 101.394 158.82 100.6 158.82H98.5622V157.378ZM132.088 157.378H154.618L155.157 166.971H153.869C153.356 163.946 152.542 161.832 151.427 160.627C150.325 159.422 148.883 158.82 147.102 158.82H141.527C141.078 158.82 140.739 158.942 140.508 159.185C140.277 159.429 140.162 159.8 140.162 160.3V170.431H142.604C143.911 170.431 144.968 169.963 145.775 169.028C146.596 168.092 147.038 166.657 147.102 164.722H148.428V177.89H147.102C147.038 175.711 146.589 174.154 145.756 173.219C144.936 172.27 143.815 171.796 142.392 171.796H140.162V183.099C140.162 183.51 140.297 183.824 140.566 184.041C140.848 184.259 141.309 184.368 141.95 184.368H146.352C151.132 184.368 153.888 181.318 154.618 175.218H156.002L155.522 185.81H132.088V184.368H134.03C134.786 184.368 135.318 184.24 135.625 183.984C135.933 183.715 136.087 183.33 136.087 182.83V160.3C136.087 159.8 135.952 159.429 135.683 159.185C135.414 158.942 134.991 158.82 134.414 158.82H132.088V157.378ZM169.574 157.378H179.052L187.529 179.831L195.353 157.378H205.042V158.82H202.677C201.844 158.82 201.28 158.942 200.986 159.185C200.704 159.429 200.563 159.852 200.563 160.454V182.965C200.563 183.413 200.736 183.759 201.082 184.003C201.428 184.246 202.024 184.368 202.87 184.368H205.042V185.81H192.047V184.368H194.469C195.161 184.368 195.674 184.24 196.007 183.984C196.34 183.715 196.507 183.375 196.507 182.965V158.82L187.106 185.81H185.799L175.687 158.935V179.601C175.687 180.831 175.841 181.754 176.149 182.369C176.456 182.971 176.892 183.439 177.456 183.772C178.033 184.093 178.981 184.291 180.301 184.368V185.81H169.574V184.368C171.33 184.253 172.522 183.875 173.15 183.234C173.778 182.593 174.092 181.459 174.092 179.831V160.223C174.092 159.736 173.944 159.384 173.65 159.166C173.355 158.935 172.804 158.82 171.996 158.82H169.574V157.378ZM221.171 156.782C223.567 156.782 225.81 157.417 227.899 158.685C230.001 159.941 231.641 161.704 232.82 163.972C234.012 166.228 234.608 168.771 234.608 171.604C234.608 174.436 234.012 176.993 232.82 179.274C231.628 181.555 229.988 183.337 227.899 184.618C225.823 185.887 223.618 186.521 221.286 186.521C219.005 186.521 216.864 185.9 214.865 184.657C212.866 183.401 211.258 181.613 210.04 179.293C208.835 176.961 208.233 174.378 208.233 171.546C208.233 168.752 208.816 166.234 209.982 163.991C211.161 161.736 212.77 159.973 214.808 158.705C216.845 157.423 218.966 156.782 221.171 156.782ZM221.478 158.263C218.979 158.263 216.954 159.301 215.403 161.377C213.853 163.453 213.077 166.836 213.077 171.527C213.077 176.615 213.872 180.133 215.461 182.081C217.05 184.029 219.017 185.003 221.363 185.003C223.003 185.003 224.445 184.56 225.688 183.676C226.931 182.792 227.918 181.389 228.649 179.466C229.392 177.544 229.763 175.019 229.763 171.892C229.763 168.483 229.417 165.824 228.725 163.914C228.033 161.992 227.047 160.569 225.765 159.647C224.483 158.724 223.054 158.263 221.478 158.263ZM238.356 157.378H245.142L262.29 179.716V163.549C262.29 161.921 261.918 160.717 261.175 159.935C260.496 159.217 259.483 158.846 258.138 158.82V157.378H268.076V158.82C267.064 158.82 266.308 158.961 265.808 159.243C265.308 159.525 264.872 160.038 264.501 160.781C264.129 161.524 263.943 162.338 263.943 163.222V185.81H262.136L244.393 162.569V179.716C244.393 181.267 244.784 182.427 245.565 183.196C246.347 183.952 247.558 184.343 249.199 184.368V185.81H238.356V184.368C239.715 184.317 240.791 183.875 241.586 183.042C242.381 182.196 242.778 181.164 242.778 179.947V160.665L242.451 160.319C241.81 159.627 241.355 159.217 241.086 159.089C240.715 158.91 240.234 158.82 239.644 158.82H238.356V157.378ZM270.575 157.378H293.644L294.201 168.124H292.875C292.003 161.806 289.722 158.647 286.031 158.647C285.288 158.647 284.775 158.775 284.493 159.031C284.224 159.288 284.089 159.711 284.089 160.3V183.023C284.089 183.484 284.224 183.824 284.493 184.041C284.762 184.259 285.204 184.368 285.82 184.368H288.684V185.81H275.477V184.368H278.745C279.181 184.368 279.514 184.259 279.745 184.041C279.976 183.824 280.091 183.535 280.091 183.176V160.127C280.091 159.64 279.944 159.275 279.649 159.031C279.354 158.775 278.88 158.647 278.226 158.647C276.368 158.647 274.817 159.525 273.574 161.281C272.549 162.729 271.812 165.01 271.363 168.124H269.96L270.575 157.378ZM296.95 157.378H309.08V158.82H306.85C306.068 158.82 305.556 158.961 305.312 159.243C305.082 159.512 304.966 160.178 304.966 161.242V170.008H317.981V161.242C317.981 160.14 317.865 159.461 317.635 159.204C317.417 158.948 316.891 158.82 316.058 158.82H313.982V157.378H326.055V158.82H323.844C323.293 158.82 322.902 158.891 322.671 159.031C322.453 159.172 322.274 159.416 322.133 159.762C322.056 159.98 322.018 160.55 322.018 161.473V181.927C322.018 182.914 322.101 183.51 322.268 183.715C322.601 184.15 323.21 184.368 324.094 184.368H326.055V185.81H313.982V184.368H316.058C316.879 184.368 317.436 184.144 317.731 183.695C317.897 183.452 317.981 182.811 317.981 181.773V171.892H304.966V181.927C304.966 182.926 305.043 183.529 305.197 183.734C305.517 184.157 306.068 184.368 306.85 184.368H309.08V185.81H296.95V184.368H299.276C299.686 184.368 300.013 184.285 300.257 184.118C300.5 183.952 300.679 183.715 300.795 183.407C300.859 183.202 300.891 182.657 300.891 181.773V161.242C300.891 160.178 300.769 159.512 300.526 159.243C300.295 158.961 299.782 158.82 298.988 158.82H296.95V157.378Z" fill="#F5F2E8"/>
<path d="M325.88 350.73C291.41 379.62 246.99 397 198.5 397C145.98 397 98.24 376.61 62.74 343.31C92.98 305.62 139.42 281.5 191.5 281.5C246.92 281.5 295.96 308.82 325.88 350.73Z" fill="#F5F2E8"/>
<path d="M191.5 218.418L211.4 258.738L212.098 260.152L213.658 260.379L258.153 266.845L225.956 298.232L224.826 299.333L225.093 300.887L232.695 345.196L192.896 324.275L191.5 323.541L190.104 324.275L150.305 345.196L157.907 300.887L158.173 299.333L157.044 298.232L124.846 266.845L169.341 260.379L170.902 260.152L171.6 258.738L191.5 218.418Z" fill="url(#paint0_radial_269_847)" stroke="#DFC79E" stroke-width="6"/>
<defs>
<radialGradient id="paint0_radial_269_847" cx="0" cy="0" r="1" gradientUnits="userSpaceOnUse" gradientTransform="translate(191.5 281.16) rotate(90) scale(69.52 73.1)">
<stop offset="0.258333" stop-color="#F5F2E8"/>
<stop offset="1" stop-color="#DFC79E"/>
</radialGradient>
</defs>
</svg>
