<svg width="397" height="397" viewBox="0 0 397 397" fill="none" xmlns="http://www.w3.org/2000/svg">
<path d="M397 198.5C397 259.65 369.35 314.33 325.88 350.73C291.41 379.62 246.99 397 198.5 397C145.98 397 98.24 376.61 62.74 343.31C24.12 307.1 0 255.62 0 198.5C0 88.87 88.87 0 198.5 0C308.13 0 397 88.87 397 198.5Z" fill="#32281E"/>
<path d="M63.8964 99.3782H87.0225L87.4069 109.221H86.0805C85.491 105.837 84.6644 103.633 83.6007 102.608C82.3832 101.416 80.6466 100.82 78.3911 100.82H73.8351C73.3865 100.82 73.0597 100.929 72.8547 101.147C72.6496 101.352 72.5471 101.666 72.5471 102.089V112.373H74.9885C76.3469 112.373 77.4299 111.925 78.2373 111.028C79.0447 110.131 79.4804 108.747 79.5445 106.875H80.9286V119.698H79.5445C79.4548 117.57 79.019 116.052 78.2373 115.142C77.4555 114.232 76.3726 113.777 74.9885 113.777H72.5471V124.619C72.5471 125.26 72.7009 125.715 73.0084 125.984C73.316 126.24 73.8479 126.368 74.604 126.368H77.5644V127.81H63.8964V126.368H66.8184C67.408 126.368 67.8245 126.253 68.068 126.022C68.3243 125.779 68.4524 125.388 68.4524 124.85V102.243C68.4524 101.73 68.3179 101.365 68.0487 101.147C67.7924 100.929 67.3375 100.82 66.6839 100.82H63.8964V99.3782ZM89.5792 99.3782H102.69V100.82H100.441C99.4409 100.82 98.8066 100.948 98.5374 101.204C98.2811 101.448 98.153 101.973 98.153 102.781V124.311C98.153 125.17 98.2683 125.708 98.499 125.926C98.8066 126.221 99.364 126.368 100.171 126.368H102.69V127.81H89.5792V126.368H92.0591C92.9305 126.368 93.4944 126.24 93.7507 125.984C94.0071 125.727 94.1352 125.17 94.1352 124.311V102.781C94.1352 101.961 94.0199 101.454 93.7892 101.262C93.4303 100.967 92.7703 100.82 91.8092 100.82H89.5792V99.3782ZM105.15 99.3782H119.837C122.682 99.3782 124.887 100.025 126.45 101.32C128.026 102.614 128.815 104.312 128.815 106.414C128.815 107.67 128.501 108.791 127.873 109.778C127.258 110.752 126.36 111.534 125.181 112.124C124.015 112.7 122.176 113.117 119.664 113.373C121.497 113.873 122.759 114.366 123.451 114.853C124.143 115.327 124.694 115.949 125.104 116.718C125.527 117.474 126.008 119.025 126.546 121.37C126.931 123.049 127.341 124.196 127.777 124.811C128.11 125.285 128.469 125.522 128.853 125.522C129.25 125.522 129.616 125.234 129.949 124.657C130.295 124.068 130.506 123.036 130.583 121.562H131.89C131.647 125.92 130.039 128.098 127.065 128.098C126.13 128.098 125.316 127.861 124.624 127.387C123.945 126.913 123.432 126.214 123.086 125.292C122.817 124.6 122.516 122.786 122.182 119.851C121.99 118.147 121.683 116.936 121.26 116.218C120.85 115.5 120.202 114.924 119.318 114.488C118.434 114.052 117.377 113.834 116.146 113.834H113.82V125.003C113.82 125.478 113.942 125.811 114.185 126.003C114.493 126.246 114.974 126.368 115.627 126.368H118.357V127.81H105.15V126.368H107.938C108.553 126.368 109.001 126.246 109.283 126.003C109.578 125.759 109.726 125.426 109.726 125.003V102.281C109.726 101.794 109.578 101.429 109.283 101.185C108.989 100.942 108.54 100.82 107.938 100.82H105.15V99.3782ZM113.82 112.45H117.184C119.44 112.45 121.202 112.027 122.471 111.182C123.752 110.323 124.393 108.804 124.393 106.626C124.393 105.126 124.15 103.941 123.663 103.069C123.189 102.198 122.561 101.602 121.779 101.281C120.997 100.961 119.459 100.801 117.165 100.801C115.653 100.801 114.717 100.91 114.358 101.128C114 101.333 113.82 101.691 113.82 102.204V112.45ZM135.178 99.3782H157.708L158.246 108.971H156.958C156.445 105.946 155.632 103.832 154.517 102.627C153.414 101.422 151.973 100.82 150.191 100.82H144.616C144.168 100.82 143.828 100.942 143.598 101.185C143.367 101.429 143.252 101.8 143.252 102.3V112.431H145.693C147 112.431 148.058 111.963 148.865 111.028C149.685 110.092 150.127 108.657 150.191 106.722H151.518V119.89H150.191C150.127 117.711 149.679 116.154 148.846 115.219C148.025 114.27 146.904 113.796 145.482 113.796H143.252V125.099C143.252 125.51 143.386 125.824 143.655 126.041C143.937 126.259 144.399 126.368 145.039 126.368H149.442C154.222 126.368 156.977 123.318 157.708 117.218H159.092L158.611 127.81H135.178V126.368H137.119C137.875 126.368 138.407 126.24 138.715 125.984C139.022 125.715 139.176 125.33 139.176 124.83V102.3C139.176 101.8 139.042 101.429 138.772 101.185C138.503 100.942 138.08 100.82 137.504 100.82H135.178V99.3782ZM162.398 99.3782H177.085C179.264 99.3782 181.116 99.7627 182.641 100.532C184.538 101.506 186.146 103.127 187.466 105.395C188.799 107.664 189.465 110.349 189.465 113.45C189.465 116.013 189.068 118.32 188.273 120.37C187.671 121.947 186.742 123.324 185.486 124.504C184.243 125.683 182.724 126.567 180.93 127.156C179.584 127.592 177.79 127.81 175.547 127.81H162.398V126.368H165.09C165.769 126.368 166.237 126.259 166.493 126.041C166.762 125.824 166.897 125.484 166.897 125.023V102.127C166.897 101.73 166.756 101.416 166.474 101.185C166.192 100.942 165.801 100.82 165.301 100.82H162.398V99.3782ZM172.702 100.82C172.125 100.82 171.696 100.942 171.414 101.185C171.145 101.429 171.011 101.794 171.011 102.281V124.965C171.011 125.426 171.171 125.779 171.491 126.022C171.811 126.253 172.356 126.368 173.125 126.368H175.547C177.713 126.368 179.61 125.811 181.237 124.696C182.301 123.952 183.109 122.908 183.66 121.562C184.416 119.742 184.794 117.231 184.794 114.027C184.794 109.285 183.967 105.812 182.314 103.607C180.904 101.749 178.777 100.82 175.932 100.82H172.702ZM204.69 99.3782H227.816L228.201 109.221H226.874C226.285 105.837 225.458 103.633 224.395 102.608C223.177 101.416 221.441 100.82 219.185 100.82H214.629C214.18 100.82 213.854 100.929 213.649 101.147C213.443 101.352 213.341 101.666 213.341 102.089V112.373H215.782C217.141 112.373 218.224 111.925 219.031 111.028C219.839 110.131 220.274 108.747 220.338 106.875H221.722V119.698H220.338C220.249 117.57 219.813 116.052 219.031 115.142C218.249 114.232 217.166 113.777 215.782 113.777H213.341V124.619C213.341 125.26 213.495 125.715 213.802 125.984C214.11 126.24 214.642 126.368 215.398 126.368H218.358V127.81H204.69V126.368H207.612C208.202 126.368 208.618 126.253 208.862 126.022C209.118 125.779 209.246 125.388 209.246 124.85V102.243C209.246 101.73 209.112 101.365 208.843 101.147C208.586 100.929 208.131 100.82 207.478 100.82H204.69V99.3782ZM229.912 99.3782H244.599C247.444 99.3782 249.648 100.025 251.212 101.32C252.788 102.614 253.576 104.312 253.576 106.414C253.576 107.67 253.262 108.791 252.634 109.778C252.019 110.752 251.122 111.534 249.943 112.124C248.777 112.7 246.937 113.117 244.426 113.373C246.258 113.873 247.521 114.366 248.213 114.853C248.905 115.327 249.456 115.949 249.866 116.718C250.289 117.474 250.769 119.025 251.308 121.37C251.692 123.049 252.102 124.196 252.538 124.811C252.871 125.285 253.23 125.522 253.614 125.522C254.012 125.522 254.377 125.234 254.71 124.657C255.056 124.068 255.268 123.036 255.345 121.562H256.652C256.408 125.92 254.8 128.098 251.827 128.098C250.891 128.098 250.077 127.861 249.385 127.387C248.706 126.913 248.193 126.214 247.847 125.292C247.578 124.6 247.277 122.786 246.944 119.851C246.752 118.147 246.444 116.936 246.021 116.218C245.611 115.5 244.964 114.924 244.08 114.488C243.195 114.052 242.138 113.834 240.908 113.834H238.582V125.003C238.582 125.478 238.703 125.811 238.947 126.003C239.254 126.246 239.735 126.368 240.389 126.368H243.118V127.81H229.912V126.368H232.699C233.314 126.368 233.763 126.246 234.045 126.003C234.34 125.759 234.487 125.426 234.487 125.003V102.281C234.487 101.794 234.34 101.429 234.045 101.185C233.75 100.942 233.301 100.82 232.699 100.82H229.912V99.3782ZM238.582 112.45H241.946C244.201 112.45 245.963 112.027 247.232 111.182C248.514 110.323 249.155 108.804 249.155 106.626C249.155 105.126 248.911 103.941 248.424 103.069C247.95 102.198 247.322 101.602 246.54 101.281C245.758 100.961 244.221 100.801 241.926 100.801C240.414 100.801 239.479 100.91 239.12 101.128C238.761 101.333 238.582 101.691 238.582 102.204V112.45ZM272.434 98.7823C274.831 98.7823 277.074 99.4167 279.163 100.685C281.264 101.941 282.905 103.704 284.084 105.972C285.276 108.228 285.872 110.771 285.872 113.604C285.872 116.436 285.276 118.993 284.084 121.274C282.892 123.555 281.252 125.337 279.163 126.618C277.087 127.887 274.882 128.521 272.55 128.521C270.269 128.521 268.128 127.9 266.129 126.657C264.13 125.401 262.521 123.613 261.304 121.293C260.099 118.961 259.497 116.378 259.497 113.546C259.497 110.752 260.08 108.234 261.246 105.991C262.425 103.736 264.034 101.973 266.071 100.705C268.109 99.4231 270.23 98.7823 272.434 98.7823ZM272.742 100.263C270.243 100.263 268.218 101.301 266.667 103.377C265.117 105.453 264.341 108.836 264.341 113.527C264.341 118.615 265.136 122.133 266.725 124.081C268.314 126.029 270.281 127.003 272.627 127.003C274.267 127.003 275.709 126.56 276.952 125.676C278.195 124.792 279.182 123.389 279.912 121.466C280.656 119.544 281.027 117.019 281.027 113.892C281.027 110.483 280.681 107.824 279.989 105.914C279.297 103.992 278.31 102.569 277.029 101.647C275.747 100.724 274.318 100.263 272.742 100.263ZM288.659 99.3782H298.136L306.614 121.831L314.438 99.3782H324.127V100.82H321.762C320.929 100.82 320.365 100.942 320.071 101.185C319.789 101.429 319.648 101.852 319.648 102.454V124.965C319.648 125.413 319.821 125.759 320.167 126.003C320.513 126.246 321.109 126.368 321.954 126.368H324.127V127.81H311.132V126.368H313.554C314.246 126.368 314.758 126.24 315.092 125.984C315.425 125.715 315.591 125.375 315.591 124.965V100.82L306.191 127.81H304.884L294.772 100.935V121.601C294.772 122.831 294.926 123.754 295.234 124.369C295.541 124.971 295.977 125.439 296.541 125.772C297.118 126.093 298.066 126.291 299.386 126.368V127.81H288.659V126.368C290.415 126.253 291.607 125.875 292.235 125.234C292.863 124.593 293.177 123.459 293.177 121.831V102.223C293.177 101.736 293.029 101.384 292.735 101.166C292.44 100.935 291.889 100.82 291.081 100.82H288.659V99.3782ZM26.0451 146.378H49.1135L49.6709 157.124H48.3445C47.473 150.806 45.1918 147.647 41.5009 147.647C40.7576 147.647 40.245 147.775 39.963 148.031C39.6939 148.288 39.5593 148.711 39.5593 149.3V172.023C39.5593 172.484 39.6939 172.824 39.963 173.041C40.2321 173.259 40.6743 173.368 41.2894 173.368H44.1538V174.81H30.9471V173.368H34.2151C34.6509 173.368 34.9841 173.259 35.2148 173.041C35.4455 172.824 35.5608 172.535 35.5608 172.176V149.127C35.5608 148.64 35.4134 148.275 35.1187 148.031C34.8239 147.775 34.3497 147.647 33.6961 147.647C31.8378 147.647 30.2871 148.525 29.044 150.281C28.0187 151.729 27.2818 154.01 26.8333 157.124H25.4299L26.0451 146.378ZM52.4199 146.378H64.55V147.82H62.3201C61.5383 147.82 61.0257 147.961 60.7822 148.243C60.5515 148.512 60.4362 149.178 60.4362 150.242V159.008H73.4506V150.242C73.4506 149.14 73.3352 148.461 73.1046 148.204C72.8867 147.948 72.3612 147.82 71.5282 147.82H69.4521V146.378H81.5245V147.82H79.3138C78.7627 147.82 78.3718 147.891 78.1411 148.031C77.9233 148.172 77.7439 148.416 77.6029 148.762C77.526 148.98 77.4875 149.55 77.4875 150.473V170.927C77.4875 171.914 77.5708 172.51 77.7374 172.715C78.0707 173.15 78.6794 173.368 79.5637 173.368H81.5245V174.81H69.4521V173.368H71.5282C72.3484 173.368 72.9059 173.144 73.2007 172.695C73.3673 172.452 73.4506 171.811 73.4506 170.773V160.892H60.4362V170.927C60.4362 171.926 60.5131 172.529 60.6669 172.734C60.9873 173.157 61.5383 173.368 62.3201 173.368H64.55V174.81H52.4199V173.368H54.746C55.1561 173.368 55.4829 173.285 55.7264 173.118C55.9699 172.952 56.1493 172.715 56.2646 172.407C56.3287 172.202 56.3608 171.657 56.3608 170.773V150.242C56.3608 149.178 56.239 148.512 55.9955 148.243C55.7648 147.961 55.2522 147.82 54.4576 147.82H52.4199V146.378ZM85.9459 146.378H108.476L109.014 155.971H107.726C107.214 152.946 106.4 150.832 105.285 149.627C104.183 148.422 102.741 147.82 100.96 147.82H95.3847C94.9362 147.82 94.5966 147.942 94.3659 148.185C94.1352 148.429 94.0199 148.8 94.0199 149.3V159.431H96.4613C97.7685 159.431 98.8258 158.963 99.6332 158.028C100.453 157.092 100.896 155.657 100.96 153.722H102.286V166.89H100.96C100.896 164.711 100.447 163.154 99.6139 162.219C98.7937 161.27 97.6724 160.796 96.2498 160.796H94.0199V172.099C94.0199 172.51 94.1544 172.824 94.4236 173.041C94.7055 173.259 95.1669 173.368 95.8077 173.368H100.21C104.99 173.368 107.746 170.318 108.476 164.218H109.86L109.38 174.81H85.9459V173.368H87.8875C88.6437 173.368 89.1755 173.24 89.4831 172.984C89.7907 172.715 89.9445 172.33 89.9445 171.83V149.3C89.9445 148.8 89.8099 148.429 89.5408 148.185C89.2716 147.942 88.8487 147.82 88.272 147.82H85.9459V146.378ZM124.393 146.378H131.179L148.327 168.716V152.549C148.327 150.921 147.955 149.717 147.212 148.935C146.532 148.217 145.52 147.846 144.174 147.82V146.378H154.113V147.82C153.1 147.82 152.344 147.961 151.845 148.243C151.345 148.525 150.909 149.038 150.537 149.781C150.166 150.524 149.98 151.338 149.98 152.222V174.81H148.173L130.429 151.569V168.716C130.429 170.267 130.82 171.427 131.602 172.196C132.384 172.952 133.595 173.343 135.235 173.368V174.81H124.393V173.368C125.752 173.317 126.828 172.875 127.623 172.042C128.417 171.196 128.815 170.164 128.815 168.947V149.665L128.488 149.319C127.847 148.627 127.392 148.217 127.123 148.089C126.751 147.91 126.271 147.82 125.681 147.82H124.393V146.378ZM157.458 146.378H179.988L180.526 155.971H179.238C178.726 152.946 177.912 150.832 176.797 149.627C175.695 148.422 174.253 147.82 172.472 147.82H166.897C166.448 147.82 166.108 147.942 165.878 148.185C165.647 148.429 165.532 148.8 165.532 149.3V159.431H167.973C169.28 159.431 170.338 158.963 171.145 158.028C171.965 157.092 172.407 155.657 172.472 153.722H173.798V166.89H172.472C172.407 164.711 171.959 163.154 171.126 162.219C170.306 161.27 169.184 160.796 167.762 160.796H165.532V172.099C165.532 172.51 165.666 172.824 165.935 173.041C166.217 173.259 166.679 173.368 167.32 173.368H171.722C176.502 173.368 179.257 170.318 179.988 164.218H181.372L180.891 174.81H157.458V173.368H159.399C160.156 173.368 160.687 173.24 160.995 172.984C161.303 172.715 161.456 172.33 161.456 171.83V149.3C161.456 148.8 161.322 148.429 161.053 148.185C160.784 147.942 160.361 147.82 159.784 147.82H157.458V146.378ZM184.006 146.378H193.502V147.82H192.829C191.83 147.82 191.189 147.897 190.907 148.051C190.638 148.204 190.503 148.448 190.503 148.781C190.503 149.012 190.599 149.377 190.792 149.877L190.907 150.242L196.693 168.293L201.768 151.626C201.179 149.73 200.724 148.621 200.403 148.301C200.096 147.98 199.474 147.82 198.539 147.82H196.809V146.378H208.67V147.82H207.439C206.363 147.82 205.664 147.91 205.344 148.089C205.024 148.256 204.863 148.512 204.863 148.858C204.863 149.127 204.902 149.377 204.979 149.608L210.88 168.293L215.725 152.126C215.917 151.498 216.013 150.896 216.013 150.319C216.013 149.46 215.814 148.832 215.417 148.435C215.033 148.025 214.45 147.82 213.668 147.82H212.783V146.378H221.703V147.82C220.921 147.923 220.3 148.115 219.839 148.397C219.377 148.666 218.973 149.057 218.627 149.569C218.294 150.082 217.955 150.934 217.609 152.126L210.611 175.483H209.266L202.691 154.625L196.463 175.483H195.021L187.024 150.242C186.703 149.255 186.338 148.608 185.928 148.301C185.531 147.98 184.89 147.82 184.006 147.82V146.378ZM240.177 148.531L241.907 146.051H243.311L243.426 156.413H242.157C241.363 153.235 240.184 150.915 238.62 149.454C237.069 147.993 235.282 147.263 233.257 147.263C231.565 147.263 230.181 147.769 229.104 148.781C228.028 149.794 227.49 151.03 227.49 152.491C227.49 153.401 227.695 154.202 228.105 154.894C228.515 155.574 229.124 156.131 229.931 156.567C230.751 156.99 232.289 157.445 234.545 157.932C237.71 158.624 239.927 159.322 241.196 160.027C242.478 160.732 243.432 161.623 244.06 162.699C244.688 163.763 245.002 165.012 245.002 166.448C245.002 169.011 244.137 171.138 242.407 172.83C240.69 174.509 238.466 175.348 235.736 175.348C232.802 175.348 230.251 174.4 228.085 172.503L225.913 175.156H224.529V164.141H225.913C226.451 167.178 227.656 169.575 229.527 171.331C231.398 173.086 233.507 173.964 235.852 173.964C237.749 173.964 239.293 173.407 240.485 172.292C241.689 171.164 242.292 169.799 242.292 168.197C242.292 167.287 242.067 166.493 241.619 165.813C241.17 165.121 240.459 164.545 239.485 164.083C238.511 163.609 236.595 163.039 233.737 162.372C230.597 161.629 228.457 160.796 227.317 159.873C225.715 158.566 224.914 156.714 224.914 154.318C224.914 151.819 225.708 149.774 227.297 148.185C228.899 146.583 230.943 145.782 233.43 145.782C234.622 145.782 235.756 145.994 236.832 146.417C237.909 146.84 239.024 147.544 240.177 148.531ZM247.77 146.378H262.457C265.302 146.378 267.507 147.025 269.07 148.32C270.647 149.614 271.435 151.312 271.435 153.414C271.435 154.67 271.121 155.791 270.493 156.778C269.878 157.752 268.981 158.534 267.801 159.124C266.635 159.7 264.796 160.117 262.284 160.373C264.117 160.873 265.379 161.366 266.071 161.853C266.763 162.327 267.314 162.949 267.725 163.718C268.148 164.474 268.628 166.025 269.166 168.37C269.551 170.049 269.961 171.196 270.397 171.811C270.73 172.285 271.089 172.522 271.473 172.522C271.87 172.522 272.236 172.234 272.569 171.657C272.915 171.068 273.126 170.036 273.203 168.562H274.511C274.267 172.92 272.659 175.098 269.685 175.098C268.75 175.098 267.936 174.861 267.244 174.387C266.565 173.913 266.052 173.214 265.706 172.292C265.437 171.6 265.136 169.786 264.803 166.851C264.61 165.147 264.303 163.936 263.88 163.218C263.47 162.5 262.823 161.924 261.938 161.488C261.054 161.052 259.997 160.834 258.766 160.834H256.44V172.003C256.44 172.478 256.562 172.811 256.806 173.003C257.113 173.246 257.594 173.368 258.247 173.368H260.977V174.81H247.77V173.368H250.558C251.173 173.368 251.622 173.246 251.904 173.003C252.198 172.759 252.346 172.426 252.346 172.003V149.281C252.346 148.794 252.198 148.429 251.904 148.185C251.609 147.942 251.16 147.82 250.558 147.82H247.77V146.378ZM256.44 159.45H259.804C262.06 159.45 263.822 159.027 265.091 158.182C266.373 157.323 267.013 155.804 267.013 153.626C267.013 152.126 266.77 150.941 266.283 150.069C265.809 149.198 265.181 148.602 264.399 148.281C263.617 147.961 262.079 147.801 259.785 147.801C258.273 147.801 257.337 147.91 256.979 148.128C256.62 148.333 256.44 148.691 256.44 149.204V159.45ZM290.293 145.782C292.69 145.782 294.932 146.417 297.021 147.685C299.123 148.941 300.764 150.704 301.943 152.972C303.135 155.228 303.73 157.771 303.73 160.604C303.73 163.436 303.135 165.993 301.943 168.274C300.751 170.555 299.11 172.337 297.021 173.618C294.945 174.887 292.741 175.521 290.408 175.521C288.127 175.521 285.987 174.9 283.988 173.657C281.989 172.401 280.38 170.613 279.163 168.293C277.958 165.961 277.356 163.378 277.356 160.546C277.356 157.752 277.939 155.234 279.105 152.991C280.284 150.736 281.892 148.973 283.93 147.705C285.968 146.423 288.089 145.782 290.293 145.782ZM290.601 147.263C288.102 147.263 286.077 148.301 284.526 150.377C282.975 152.453 282.2 155.836 282.2 160.527C282.2 165.615 282.995 169.133 284.584 171.081C286.173 173.029 288.14 174.003 290.485 174.003C292.126 174.003 293.568 173.56 294.811 172.676C296.054 171.792 297.041 170.389 297.771 168.466C298.514 166.544 298.886 164.019 298.886 160.892C298.886 157.483 298.54 154.824 297.848 152.914C297.156 150.992 296.169 149.569 294.888 148.647C293.606 147.724 292.177 147.263 290.601 147.263ZM320.936 145.782C323.332 145.782 325.575 146.417 327.664 147.685C329.766 148.941 331.406 150.704 332.585 152.972C333.777 155.228 334.373 157.771 334.373 160.604C334.373 163.436 333.777 165.993 332.585 168.274C331.393 170.555 329.753 172.337 327.664 173.618C325.588 174.887 323.383 175.521 321.051 175.521C318.77 175.521 316.63 174.9 314.63 173.657C312.631 172.401 311.023 170.613 309.805 168.293C308.6 165.961 307.998 163.378 307.998 160.546C307.998 157.752 308.581 155.234 309.747 152.991C310.927 150.736 312.535 148.973 314.573 147.705C316.61 146.423 318.731 145.782 320.936 145.782ZM321.243 147.263C318.744 147.263 316.719 148.301 315.169 150.377C313.618 152.453 312.842 155.836 312.842 160.527C312.842 165.615 313.637 169.133 315.226 171.081C316.815 173.029 318.783 174.003 321.128 174.003C322.768 174.003 324.21 173.56 325.453 172.676C326.696 171.792 327.683 170.389 328.414 168.466C329.157 166.544 329.529 164.019 329.529 160.892C329.529 157.483 329.183 154.824 328.491 152.914C327.798 150.992 326.812 149.569 325.53 148.647C324.248 147.724 322.82 147.263 321.243 147.263ZM337.16 146.378H346.638L355.115 168.831L362.939 146.378H372.628V147.82H370.263C369.43 147.82 368.867 147.942 368.572 148.185C368.29 148.429 368.149 148.852 368.149 149.454V171.965C368.149 172.413 368.322 172.759 368.668 173.003C369.014 173.246 369.61 173.368 370.456 173.368H372.628V174.81H359.633V173.368H362.055C362.747 173.368 363.26 173.24 363.593 172.984C363.926 172.715 364.093 172.375 364.093 171.965V147.82L354.692 174.81H353.385L343.273 147.935V168.601C343.273 169.831 343.427 170.754 343.735 171.369C344.042 171.971 344.478 172.439 345.042 172.772C345.619 173.093 346.567 173.291 347.887 173.368V174.81H337.16V173.368C338.916 173.253 340.108 172.875 340.736 172.234C341.364 171.593 341.678 170.459 341.678 168.831V149.223C341.678 148.736 341.531 148.384 341.236 148.166C340.941 147.935 340.39 147.82 339.583 147.82H337.16V146.378Z" fill="#F5F2E8"/>
<path d="M325.88 350.73C291.41 379.62 246.99 397 198.5 397C145.98 397 98.24 376.61 62.74 343.31C92.98 305.62 139.42 281.5 191.5 281.5C246.92 281.5 295.96 308.82 325.88 350.73Z" fill="#F5F2E8"/>
<path d="M196.606 353.364C193.532 353.364 190.642 352.483 188.021 350.756C186.943 350.046 186.943 345.098 186.955 341.13C186.968 334.982 186.98 327.328 184.506 320.323C182.02 313.281 177.121 306.41 171.427 301.953C159.302 292.474 143.222 287.232 142.537 287.012C142.451 286.987 142.353 286.963 142.255 286.95C136.781 286.093 132.813 281.439 132.837 275.904L132.935 235.796C132.947 229.807 137.136 224.651 143.112 223.231C143.884 223.047 144.814 222.937 145.794 222.814C148.084 222.533 150.681 222.202 153.069 220.855C161.494 216.079 172.59 214.474 183.33 213.458C198.933 211.988 214.792 211.572 225.361 211.486C229.035 211.486 232.379 212.87 234.889 215.393C237.4 217.903 238.784 221.259 238.784 224.811L238.722 276.504C238.71 286.497 230.566 294.617 220.585 294.617H220.426C220.426 294.617 211.559 294.311 211.547 294.311C210.788 294.311 210.102 294.788 209.832 295.499C208.008 300.336 210.028 307.451 212.355 315.694C214.327 322.662 216.36 329.863 216.103 335.95C215.711 344.743 206.06 353.364 196.606 353.364Z" fill="url(#paint0_radial_269_824)"/>
<path d="M225.459 213.311C228.533 213.311 231.411 214.511 233.579 216.679C235.746 218.846 236.934 221.724 236.934 224.798L236.873 276.492C236.861 285.469 229.55 292.78 220.573 292.78H220.499L211.682 292.474C211.633 292.474 211.596 292.474 211.547 292.474C210.028 292.474 208.644 293.417 208.106 294.85C206.073 300.25 208.154 307.635 210.579 316.183C212.514 323.005 214.511 330.071 214.253 335.864C213.91 343.628 205.007 351.527 196.606 351.527C193.997 351.527 191.536 350.805 189.295 349.384C188.78 348.16 188.792 344.118 188.792 341.13C188.805 334.847 188.817 327.022 186.233 319.698C183.637 312.338 178.517 305.149 172.553 300.495C160.172 290.82 143.786 285.469 143.1 285.248C142.916 285.187 142.732 285.15 142.549 285.113C137.981 284.391 134.662 280.509 134.686 275.879L134.784 235.771C134.797 230.64 138.397 226.207 143.541 224.994C144.227 224.835 145.096 224.725 146.027 224.602C148.366 224.308 151.281 223.941 153.975 222.422C162.107 217.818 172.97 216.262 183.502 215.258C199.031 213.788 214.841 213.384 225.373 213.299L225.459 213.311ZM225.459 209.637C225.422 209.637 225.373 209.637 225.337 209.637C214.266 209.723 198.578 210.163 183.147 211.621C170.679 212.796 160.27 214.646 152.15 219.238C149.113 220.965 145.402 220.781 142.683 221.43C135.96 223.023 131.123 228.864 131.098 235.771L131 275.892C130.976 282.297 135.642 287.771 141.973 288.763C141.973 288.763 158.286 294.017 170.288 303.41C174.794 306.925 180.024 313.171 182.767 320.947C187.347 333.904 183.049 349.678 187.004 352.299C190.078 354.332 193.36 355.214 196.606 355.214C207.309 355.214 217.511 345.588 217.927 336.035C218.515 322.576 208.485 304.28 211.547 296.148L220.413 296.454C220.462 296.454 220.511 296.454 220.56 296.454C231.57 296.454 240.523 287.526 240.535 276.504L240.596 224.811C240.621 216.422 233.824 209.637 225.459 209.637Z" fill="#DFC79E"/>
<path d="M201.59 283.938C203.893 277.814 203.917 268.262 201.59 262.359C198.222 253.835 189.98 246.377 180.465 245.067C178.138 244.748 179.522 242.605 181.836 242.923C192.136 244.344 206.073 248.52 209.698 257.766C219.642 283.178 208.008 296.491 202.815 292.523C200.317 290.588 200.292 287.404 201.59 283.938Z" fill="#DFC79E"/>
<path d="M237.73 300.103C221.663 300.103 210.249 297.397 205.619 292.474C203.844 290.6 203.06 288.42 203.219 285.824C203.746 276.749 216.066 274.851 226.292 274.851C237.73 274.851 249.071 277.202 249.181 277.227C249.267 277.251 249.365 277.263 249.45 277.263C254.827 277.582 258.905 282.872 258.537 289.057C258.182 295.046 253.835 299.736 248.63 299.736C248.458 299.736 248.299 299.736 248.128 299.724C248.091 299.724 248.054 299.724 248.018 299.724C247.969 299.724 247.907 299.724 247.858 299.736C247.809 299.724 243.56 300.103 237.73 300.103Z" fill="url(#paint1_radial_269_824)"/>
<path d="M226.28 276.688C237.498 276.688 248.679 279.002 248.789 279.027C248.961 279.064 249.144 279.088 249.328 279.1C251.361 279.223 253.235 280.251 254.619 282.015C256.1 283.901 256.835 286.375 256.688 288.959C256.394 293.968 252.855 297.899 248.618 297.899C248.483 297.899 248.348 297.899 248.226 297.887C248.152 297.887 248.079 297.875 248.018 297.875C247.907 297.875 247.797 297.875 247.687 297.887C247.65 297.887 243.462 298.254 237.73 298.254C222.397 298.254 211.179 295.682 206.954 291.2C205.534 289.694 204.921 288.004 205.044 285.909C205.166 283.901 205.901 280.986 210.935 278.929C214.609 277.447 219.764 276.688 226.28 276.688ZM226.28 273.014C214.266 273.014 201.97 275.536 201.37 285.714C200.549 299.822 223.745 301.94 237.73 301.94C243.719 301.94 248.018 301.549 248.018 301.549C248.226 301.561 248.422 301.561 248.63 301.561C254.766 301.561 259.958 296.148 260.362 289.155C260.779 281.942 255.941 275.794 249.548 275.414C249.548 275.426 238.049 273.014 226.28 273.014Z" fill="#DFC79E"/>
<path d="M233.958 277.422C220.597 277.422 204.677 275.181 204.677 264.478C204.677 253.786 220.597 251.533 233.958 251.533C245.299 251.533 255.611 253.186 255.709 253.198C255.807 253.211 255.905 253.223 256.003 253.223C261.158 253.223 265.163 259.493 265.163 264.894C265.163 270.013 261.403 275.72 256.003 275.72C255.905 275.72 255.807 275.732 255.709 275.745C255.598 275.769 245.287 277.422 233.958 277.422Z" fill="url(#paint2_radial_269_824)"/>
<path d="M233.959 253.382C245.128 253.382 255.317 255.011 255.415 255.023C255.611 255.06 255.807 255.072 256.003 255.072C259.946 255.072 263.326 260.473 263.326 264.906C263.326 269.156 260.191 273.895 256.003 273.895C255.807 273.895 255.611 273.908 255.415 273.944C255.317 273.957 245.152 275.585 233.959 275.585C225.594 275.585 218.944 274.704 214.18 272.952C207.31 270.43 206.514 266.903 206.514 264.478C206.514 262.041 207.31 258.526 214.18 256.003C218.932 254.264 225.594 253.382 233.959 253.382ZM233.959 249.708C219.348 249.708 202.84 252.39 202.84 264.49C202.84 276.59 219.336 279.272 233.959 279.272C245.581 279.272 256.003 277.582 256.003 277.582C262.322 277.582 267 271.177 267 264.919C267 258.66 262.322 251.41 256.003 251.41C256.003 251.398 245.568 249.708 233.959 249.708Z" fill="#DFC79E"/>
<path d="M233.101 233.836C213.923 233.836 202.925 230.15 202.901 223.721C202.901 222.031 203.562 220.536 204.946 219.153C212.845 211.229 238.979 210.825 244.135 210.825C244.895 210.825 245.336 210.837 245.336 210.837C251.349 210.837 256.186 215.87 256.211 222.043C256.223 225.055 255.096 227.897 253.051 230.028C251.018 232.146 248.324 233.31 245.458 233.322C245.409 233.322 245.348 233.322 245.299 233.334C245.238 233.347 239.922 233.836 233.101 233.836Z" fill="url(#paint3_radial_269_824)"/>
<path d="M244.135 212.674C244.87 212.674 245.287 212.686 245.299 212.686C245.323 212.686 245.385 212.686 245.409 212.686C250.332 212.686 254.349 216.899 254.361 222.067C254.374 224.602 253.431 226.99 251.716 228.778C250.038 230.53 247.809 231.497 245.446 231.509C245.336 231.509 245.225 231.509 245.115 231.522C245.066 231.522 239.849 232.012 233.113 232.012C215.637 232.012 204.762 228.84 204.75 223.733C204.75 222.986 204.897 221.835 206.256 220.475C209.832 216.862 221.895 212.674 244.135 212.674ZM244.135 209C236.959 209 201.027 209.698 201.076 223.733C201.113 233.91 219.997 235.673 233.113 235.673C240.106 235.673 245.458 235.171 245.458 235.171C252.426 235.147 258.06 229.268 258.035 222.043C258.011 214.829 252.365 209 245.409 209C245.397 209 245.385 209 245.372 209C245.372 209 244.931 209 244.135 209Z" fill="#DFC79E"/>
<path d="M232.415 254.252C221.418 254.252 202.95 252.794 202.95 243.083C202.95 231.509 228.545 230.26 239.555 230.26C245.96 230.26 250.663 230.64 250.712 230.64C250.761 230.64 250.81 230.64 250.859 230.64C256.651 230.64 261.918 236.763 261.918 243.499C261.918 250.614 255.953 253.137 250.859 253.137C250.785 253.137 250.7 253.137 250.626 253.149C250.54 253.186 242.127 254.252 232.415 254.252Z" fill="url(#paint4_radial_269_824)"/>
<path d="M239.555 232.11C245.862 232.11 250.516 232.489 250.565 232.489C250.663 232.501 250.761 232.501 250.871 232.501C255.61 232.501 260.093 237.853 260.093 243.524C260.093 249.279 255.329 251.325 250.871 251.325C250.712 251.325 250.553 251.337 250.393 251.349C250.308 251.361 242.004 252.427 232.415 252.427C224.075 252.427 217.388 251.655 212.563 250.137C204.799 247.687 204.799 244.234 204.799 243.095C204.799 239.372 208.497 236.506 215.784 234.559C223.328 232.526 232.881 232.11 239.555 232.11ZM239.555 228.436C224.871 228.436 201.113 230.395 201.113 243.095C201.113 253.872 218.258 256.101 232.415 256.101C242.372 256.101 250.859 254.999 250.859 254.999C257.766 254.999 263.755 251.08 263.755 243.524C263.755 235.967 257.766 228.827 250.859 228.827C250.859 228.827 246.107 228.436 239.555 228.436Z" fill="#DFC79E"/>
<path d="M154.648 219.765L148.782 242.911L146.333 222.092L154.648 219.765Z" fill="#DFC79E"/>
<defs>
<radialGradient id="paint0_radial_269_824" cx="0" cy="0" r="1" gradientUnits="userSpaceOnUse" gradientTransform="translate(184.015 322.024) rotate(-90.125) scale(106.595 83.9222)">
<stop offset="0.6" stop-color="#F5F2E8"/>
<stop offset="1" stop-color="#DFC79E"/>
</radialGradient>
<radialGradient id="paint1_radial_269_824" cx="0" cy="0" r="1" gradientUnits="userSpaceOnUse" gradientTransform="translate(246.7 288.552) rotate(-176.727) scale(34.6239 16.942)">
<stop offset="0.5993" stop-color="#F5F2E8"/>
<stop offset="1" stop-color="#DFC79E"/>
</radialGradient>
<radialGradient id="paint2_radial_269_824" cx="0" cy="0" r="1" gradientUnits="userSpaceOnUse" gradientTransform="translate(252.188 264.815) rotate(179.936) scale(38.9678 15.6267)">
<stop offset="0.5993" stop-color="#F5F2E8"/>
<stop offset="1" stop-color="#DFC79E"/>
</radialGradient>
<radialGradient id="paint3_radial_269_824" cx="0" cy="0" r="1" gradientUnits="userSpaceOnUse" gradientTransform="translate(244.636 222.595) rotate(179.726) scale(32.7255 17.0377)">
<stop offset="0.5993" stop-color="#F5F2E8"/>
<stop offset="1" stop-color="#DFC79E"/>
</radialGradient>
<radialGradient id="paint4_radial_269_824" cx="0" cy="0" r="1" gradientUnits="userSpaceOnUse" gradientTransform="translate(249.218 242.571) rotate(179.934) scale(37.2846 15.5083)">
<stop offset="0.5993" stop-color="#F5F2E8"/>
<stop offset="1" stop-color="#DFC79E"/>
</radialGradient>
</defs>
</svg>
