<?xml version="1.0" encoding="UTF-8"?><svg id="a" xmlns="http://www.w3.org/2000/svg" viewBox="0 0 397 397"><path d="M397,198.5c0,61.15-27.65,115.83-71.12,152.23-34.47,28.89-78.89,46.27-127.38,46.27-52.52,0-100.26-20.39-135.76-53.69C24.12,307.1,0,255.62,0,198.5,0,88.87,88.87,0,198.5,0s198.5,88.87,198.5,198.5Z" style="fill:#32281e;"/><text transform="translate(57.65 128.18)" style="fill:#f5f2e8; font-family:Century, Century; font-size:39.37px; letter-spacing:0em;"><tspan x="0" y="0">FIRED FROM </tspan><tspan x="-37.51" y="47.24">THE NEWSROOM</tspan></text><path d="M325.88,350.73c-34.47,28.89-78.89,46.27-127.38,46.27-52.52,0-100.26-20.39-135.76-53.69,30.24-37.69,76.68-61.81,128.76-61.81,55.42,0,104.46,27.32,134.38,69.23Z" style="fill:#f5f2e8;"/><circle cx="194.5" cy="270.5" r="79" style="fill:#dfc79e;"/><path d="M158.5,301.51c8.27-6.13,22.49-9.58,37-8.93,20.03,.9,30.06,9.12,31,9.92" style="fill:none; stroke:#f5f2e8; stroke-linecap:round; stroke-linejoin:round; stroke-width:4px;"/><path d="M148.29,256.37c3.43,5.13,9.33,8.01,15.35,7.47,8.31-.75,12.47-7.63,12.86-8.3" style="fill:none; stroke:#f5f2e8; stroke-linecap:round; stroke-linejoin:round; stroke-width:4px;"/><path d="M206.18,256.37c3.43,5.13,9.33,8.01,15.35,7.47,8.31-.75,12.47-7.63,12.86-8.3" style="fill:none; stroke:#f5f2e8; stroke-linecap:round; stroke-linejoin:round; stroke-width:4px;"/></svg>