<svg width="397" height="397" viewBox="0 0 397 397" fill="none" xmlns="http://www.w3.org/2000/svg">
<path d="M397 198.5C397 235.18 387.05 269.53 369.71 299C358.14 318.67 343.28 336.16 325.88 350.73C291.41 379.62 246.99 397 198.5 397C145.98 397 98.24 376.61 62.74 343.31C48.92 330.35 36.95 315.43 27.29 299C9.94 269.53 0 235.18 0 198.5C0 161.82 9.95 127.48 27.29 98C61.78 39.36 125.54 0 198.5 0C271.46 0 335.22 39.36 369.71 98C387.05 127.48 397 161.83 397 198.5V198.5Z" fill="#DFC79E"/>
<path d="M374.12 198.5C374.12 221.03 369.88 242.57 362.14 262.35C357.05 275.4 350.44 287.69 342.53 299C310.8 344.42 258.12 374.12 198.5 374.12C138.88 374.12 86.2 344.42 54.47 299C46.32 287.34 39.54 274.64 34.39 261.14C26.95 241.69 22.88 220.57 22.88 198.5C22.88 176.43 26.95 155.31 34.39 135.86C39.54 122.36 46.32 109.66 54.47 98C86.2 52.58 138.88 22.88 198.5 22.88C258.12 22.88 310.8 52.58 342.53 98C350.44 109.31 357.05 121.6 362.14 134.65C369.88 154.43 374.12 175.97 374.12 198.5Z" fill="#F5F2E8"/>
<path d="M374.12 198.5C374.12 221.03 369.88 242.57 362.14 262.35C362.03 262.45 361.91 262.54 361.79 262.64H36.21C35.59 262.14 34.99 261.64 34.39 261.14C26.95 241.69 22.88 220.57 22.88 198.5C22.88 176.43 26.95 155.31 34.39 135.86C34.99 135.36 35.59 134.86 36.21 134.36H361.79C361.91 134.46 362.03 134.55 362.14 134.65C369.88 154.43 374.12 175.97 374.12 198.5V198.5Z" fill="url(#paint0_radial_269_20)"/>
<path d="M42.1965 184.802H48.4016L64.0813 205.228V190.445C64.0813 188.956 63.7415 187.855 63.0618 187.14C62.4407 186.484 61.5149 186.144 60.2844 186.12V184.802H69.3723V186.12C68.4465 186.12 67.7551 186.249 67.2981 186.507C66.8411 186.765 66.4426 187.234 66.1028 187.913C65.7629 188.593 65.593 189.337 65.593 190.146V210.8H63.9407L47.7161 189.548V205.228C47.7161 206.646 48.0735 207.706 48.7883 208.409C49.5032 209.101 50.6106 209.458 52.1106 209.482V210.8H42.1965V209.482C43.4387 209.435 44.4231 209.031 45.1497 208.269C45.8762 207.495 46.2395 206.552 46.2395 205.439V187.808L45.9407 187.491C45.3547 186.859 44.9387 186.484 44.6926 186.366C44.3528 186.202 43.9133 186.12 43.3743 186.12H42.1965V184.802ZM83.8567 184.257C86.0481 184.257 88.0989 184.837 90.009 185.997C91.9309 187.146 93.4309 188.757 94.509 190.831C95.5989 192.894 96.1438 195.22 96.1438 197.81C96.1438 200.4 95.5989 202.738 94.509 204.823C93.4192 206.909 91.9192 208.538 90.009 209.71C88.1106 210.87 86.095 211.45 83.9622 211.45C81.8762 211.45 79.9192 210.882 78.0911 209.745C76.2629 208.597 74.7922 206.962 73.679 204.841C72.5774 202.708 72.0266 200.347 72.0266 197.757C72.0266 195.202 72.5598 192.9 73.6262 190.849C74.7043 188.786 76.175 187.175 78.0383 186.015C79.9016 184.843 81.8411 184.257 83.8567 184.257ZM84.1379 185.611C81.8528 185.611 80.0012 186.56 78.5833 188.458C77.1653 190.357 76.4563 193.45 76.4563 197.74C76.4563 202.392 77.1829 205.609 78.636 207.39C80.0891 209.171 81.8879 210.062 84.0325 210.062C85.5325 210.062 86.8508 209.657 87.9875 208.849C89.1243 208.04 90.0266 206.757 90.6946 204.999C91.3743 203.241 91.7141 200.933 91.7141 198.073C91.7141 194.956 91.3977 192.525 90.7649 190.779C90.1321 189.021 89.2297 187.72 88.0579 186.876C86.886 186.032 85.5793 185.611 84.1379 185.611ZM99.677 184.802H120.771L121.281 194.628H120.068C119.271 188.851 117.185 185.962 113.81 185.962C113.13 185.962 112.661 186.079 112.404 186.314C112.157 186.548 112.034 186.935 112.034 187.474V208.251C112.034 208.673 112.157 208.984 112.404 209.183C112.65 209.382 113.054 209.482 113.616 209.482H116.236V210.8H104.159V209.482H107.148C107.546 209.482 107.851 209.382 108.062 209.183C108.273 208.984 108.378 208.72 108.378 208.392V187.316C108.378 186.87 108.243 186.536 107.974 186.314C107.704 186.079 107.271 185.962 106.673 185.962C104.974 185.962 103.556 186.765 102.419 188.37C101.482 189.695 100.808 191.781 100.398 194.628H99.1145L99.677 184.802ZM133.532 184.802H146.347C149.241 184.802 151.45 185.458 152.974 186.771C154.497 188.083 155.259 189.8 155.259 191.921C155.259 194.042 154.556 195.659 153.15 196.773C151.216 198.308 148.831 199.075 145.995 199.075H141.355V207.952C141.355 208.468 141.478 208.837 141.724 209.06C142.052 209.341 142.491 209.482 143.042 209.482H145.995V210.8H133.532V209.482H136.134C136.65 209.482 137.025 209.382 137.259 209.183C137.505 208.972 137.628 208.691 137.628 208.339V187.615C137.628 187.087 137.476 186.706 137.171 186.472C136.866 186.238 136.292 186.12 135.448 186.12H133.532V184.802ZM141.355 197.792H144.888C147.126 197.792 148.738 197.329 149.722 196.404C150.718 195.466 151.216 193.925 151.216 191.781C151.216 190.281 150.993 189.132 150.548 188.335C150.103 187.527 149.447 186.929 148.579 186.542C147.724 186.156 146.312 185.962 144.343 185.962C143.042 185.962 142.216 186.085 141.865 186.331C141.525 186.577 141.355 187.005 141.355 187.615V197.792ZM157.087 184.802H169.093V186.12H166.685C166.04 186.12 165.589 186.226 165.331 186.437C165.073 186.648 164.945 186.97 164.945 187.404V202.081C164.945 203.616 165.079 204.777 165.349 205.562C165.747 206.722 166.474 207.648 167.529 208.339C168.595 209.031 169.984 209.376 171.695 209.376C174.062 209.376 175.866 208.767 177.109 207.548C178.351 206.318 178.972 204.677 178.972 202.626V190.691C178.972 189.636 178.896 188.839 178.743 188.3C178.603 187.749 178.392 187.322 178.111 187.017C177.841 186.712 177.495 186.49 177.073 186.349C176.652 186.197 175.948 186.12 174.964 186.12V184.802H184.79V186.12H184.087C182.986 186.12 182.165 186.419 181.626 187.017C181.087 187.603 180.818 188.458 180.818 189.583V202.363C180.818 205.152 180.021 207.29 178.427 208.779C176.634 210.454 174.249 211.292 171.273 211.292C168.695 211.292 166.667 210.929 165.191 210.202C163.714 209.464 162.642 208.409 161.974 207.038C161.47 205.995 161.218 204.683 161.218 203.101V187.404C161.218 187.005 161.077 186.695 160.796 186.472C160.527 186.238 160.116 186.12 159.566 186.12H157.087V184.802ZM187.198 184.802H200.751C203.411 184.802 205.445 185.388 206.851 186.56C208.269 187.732 208.978 189.202 208.978 190.972C208.978 192.448 208.486 193.702 207.501 194.734C206.517 195.765 205.034 196.579 203.054 197.177C205.503 197.693 207.337 198.507 208.556 199.62C209.786 200.722 210.402 202.116 210.402 203.804C210.402 205.093 210.05 206.236 209.347 207.232C208.656 208.228 207.495 209.072 205.866 209.763C204.249 210.454 202.409 210.8 200.347 210.8H187.198V209.482H189.343C189.988 209.482 190.456 209.376 190.749 209.165C191.054 208.954 191.206 208.714 191.206 208.445V187.615C191.206 187.122 191.06 186.753 190.767 186.507C190.474 186.249 190.046 186.12 189.484 186.12H187.198V184.802ZM194.968 196.755H199.89C201.402 196.755 202.603 196.31 203.493 195.419C204.396 194.529 204.847 193.07 204.847 191.042C204.847 189.788 204.63 188.81 204.197 188.107C203.775 187.404 203.154 186.894 202.333 186.577C201.525 186.249 200.118 186.085 198.115 186.085C196.697 186.085 195.818 186.191 195.478 186.402C195.138 186.601 194.968 186.958 194.968 187.474V196.755ZM194.968 198.056V208.075C194.968 208.544 195.103 208.896 195.372 209.13C195.654 209.365 196.152 209.482 196.866 209.482H200.013C202.099 209.482 203.64 209.025 204.636 208.111C205.632 207.185 206.13 205.749 206.13 203.804C206.13 202.023 205.615 200.622 204.583 199.603C203.552 198.572 202.128 198.056 200.312 198.056H194.968ZM212.634 184.802H224.675V186.12H221.792C221.335 186.12 220.995 186.243 220.773 186.49C220.562 186.724 220.456 187.099 220.456 187.615V208.128C220.456 208.62 220.591 208.972 220.861 209.183C221.142 209.382 221.698 209.482 222.531 209.482H226.187C228.132 209.482 229.72 208.837 230.95 207.548C232.193 206.247 233.095 203.997 233.657 200.798H234.888L234.29 210.8H212.634V209.482H214.761C215.488 209.482 215.997 209.347 216.29 209.077C216.583 208.796 216.73 208.351 216.73 207.741V187.439C216.73 187.005 216.607 186.677 216.361 186.454C216.115 186.232 215.751 186.12 215.271 186.12H212.634V184.802ZM236.857 184.802H248.845V186.12H246.788C245.874 186.12 245.294 186.238 245.048 186.472C244.814 186.695 244.697 187.175 244.697 187.913V207.601C244.697 208.386 244.802 208.878 245.013 209.077C245.294 209.347 245.804 209.482 246.542 209.482H248.845V210.8H236.857V209.482H239.124C239.921 209.482 240.437 209.365 240.671 209.13C240.906 208.896 241.023 208.386 241.023 207.601V187.913C241.023 187.163 240.917 186.7 240.706 186.525C240.378 186.255 239.775 186.12 238.896 186.12H236.857V184.802ZM266.827 186.771L268.409 184.503H269.693L269.798 193.978H268.638C267.911 191.072 266.833 188.95 265.404 187.615C263.986 186.279 262.351 185.611 260.499 185.611C258.952 185.611 257.687 186.073 256.702 186.999C255.718 187.925 255.226 189.056 255.226 190.392C255.226 191.224 255.413 191.956 255.788 192.589C256.163 193.21 256.72 193.72 257.458 194.118C258.208 194.505 259.615 194.921 261.677 195.366C264.572 195.999 266.599 196.638 267.759 197.282C268.931 197.927 269.804 198.741 270.378 199.726C270.952 200.698 271.24 201.841 271.24 203.154C271.24 205.497 270.448 207.443 268.866 208.99C267.296 210.525 265.263 211.292 262.767 211.292C260.083 211.292 257.751 210.425 255.771 208.691L253.784 211.116H252.519V201.044H253.784C254.277 203.822 255.378 206.013 257.089 207.618C258.8 209.224 260.728 210.027 262.872 210.027C264.607 210.027 266.019 209.517 267.109 208.497C268.21 207.466 268.761 206.218 268.761 204.753C268.761 203.921 268.556 203.195 268.146 202.573C267.736 201.941 267.085 201.413 266.195 200.991C265.304 200.558 263.552 200.036 260.939 199.427C258.068 198.747 256.111 197.986 255.068 197.142C253.603 195.947 252.87 194.253 252.87 192.062C252.87 189.777 253.597 187.907 255.05 186.454C256.515 184.99 258.384 184.257 260.657 184.257C261.747 184.257 262.784 184.45 263.769 184.837C264.753 185.224 265.773 185.868 266.827 186.771ZM274.544 184.802H285.636V186.12H283.597C282.882 186.12 282.413 186.249 282.191 186.507C281.98 186.753 281.874 187.363 281.874 188.335V196.351H293.775V188.335C293.775 187.327 293.669 186.706 293.458 186.472C293.259 186.238 292.779 186.12 292.017 186.12H290.118V184.802H301.157V186.12H299.136C298.632 186.12 298.275 186.185 298.064 186.314C297.865 186.443 297.7 186.665 297.572 186.982C297.501 187.181 297.466 187.702 297.466 188.546V207.249C297.466 208.152 297.542 208.697 297.695 208.884C297.999 209.282 298.556 209.482 299.365 209.482H301.157V210.8H290.118V209.482H292.017C292.767 209.482 293.277 209.277 293.546 208.866C293.698 208.644 293.775 208.058 293.775 207.109V198.073H281.874V207.249C281.874 208.163 281.945 208.714 282.085 208.902C282.378 209.288 282.882 209.482 283.597 209.482H285.636V210.8H274.544V209.482H276.671C277.046 209.482 277.345 209.406 277.568 209.253C277.79 209.101 277.954 208.884 278.06 208.603C278.118 208.415 278.148 207.917 278.148 207.109V188.335C278.148 187.363 278.036 186.753 277.814 186.507C277.603 186.249 277.134 186.12 276.407 186.12H274.544V184.802ZM305.2 184.802H325.802L326.294 193.573H325.116C324.648 190.808 323.904 188.874 322.884 187.773C321.876 186.671 320.558 186.12 318.929 186.12H313.831C313.421 186.12 313.111 186.232 312.9 186.454C312.689 186.677 312.583 187.017 312.583 187.474V196.738H314.816C316.011 196.738 316.978 196.31 317.716 195.454C318.466 194.599 318.87 193.286 318.929 191.517H320.142V203.558H318.929C318.87 201.566 318.46 200.142 317.698 199.286C316.948 198.419 315.923 197.986 314.622 197.986H312.583V208.322C312.583 208.697 312.706 208.984 312.952 209.183C313.21 209.382 313.632 209.482 314.218 209.482H318.243C322.615 209.482 325.134 206.693 325.802 201.115H327.068L326.628 210.8H305.2V209.482H306.976C307.667 209.482 308.154 209.365 308.435 209.13C308.716 208.884 308.857 208.532 308.857 208.075V187.474C308.857 187.017 308.734 186.677 308.488 186.454C308.241 186.232 307.855 186.12 307.327 186.12H305.2V184.802ZM330.091 184.802H343.521C345.513 184.802 347.206 185.154 348.601 185.857C350.335 186.747 351.806 188.23 353.013 190.304C354.232 192.378 354.841 194.833 354.841 197.669C354.841 200.013 354.478 202.122 353.751 203.997C353.2 205.439 352.351 206.698 351.202 207.777C350.066 208.855 348.677 209.663 347.036 210.202C345.806 210.601 344.165 210.8 342.115 210.8H330.091V209.482H332.552C333.173 209.482 333.601 209.382 333.835 209.183C334.081 208.984 334.204 208.673 334.204 208.251V187.316C334.204 186.952 334.075 186.665 333.818 186.454C333.56 186.232 333.202 186.12 332.745 186.12H330.091V184.802ZM339.513 186.12C338.986 186.12 338.593 186.232 338.335 186.454C338.089 186.677 337.966 187.011 337.966 187.456V208.198C337.966 208.62 338.113 208.943 338.406 209.165C338.698 209.376 339.197 209.482 339.9 209.482H342.115C344.095 209.482 345.829 208.972 347.318 207.952C348.29 207.273 349.029 206.318 349.532 205.087C350.224 203.423 350.57 201.126 350.57 198.197C350.57 193.861 349.814 190.685 348.302 188.669C347.013 186.97 345.068 186.12 342.466 186.12H339.513Z" fill="#F5F2E8"/>
<defs>
<radialGradient id="paint0_radial_269_20" cx="0" cy="0" r="1" gradientUnits="userSpaceOnUse" gradientTransform="translate(198.5 198.5) rotate(90.1425) scale(201.001 550.354)">
<stop offset="0.232292" stop-color="#32281E"/>
<stop offset="0.8" stop-color="#DFC79E"/>
</radialGradient>
</defs>
</svg>
