<?xml version="1.0" encoding="UTF-8"?><svg id="a" xmlns="http://www.w3.org/2000/svg" viewBox="0 0 397 397"><path d="M397,198.5c0,36.68-9.95,71.03-27.29,100.5-11.57,19.67-26.43,37.16-43.83,51.73-34.47,28.89-78.89,46.27-127.38,46.27-52.52,0-100.26-20.39-135.76-53.69-13.82-12.96-25.79-27.88-35.45-44.31C9.94,269.53,0,235.18,0,198.5S9.95,127.48,27.29,98C61.78,39.36,125.54,0,198.5,0s136.72,39.36,171.21,98c17.34,29.48,27.29,63.83,27.29,100.5Z" style="fill:#dfc79e;"/><path d="M374.12,198.5c0,22.53-4.24,44.07-11.98,63.85-5.09,13.05-11.7,25.34-19.61,36.65-31.73,45.42-84.41,75.12-144.03,75.12s-112.3-29.7-144.03-75.12c-8.15-11.66-14.93-24.36-20.08-37.86-7.44-19.45-11.51-40.57-11.51-62.64s4.07-43.19,11.51-62.64c5.15-13.5,11.93-26.2,20.08-37.86C86.2,52.58,138.88,22.88,198.5,22.88s112.3,29.7,144.03,75.12c7.91,11.31,14.52,23.6,19.61,36.65,7.74,19.78,11.98,41.32,11.98,63.85Z" style="fill:#f5f2e8;"/><path d="M374.12,198.5c0,22.53-4.24,44.07-11.98,63.85-.11,.1-.23,.19-.35,.29H36.21c-.62-.5-1.22-1-1.82-1.5-7.44-19.45-11.51-40.57-11.51-62.64s4.07-43.19,11.51-62.64c.6-.5,1.2-1,1.82-1.5H361.79c.12,.1,.24,.19,.35,.29,7.74,19.78,11.98,41.32,11.98,63.85Z" style="fill:#32281e;"/><text transform="translate(40.72 211.8)" style="fill:#f5f2e8; font-family:Century, Century; font-size:36px; letter-spacing:0em;"><tspan x="0" y="0">NOT PUBLISHED</tspan></text></svg>