<?xml version="1.0" encoding="UTF-8"?><svg id="a" xmlns="http://www.w3.org/2000/svg" viewBox="0 0 397 397"><path d="M397,198.5c0,36.68-9.95,71.03-27.29,100.5-11.57,19.67-26.43,37.16-43.83,51.73-34.47,28.89-78.89,46.27-127.38,46.27-52.52,0-100.26-20.39-135.76-53.69-13.82-12.96-25.79-27.88-35.45-44.31C9.94,269.53,0,235.18,0,198.5S9.95,127.48,27.29,98C61.78,39.36,125.54,0,198.5,0s136.72,39.36,171.21,98c17.34,29.48,27.29,63.83,27.29,100.5Z" style="fill:#dfc79e;"/><circle cx="198.5" cy="198.5" r="175.62" style="fill:#32281e;"/><path d="M397,198.5c0,36.68-9.95,71.03-27.29,100.5H27.29C9.94,269.53,0,235.18,0,198.5S9.95,127.48,27.29,98H369.71c17.34,29.48,27.29,63.83,27.29,100.5Z" style="fill:#f5f2e8;"/><text transform="translate(48.93 211.8)" style="fill:#32281e; font-family:Century, Century; font-size:48px; letter-spacing:0em;"><tspan x="0" y="0">PUBLISHED</tspan></text></svg>