<svg width="397" height="397" viewBox="0 0 397 397" fill="none" xmlns="http://www.w3.org/2000/svg">
<path d="M397 198.5C397 235.18 387.05 269.53 369.71 299C358.14 318.67 343.28 336.16 325.88 350.73C291.41 379.62 246.99 397 198.5 397C145.98 397 98.24 376.61 62.74 343.31C48.92 330.35 36.95 315.43 27.29 299C9.94 269.53 0 235.18 0 198.5C0 161.82 9.95 127.48 27.29 98C61.78 39.36 125.54 0 198.5 0C271.46 0 335.22 39.36 369.71 98C387.05 127.48 397 161.83 397 198.5V198.5Z" fill="#DFC79E"/>
<path d="M198.5 374.12C295.492 374.12 374.12 295.492 374.12 198.5C374.12 101.508 295.492 22.88 198.5 22.88C101.508 22.88 22.88 101.508 22.88 198.5C22.88 295.492 101.508 374.12 198.5 374.12Z" fill="#32281E"/>
<path d="M397 198.5C397 235.18 387.05 269.53 369.71 299H27.29C9.94 269.53 0 235.18 0 198.5C0 161.82 9.95 127.48 27.29 98H369.71C387.05 127.48 397 161.83 397 198.5Z" fill="url(#paint0_radial_269_819)"/>
<path d="M50.805 176.136H67.8909C71.7503 176.136 74.6956 177.011 76.7269 178.761C78.7581 180.511 79.7737 182.8 79.7737 185.628C79.7737 188.456 78.8362 190.612 76.9612 192.097C74.3831 194.144 71.2034 195.167 67.4222 195.167H61.2347V207.003C61.2347 207.691 61.3987 208.183 61.7269 208.48C62.1644 208.855 62.7503 209.042 63.4847 209.042H67.4222V210.8H50.805V209.042H54.2737C54.9612 209.042 55.4612 208.909 55.7737 208.644C56.1019 208.362 56.2659 207.987 56.2659 207.519V179.886C56.2659 179.183 56.0628 178.675 55.6566 178.362C55.2503 178.05 54.4847 177.894 53.3597 177.894H50.805V176.136ZM61.2347 193.456H65.9456C68.93 193.456 71.0784 192.839 72.3909 191.605C73.7191 190.355 74.3831 188.3 74.3831 185.441C74.3831 183.441 74.0862 181.909 73.4925 180.847C72.8987 179.769 72.0237 178.972 70.8675 178.456C69.7269 177.941 67.8441 177.683 65.2191 177.683C63.4847 177.683 62.3831 177.847 61.9144 178.175C61.4612 178.503 61.2347 179.073 61.2347 179.886V193.456ZM82.2112 176.136H98.2191V177.894H95.0081C94.1487 177.894 93.5472 178.034 93.2034 178.316C92.8597 178.597 92.6878 179.027 92.6878 179.605V199.175C92.6878 201.222 92.8675 202.769 93.2269 203.816C93.7581 205.362 94.7269 206.597 96.1331 207.519C97.555 208.441 99.4066 208.902 101.688 208.902C104.844 208.902 107.25 208.089 108.907 206.464C110.563 204.823 111.391 202.636 111.391 199.902V183.987C111.391 182.581 111.289 181.519 111.086 180.8C110.899 180.066 110.617 179.495 110.242 179.089C109.883 178.683 109.422 178.386 108.86 178.198C108.297 177.995 107.36 177.894 106.047 177.894V176.136H119.149V177.894H118.211C116.742 177.894 115.649 178.292 114.93 179.089C114.211 179.87 113.852 181.011 113.852 182.511V199.55C113.852 203.269 112.789 206.12 110.664 208.105C108.274 210.339 105.094 211.456 101.125 211.456C97.6878 211.456 94.9847 210.972 93.0159 210.003C91.0472 209.019 89.6175 207.612 88.7269 205.784C88.055 204.394 87.7191 202.644 87.7191 200.534V179.605C87.7191 179.073 87.5316 178.659 87.1566 178.362C86.7972 178.05 86.2503 177.894 85.5159 177.894H82.2112V176.136ZM122.36 176.136H140.43C143.977 176.136 146.688 176.917 148.563 178.48C150.453 180.042 151.399 182.003 151.399 184.362C151.399 186.331 150.742 188.003 149.43 189.378C148.117 190.753 146.141 191.839 143.5 192.636C146.766 193.323 149.211 194.409 150.836 195.894C152.477 197.362 153.297 199.222 153.297 201.472C153.297 203.191 152.828 204.714 151.891 206.042C150.969 207.37 149.422 208.495 147.25 209.417C145.094 210.339 142.641 210.8 139.891 210.8H122.36V209.042H125.219C126.078 209.042 126.703 208.902 127.094 208.62C127.5 208.339 127.703 208.019 127.703 207.659V179.886C127.703 179.23 127.508 178.737 127.117 178.409C126.727 178.066 126.157 177.894 125.407 177.894H122.36V176.136ZM132.719 192.073H139.282C141.297 192.073 142.899 191.48 144.086 190.292C145.289 189.105 145.891 187.159 145.891 184.456C145.891 182.784 145.602 181.48 145.024 180.542C144.461 179.605 143.633 178.925 142.539 178.503C141.461 178.066 139.586 177.847 136.914 177.847C135.024 177.847 133.852 177.987 133.399 178.269C132.946 178.534 132.719 179.011 132.719 179.698V192.073ZM132.719 193.808V207.167C132.719 207.792 132.899 208.261 133.258 208.573C133.633 208.886 134.297 209.042 135.25 209.042H139.446C142.227 209.042 144.282 208.433 145.61 207.214C146.938 205.98 147.602 204.066 147.602 201.472C147.602 199.097 146.914 197.23 145.539 195.87C144.164 194.495 142.266 193.808 139.844 193.808H132.719ZM156.274 176.136H172.328V177.894H168.485C167.875 177.894 167.422 178.058 167.125 178.386C166.844 178.698 166.703 179.198 166.703 179.886V207.237C166.703 207.894 166.883 208.362 167.242 208.644C167.617 208.909 168.36 209.042 169.469 209.042H174.344C176.938 209.042 179.055 208.183 180.696 206.464C182.352 204.73 183.555 201.73 184.305 197.464H185.946L185.149 210.8H156.274V209.042H159.11C160.078 209.042 160.758 208.862 161.149 208.503C161.539 208.128 161.735 207.534 161.735 206.722V179.652C161.735 179.073 161.571 178.636 161.242 178.339C160.914 178.042 160.43 177.894 159.789 177.894H156.274V176.136ZM188.571 176.136H204.555V177.894H201.813C200.594 177.894 199.821 178.05 199.492 178.362C199.18 178.659 199.024 179.3 199.024 180.284V206.534C199.024 207.581 199.164 208.237 199.446 208.503C199.821 208.862 200.5 209.042 201.485 209.042H204.555V210.8H188.571V209.042H191.594C192.657 209.042 193.344 208.886 193.657 208.573C193.969 208.261 194.125 207.581 194.125 206.534V180.284C194.125 179.284 193.985 178.667 193.703 178.433C193.266 178.073 192.461 177.894 191.289 177.894H188.571V176.136ZM228.532 178.761L230.641 175.737H232.352L232.492 188.37H230.946C229.977 184.495 228.539 181.667 226.633 179.886C224.742 178.105 222.563 177.214 220.094 177.214C218.032 177.214 216.344 177.831 215.032 179.066C213.719 180.3 213.063 181.808 213.063 183.589C213.063 184.698 213.313 185.675 213.813 186.519C214.313 187.347 215.055 188.027 216.039 188.558C217.039 189.073 218.914 189.628 221.664 190.222C225.524 191.066 228.227 191.917 229.774 192.777C231.336 193.636 232.5 194.722 233.266 196.034C234.032 197.331 234.414 198.855 234.414 200.605C234.414 203.73 233.36 206.323 231.25 208.386C229.157 210.433 226.446 211.456 223.117 211.456C219.539 211.456 216.43 210.3 213.789 207.987L211.141 211.222H209.453V197.792H211.141C211.797 201.495 213.266 204.417 215.547 206.558C217.828 208.698 220.399 209.769 223.258 209.769C225.571 209.769 227.453 209.089 228.907 207.73C230.375 206.355 231.11 204.691 231.11 202.737C231.11 201.628 230.836 200.659 230.289 199.831C229.742 198.987 228.875 198.284 227.688 197.722C226.5 197.144 224.164 196.448 220.68 195.636C216.852 194.73 214.242 193.714 212.852 192.589C210.899 190.995 209.922 188.737 209.922 185.816C209.922 182.769 210.891 180.277 212.828 178.339C214.782 176.386 217.274 175.409 220.305 175.409C221.758 175.409 223.141 175.667 224.453 176.183C225.766 176.698 227.125 177.558 228.532 178.761ZM238.821 176.136H253.61V177.894H250.891C249.938 177.894 249.313 178.066 249.016 178.409C248.735 178.737 248.594 179.55 248.594 180.847V191.534H264.461V180.847C264.461 179.503 264.321 178.675 264.039 178.362C263.774 178.05 263.133 177.894 262.117 177.894H259.586V176.136H274.305V177.894H271.61C270.938 177.894 270.461 177.98 270.18 178.152C269.914 178.323 269.696 178.62 269.524 179.042C269.43 179.308 269.383 180.003 269.383 181.128V206.066C269.383 207.269 269.485 207.995 269.688 208.245C270.094 208.777 270.836 209.042 271.914 209.042H274.305V210.8H259.586V209.042H262.117C263.117 209.042 263.797 208.769 264.157 208.222C264.36 207.925 264.461 207.144 264.461 205.878V193.831H248.594V206.066C248.594 207.284 248.688 208.019 248.875 208.269C249.266 208.784 249.938 209.042 250.891 209.042H253.61V210.8H238.821V209.042H241.657C242.157 209.042 242.555 208.941 242.852 208.737C243.149 208.534 243.367 208.245 243.508 207.87C243.586 207.62 243.625 206.956 243.625 205.878V180.847C243.625 179.55 243.477 178.737 243.18 178.409C242.899 178.066 242.274 177.894 241.305 177.894H238.821V176.136ZM279.696 176.136H307.164L307.821 187.831H306.25C305.625 184.144 304.633 181.566 303.274 180.097C301.93 178.628 300.172 177.894 298 177.894H291.203C290.657 177.894 290.242 178.042 289.961 178.339C289.68 178.636 289.539 179.089 289.539 179.698V192.05H292.516C294.11 192.05 295.399 191.48 296.383 190.339C297.383 189.198 297.922 187.448 298 185.089H299.617V201.144H298C297.922 198.487 297.375 196.589 296.36 195.448C295.36 194.292 293.992 193.714 292.258 193.714H289.539V207.495C289.539 207.995 289.703 208.378 290.032 208.644C290.375 208.909 290.938 209.042 291.719 209.042H297.086C302.914 209.042 306.274 205.323 307.164 197.886H308.852L308.266 210.8H279.696V209.042H282.063C282.985 209.042 283.633 208.886 284.008 208.573C284.383 208.245 284.571 207.777 284.571 207.167V179.698C284.571 179.089 284.407 178.636 284.078 178.339C283.75 178.042 283.235 177.894 282.532 177.894H279.696V176.136ZM312.883 176.136H330.789C333.446 176.136 335.703 176.605 337.563 177.542C339.875 178.73 341.836 180.706 343.446 183.472C345.071 186.237 345.883 189.511 345.883 193.292C345.883 196.417 345.399 199.23 344.43 201.73C343.696 203.652 342.563 205.331 341.032 206.769C339.516 208.206 337.664 209.284 335.477 210.003C333.836 210.534 331.649 210.8 328.914 210.8H312.883V209.042H316.164C316.992 209.042 317.563 208.909 317.875 208.644C318.203 208.378 318.367 207.964 318.367 207.402V179.487C318.367 179.003 318.196 178.62 317.852 178.339C317.508 178.042 317.032 177.894 316.422 177.894H312.883V176.136ZM325.446 177.894C324.742 177.894 324.219 178.042 323.875 178.339C323.547 178.636 323.383 179.081 323.383 179.675V207.331C323.383 207.894 323.578 208.323 323.969 208.62C324.36 208.902 325.024 209.042 325.961 209.042H328.914C331.555 209.042 333.867 208.362 335.852 207.003C337.149 206.097 338.133 204.823 338.805 203.183C339.727 200.964 340.188 197.902 340.188 193.995C340.188 188.214 339.18 183.98 337.164 181.292C335.446 179.027 332.852 177.894 329.383 177.894H325.446Z" fill="#32281E"/>
<defs>
<radialGradient id="paint0_radial_269_819" cx="0" cy="0" r="1" gradientUnits="userSpaceOnUse" gradientTransform="translate(198.5 198.5) rotate(89.8121) scale(152.501 475.944)">
<stop offset="0.354426" stop-color="#F5F2E8"/>
<stop offset="1" stop-color="#DFC79E"/>
</radialGradient>
</defs>
</svg>
