<?xml version="1.0" encoding="UTF-8"?><svg id="a" xmlns="http://www.w3.org/2000/svg" viewBox="0 0 397 397"><path d="M397,198.5c0,36.68-9.95,71.03-27.29,100.5-11.57,19.67-26.43,37.16-43.83,51.73-34.47,28.89-78.89,46.27-127.38,46.27-52.52,0-100.26-20.39-135.76-53.69-13.82-12.96-25.79-27.88-35.45-44.31C9.94,269.53,0,235.18,0,198.5S9.95,127.48,27.29,98C61.78,39.36,125.54,0,198.5,0s136.72,39.36,171.21,98c17.34,29.48,27.29,63.83,27.29,100.5Z" style="fill:#dfc79e;"/><path d="M374.12,198.5c0,22.53-4.24,44.07-11.98,63.85-5.09,13.05-11.7,25.34-19.61,36.65-31.73,45.42-84.41,75.12-144.03,75.12s-112.3-29.7-144.03-75.12c-8.15-11.66-14.93-24.36-20.08-37.86-7.44-19.45-11.51-40.57-11.51-62.64s4.07-43.19,11.51-62.64c5.15-13.5,11.93-26.2,20.08-37.86C86.2,52.58,138.88,22.88,198.5,22.88s112.3,29.7,144.03,75.12c7.91,11.31,14.52,23.6,19.61,36.65,7.74,19.78,11.98,41.32,11.98,63.85Z" style="fill:#dfc79e; stroke:#32281e; stroke-miterlimit:10; stroke-width:19px;"/><path d="M291,94.47v208.06c0,7.99-6.48,14.47-14.47,14.47H120.47c-7.99,0-14.47-6.48-14.47-14.47V140.09c0-9.04,3.43-17.75,9.59-24.37l22.65-24.33c6.76-7.26,16.24-11.39,26.17-11.39h112.12c7.99,0,14.47,6.48,14.47,14.47Z" style="fill:#f5f2e8; stroke:#32281e; stroke-miterlimit:10; stroke-width:19px;"/><rect x="170.5" y="111.53" width="98.5" height="14.43" rx="4.74" ry="4.74" style="fill:#32281e;"/><path d="M161.33,141h-47.45c-5.94,0-8.92-7.18-4.72-11.39l47.45-47.45c4.2-4.2,11.39-1.23,11.39,4.72v47.45c0,3.68-2.99,6.67-6.67,6.67Z" style="fill:#f5f2e8; stroke:#32281e; stroke-miterlimit:10; stroke-width:19px;"/><text transform="translate(131.29 214.63)" style="font-family:Century, Century; font-size:21px;"><tspan x="0" y="0">FOUND</tspan><tspan x="80.9" y="0" style="letter-spacing:-.06em;"> </tspan><tspan x="85.58" y="0" style="letter-spacing:0em;">AN </tspan><tspan x="0" y="25.2">ARTICLE IN </tspan><tspan x="0" y="50.4">THE </tspan><tspan x="0" y="75.6">ARCHIVES</tspan></text><rect x="132.21" y="155.75" width="137.29" height="14.43" rx="4.74" ry="4.74" style="fill:#32281e;"/></svg>