<?xml version="1.0" encoding="UTF-8"?><svg xmlns="http://www.w3.org/2000/svg" viewBox="0 0 2400.24 812"><defs><style>.aj{fill:#fff;}.ak{fill:#ffecc9;}.al{fill:#78672c;}.am{fill:#dfc79e;}.an{fill:#14110e;}.ao{fill:#c69c6d;}.ap{fill:#ffdf6f;}.aq{opacity:.65;}.aq,.ar,.as{fill:#f5f2e8;}.at{fill:#42413f;}.au{fill:none;}.av{fill:#c3bdad;}.aw{fill:#32281e;}.ar{stroke:#32281e;stroke-miterlimit:10;stroke-width:12px;}.ax{fill:#754c24;}.ay{fill:#aa8f61;}</style></defs><g id="a"><rect class="ay" x="880" y="39" width="1261" height="466"/><rect class="as" x="1224" y="26" width="436" height="750"/><path class="as" d="M1576,26V776h597V26h-597Zm312,517v-63h-213v61h-15V48h15v-1h-15v-15h480v15h-15v1h15v493h-15v-61h-222v63h-15Z"/><path class="as" d="M1208.85,508.77c-.21,.17-.35,.31-.45,.43-.06,.08,.14,.14,.6,.16v-.72l-.15,.13Zm-1.35-461.86v112.2l.5-.11V453h1V46.34l-1.5,.57Zm1.35,461.86c-.21,.17-.35,.31-.45,.43-.06,.08,.14,.14,.6,.16v-.72l-.15,.13Zm-1.35-461.86v112.2l.5-.11V453h1V46.34l-1.5,.57Zm1.35,461.86c-.21,.17-.35,.31-.45,.43-.06,.08,.14,.14,.6,.16v-.72l-.15,.13Zm-1.35-461.86v112.2l.5-.11V453h1V46.34l-1.5,.57Zm1.35,461.86c-.21,.17-.35,.31-.45,.43-.06,.08,.14,.14,.6,.16v-.72l-.15,.13Zm-1.35-461.86v112.2l.5-.11V453h1V46.34l-1.5,.57Zm15.5-20.91v15l.75,368,.09,44,.02,9.39,.08,38.09v4.52l.03,9.31,.03,15.69h-15V46.34l-1.5,.57v112.2l.5-.11V462h-301V223l.48-.1v-61.66l-1.27,.49,.7,343.27,.09,46h-12V155l286.08-116,32.06-13h-338.14V776h436V26h-88Zm-15.5,20.91v112.2l.5-.11V453h1V46.34l-1.5,.57Zm1.35,461.86c-.21,.17-.35,.31-.45,.43-.06,.08,.14,.14,.6,.16v-.72l-.15,.13Zm-1.35-461.86v112.2l.5-.11V453h1V46.34l-1.5,.57Zm1.35,461.86c-.21,.17-.35,.31-.45,.43-.06,.08,.14,.14,.6,.16v-.72l-.15,.13Zm-1.35-461.86v112.2l.5-.11V453h1V46.34l-1.5,.57Zm1.35,461.86c-.21,.17-.35,.31-.45,.43-.06,.08,.14,.14,.6,.16v-.72l-.15,.13Z"/><rect class="as" x="25" y="149" width="855" height="627"/><g><rect class="aq" x="1675" y="250" width="450" height="230"/><polygon class="aq" points="1208 135 1208 460.65 907 460.65 907 203.79 907.48 203.68 1207.5 135.12 1208 135"/></g><polygon class="am" points="1207.5 46.5 1207.5 159.5 907.48 223.45 907.48 159.5 1207.5 46.5"/><rect class="aw" x="1888" y="50" width="15" height="493"/><rect class="am" x="1675" y="46" width="450" height="221"/><rect class="aw" x="1660" y="46" width="15" height="495"/><path class="am" d="M1154.33,26l-29.63,13-244.7,107.37-5,2.19-1,.44H25V34.68c0-4.79,3.89-8.68,8.68-8.68H1154.33Z"/><rect class="aw" x="2125" y="46" width="15" height="495"/><rect class="aw" x="1660" y="31" width="480" height="15"/><polygon class="aw" points="1224 530 1208 530 1208 45 1222.93 39 1222.93 41 1224 530"/><polygon class="aw" points="906.88 551 895 551 895 163 906.08 158.2 906.09 161.73 906.88 551"/><polygon class="aw" points="1223 26 1223 41 1222.93 41.03 1209 46.34 1207.5 46.91 907.48 161.24 906.21 161.73 906.09 161.78 895 166 895 155 1181.08 39 1213.14 26 1223 26"/><path class="as" d="M2376,543v233h-236V26h226.32c4.79,0,8.68,3.89,8.68,8.68v508.32h1Z"/><rect class="aw" x="1351" y="543" width="1025" height="233"/><rect class="aw" x="1909" y="309" width="12" height="46"/><path class="aw" d="M1251.47,113.74h374.38v15.36h-374.38v-15.36Z"/><path class="aw" d="M1561.36,76.2c.21-.17,.6-.25,1.19-.25h1.67v-1.02h-6.84l-5.53,15.86-5.99-15.86h-6.7v1.02h1.72c.57,0,.95,.08,1.16,.24,.21,.15,.32,.4,.32,.75v13.85c0,1.15-.23,1.95-.67,2.41-.44,.45-1.29,.72-2.53,.8v1.02h7.58v-1.02c-.93-.06-1.6-.2-2.01-.42-.4-.24-.71-.57-.92-.99-.22-.44-.33-1.09-.33-1.96v-14.6l7.15,18.99h.92l6.64-19.07v17.06c0,.29-.11,.53-.35,.72-.24,.18-.6,.27-1.09,.27h-1.71v1.02h9.18v-1.02h-1.53c-.6,0-1.02-.09-1.26-.26-.25-.17-.37-.42-.37-.73v-15.91c0-.42,.1-.72,.3-.9Zm-25.43,3.39c-.83-1.61-1.99-2.85-3.48-3.74-1.47-.9-3.06-1.34-4.75-1.34-1.56,0-3.06,.45-4.5,1.35-1.44,.9-2.57,2.15-3.41,3.74-.82,1.58-1.23,3.36-1.23,5.34s.42,3.82,1.28,5.47c.86,1.64,1.99,2.9,3.4,3.79,1.42,.88,2.93,1.32,4.54,1.32s3.21-.45,4.67-1.35c1.48-.9,2.64-2.16,3.48-3.77,.84-1.61,1.26-3.42,1.26-5.42s-.42-3.8-1.26-5.39Zm-2.95,10.94c-.51,1.36-1.21,2.35-2.09,2.98-.88,.62-1.9,.94-3.05,.94-1.66,0-3.05-.69-4.17-2.07-1.13-1.38-1.69-3.86-1.69-7.46,0-3.31,.55-5.7,1.64-7.17,1.1-1.46,2.53-2.2,4.3-2.2,1.11,0,2.12,.33,3.03,.98,.9,.65,1.6,1.66,2.09,3.02,.49,1.34,.73,3.22,.73,5.63,0,2.21-.26,4-.79,5.35Zm-18.7-10.94c-.83-1.61-1.99-2.85-3.48-3.74-1.47-.9-3.06-1.34-4.75-1.34-1.56,0-3.06,.45-4.5,1.35-1.44,.9-2.57,2.15-3.41,3.74-.82,1.58-1.23,3.36-1.23,5.34s.42,3.82,1.27,5.47c.86,1.64,2,2.9,3.41,3.79,1.42,.88,2.93,1.32,4.54,1.32s3.21-.45,4.67-1.35c1.48-.9,2.64-2.16,3.48-3.77,.84-1.61,1.26-3.42,1.26-5.42s-.42-3.8-1.26-5.39Zm-2.95,10.94c-.51,1.36-1.21,2.35-2.09,2.98-.88,.62-1.9,.94-3.06,.94-1.65,0-3.04-.69-4.17-2.07-1.12-1.38-1.68-3.86-1.68-7.46,0-3.31,.55-5.7,1.64-7.17,1.1-1.46,2.53-2.2,4.3-2.2,1.11,0,2.12,.33,3.02,.98,.91,.65,1.61,1.66,2.1,3.02,.49,1.34,.73,3.22,.73,5.63,0,2.21-.26,4-.79,5.35Zm-17.36,.07c-.05,1.04-.2,1.77-.45,2.19-.23,.41-.49,.61-.77,.61s-.52-.17-.76-.5c-.31-.44-.6-1.25-.87-2.43-.38-1.66-.72-2.76-1.02-3.29-.29-.54-.68-.98-1.17-1.32s-1.38-.69-2.67-1.04c1.77-.19,3.07-.48,3.9-.89,.83-.41,1.46-.97,1.9-1.65,.44-.7,.66-1.49,.66-2.38,0-1.49-.55-2.69-1.67-3.6-1.1-.92-2.66-1.37-4.67-1.37h-10.38v1.02h1.97c.43,0,.74,.08,.95,.25,.21,.18,.32,.43,.32,.78v16.05c0,.3-.11,.54-.32,.71-.2,.17-.51,.26-.95,.26h-1.97v1.02h9.33v-1.02h-1.92c-.47,0-.81-.09-1.02-.26-.18-.14-.26-.37-.26-.71v-7.89h1.64c.87,0,1.62,.16,2.24,.46,.63,.31,1.09,.72,1.38,1.23,.29,.5,.51,1.36,.65,2.56,.23,2.08,.45,3.36,.64,3.85,.24,.65,.6,1.14,1.08,1.48,.49,.33,1.07,.5,1.73,.5,2.1,0,3.23-1.54,3.41-4.62h-.93Zm-9.46-6.44h-2.38v-7.24c0-.36,.13-.61,.38-.76,.25-.15,.91-.23,1.98-.23,1.62,0,2.71,.12,3.26,.34,.55,.23,1,.65,1.33,1.27,.35,.61,.52,1.45,.52,2.51,0,1.54-.45,2.61-1.36,3.22-.9,.6-2.14,.89-3.73,.89Zm-11.13,2.3c-.44-.76-1.12-1.39-2.02-1.89s-2.47-.99-4.7-1.48c-1.6-.34-2.68-.66-3.26-.96-.57-.31-1-.71-1.29-1.19-.29-.48-.44-1.05-.44-1.69,0-1.04,.38-1.91,1.14-2.62,.76-.72,1.74-1.08,2.94-1.08,1.43,0,2.69,.52,3.79,1.55,1.1,1.03,1.94,2.67,2.5,4.92h.89l-.08-7.32h-.99l-1.22,1.75c-.82-.7-1.61-1.2-2.37-1.5-.76-.29-1.56-.44-2.4-.44-1.76,0-3.2,.56-4.33,1.69-1.13,1.13-1.69,2.57-1.69,4.34s.57,3,1.7,3.92c.81,.65,2.32,1.24,4.54,1.77,2.02,.47,3.37,.87,4.06,1.21,.69,.32,1.19,.73,1.51,1.22,.31,.48,.47,1.04,.47,1.68,0,1.14-.42,2.1-1.28,2.9-.84,.78-1.93,1.18-3.27,1.18-1.66,0-3.15-.62-4.47-1.86s-2.17-2.94-2.55-5.08h-.98v7.78h.98l1.53-1.87c1.53,1.34,3.34,2.01,5.41,2.01,1.93,0,3.5-.6,4.71-1.78,1.23-1.2,1.84-2.7,1.84-4.51,0-1.02-.22-1.9-.67-2.65Zm-22.1-11.53v1.02h.63c.55,0,.96,.14,1.23,.43,.28,.28,.42,.73,.42,1.33,0,.41-.06,.83-.2,1.28l-3.42,11.42-4.17-13.2c-.06-.16-.08-.34-.08-.53,0-.24,.11-.43,.34-.54,.22-.13,.72-.19,1.48-.19h.87v-1.02h-8.39v1.02h1.23c.66,0,1.1,.11,1.31,.34,.23,.22,.55,1.01,.97,2.35l-3.59,11.77-4.09-12.75-.08-.26c-.13-.35-.2-.61-.2-.77,0-.24,.09-.41,.28-.52,.2-.11,.66-.16,1.36-.16h.48v-1.02h-6.71v1.02c.62,0,1.08,.11,1.36,.34,.29,.21,.54,.67,.77,1.37l5.65,17.83h1.02l4.4-14.74,4.65,14.74h.95l4.94-16.5c.25-.84,.49-1.45,.72-1.81,.25-.36,.53-.64,.86-.83,.32-.2,.76-.33,1.31-.4v-1.02h-6.3Zm-23.17,12.6c-.52,4.31-2.46,6.47-5.84,6.47h-3.11c-.45,0-.78-.08-.98-.23-.19-.16-.28-.38-.28-.67v-7.99h1.57c1.01,0,1.8,.34,2.38,1.01,.59,.66,.9,1.76,.95,3.3h.94v-9.3h-.94c-.05,1.36-.36,2.38-.94,3.04-.57,.66-1.32,.99-2.24,.99h-1.72v-7.16c0-.35,.08-.61,.24-.79,.16-.17,.4-.25,.72-.25h3.94c1.26,0,2.28,.42,3.05,1.27,.79,.85,1.37,2.35,1.73,4.49h.91l-.38-6.78h-15.92v1.02h1.64c.41,0,.71,.08,.9,.25,.19,.18,.29,.44,.29,.79v15.92c0,.35-.11,.63-.33,.82-.22,.18-.59,.27-1.13,.27h-1.37v1.02h16.56l.34-7.49h-.98Zm-25.31-12.6v1.02c.96,0,1.67,.28,2.15,.78,.53,.56,.79,1.41,.79,2.56v11.42l-12.12-15.78h-4.79v1.02h.91c.41,0,.75,.06,1.02,.19,.19,.09,.51,.38,.96,.87l.23,.24v13.62c0,.86-.28,1.59-.84,2.19-.56,.59-1.32,.9-2.28,.94v1.02h7.66v-1.02c-1.16-.02-2.02-.3-2.57-.83-.55-.54-.83-1.36-.83-2.46v-12.12l12.54,16.43h1.28v-15.96c0-.63,.13-1.2,.39-1.73,.26-.52,.57-.89,.92-1.09,.36-.19,.89-.29,1.61-.29v-1.02h-7.03Zm-25.22,12.6c-.51,4.31-2.46,6.47-5.84,6.47h-3.11c-.45,0-.78-.08-.98-.23-.19-.16-.28-.38-.28-.67v-7.99h1.57c1.01,0,1.8,.34,2.38,1.01,.59,.66,.9,1.76,.95,3.3h.94v-9.3h-.94c-.05,1.36-.36,2.38-.94,3.04-.57,.66-1.31,.99-2.24,.99h-1.72v-7.16c0-.35,.08-.61,.24-.79,.16-.17,.4-.25,.72-.25h3.94c1.26,0,2.28,.42,3.06,1.27,.78,.85,1.36,2.35,1.72,4.49h.91l-.38-6.78h-15.92v1.02h1.65c.4,0,.7,.08,.89,.25,.19,.18,.29,.44,.29,.79v15.92c0,.35-.11,.63-.33,.82-.22,.18-.59,.27-1.13,.27h-1.37v1.02h16.56l.34-7.49h-.98Zm-21.81-10.92c.1-.24,.22-.41,.38-.51,.16-.1,.44-.15,.83-.15h1.56v-1.02h-8.53v1.02h1.46c.59,0,.96,.09,1.12,.27,.16,.18,.24,.66,.24,1.44v6.19h-9.19v-6.19c0-.75,.08-1.22,.24-1.42,.17-.19,.54-.29,1.09-.29h1.57v-1.02h-8.57v1.02h1.44c.56,0,.93,.1,1.09,.29,.17,.2,.26,.67,.26,1.42v14.5c0,.63-.03,1.01-.07,1.16-.08,.22-.21,.38-.38,.5-.17,.12-.4,.18-.69,.18h-1.65v1.02h8.57v-1.02h-1.57c-.55,0-.94-.15-1.17-.45-.11-.15-.16-.57-.16-1.28v-7.09h9.19v6.98c0,.74-.06,1.19-.17,1.36-.21,.32-.61,.48-1.19,.48h-1.46v1.02h8.53v-1.02h-1.39c-.62,0-1.05-.16-1.29-.46-.12-.15-.17-.57-.17-1.27v-14.45c0-.65,.02-1.05,.08-1.21Zm-20.13-1.68h-16.3l-.44,7.59h.99c.32-2.2,.84-3.81,1.57-4.84,.87-1.24,1.97-1.86,3.28-1.86,.47,0,.8,.09,1.01,.28,.21,.17,.31,.43,.31,.77v16.29c0,.25-.08,.45-.24,.61-.17,.15-.4,.23-.71,.23h-2.31v1.02h9.33v-1.02h-2.02c-.44,0-.75-.08-.94-.23-.19-.16-.28-.4-.28-.72v-16.06c0-.41,.09-.71,.28-.89,.2-.19,.56-.28,1.09-.28,2.61,0,4.22,2.24,4.83,6.7h.94l-.39-7.59Z"/><rect class="ap" x="1251.47" y="40" width="374.38" height="10.43"/><rect class="am" x="1251.47" y="40" width="374.38" height="10.43"/></g><g id="b"><path class="am" d="M1896.22,543.27c-181.74-.09-363.48-.18-545.22-.27,131.73,33.24,263.46,66.48,395.19,99.73,28.85,7.27,57.69,14.55,86.54,21.83l147.03,37.11c4.96,1.25,9.92,2.5,14.88,3.75,.79,.2,1.59,.4,2.38,.6,5.2,1.31,10.39,2.62,15.59,3.94,11.87,2.99,23.73,5.98,35.6,8.98,9.47,2.39,18.93,4.78,28.4,7.17,18.45,4.65,36.91,9.31,55.36,13.96,1.32,.34,2.64,.67,3.96,1.01,4.81,1.21,9.61,2.42,14.42,3.63,1.81,.46,3.62,.92,5.43,1.37,39.52,9.98,79.03,19.95,118.55,29.92H319.13l268.9-265.5c14.02-13.85,30.57-25.35,48.91-33.99,14.25-6.71,29.26-11.83,44.72-15.27,15.46-3.44,31.36-5.21,47.39-5.24l1646.45,.5v87c-91.11-.05-182.23-.09-273.34-.13-68.65-.04-137.29-.07-205.94-.1Z"/></g><g id="c"><path class="am" d="M829.5,476.19c.09,.01,.18,.03,.28,.04-.11,.03-.21,.06-.31,.08l.03-.12Z"/><path class="am" d="M833.48,456.03c-.15,.98-.3,1.98-.46,3.01-1.49-.04-2.9-.34-3.32-1.22-.09-.18-.12-.37-.12-.56-1.37,.05-3.28-.5-6.05-1.23h9.95Z"/></g><g id="d"><g><path class="aw" d="M1082,351.88l-.79,99.64c0,.74-.57,1.39-1.27,1.44l-156.9,11.57c-.7,.05-1.28-.54-1.28-1.29l.79-99.6c0-.78,.57-1.39,1.27-1.44l156.9-11.57c.7-.05,1.28,.51,1.28,1.25Z"/><path class="aw" d="M1055.49,490.87c0,7.98-24.07,10.49-53.75,12.53-29.67,2.05-53.75,1.94-53.76-6.04,0-5.98,13.35-12.06,32.61-15.6,2.87-.53,5.47-2.3,6.94-4.85,.79-1.37,1.43-3.09,1.81-6.22,.39-3.08-.31-47.43-.63-50.46l1.45-2.26,21.63-1.85c1.01,1.01,.83,.85,.87,1.07,.07,.31,.23,.59,.49,.75,.23,.15,.47,.28,.67,.46h0c-.16,.08-.27,.24-.28,.41-.2,4.85,1.1,49.88,1.45,52.66,0,.05,.01,.1,.02,.15,.56,4.18,4,7.24,8.27,7.51,18.87,1.21,32.2,5.86,32.2,11.74Z"/></g><g><path class="aw" d="M1537.85,734.08c67.57,25.66,88.27-10.71,93.7-23.8,10.5-25.3-15.68-45.07-33.95-63.08-10.86-10.71-20.9,.92-23.09,4.76-1.36,2.38,1.43,9.24,.33,4.47-.6-2.63-1.1-6.12-1.39-13.16-.3-6.75-.31-11.51-.08-18.61v-.31l-5.65-10.46-8.15-55.94c.96,.64-26.58,24.06-27.16,24.99-3.49,5.64,10.22,68.19,10.86,80.94,.52,10.2,0,39.46,0,29.76,0-5.95-.95-24.82-4.07-21.42-13.83,15.03-42.1,46.42-1.36,61.89Z"/><path class="as" d="M1592.81,450.07l27.88,223.31c-.2,.98,1.44,2.38,2.72,2.38,1.36,0,1.3-.9,1.36-1.19l17.22-82.75c.08-.38-.06-2.14-.29-3.82l-31.32-224.56c-.24-1.76-.49-2.73-.56-2.35l-17.27,85.25c-.08,.38,.05,2.06,.28,3.74Z"/><path class="aw" d="M1603.81,361.65c-.39,.04-.77,.12-1.14,.24-4.15,1.4-30.28,10.68-41.22,25.94-11.37,15.87-16.01,86.05-16.39,92.18-.02,.29,0,.57,.05,.85l26.06,141.15c2.54,13.77,10.38,26.37,22.22,35.7l22.55,17.78c3.13,2.47,8.08,.21,7.56-3.46l-31.19-220.61c-.05-.39-.04-.78,.03-1.17l16.43-83.97c.51-2.61-1.97-4.93-4.98-4.64h0Z"/></g><g><path class="ar" d="M1576.88,412.75l-2.46,276.92c0,2.07-1.68,3.75-3.75,3.75h-460.87c-2.07,0-3.75-1.77-3.75-3.84l2.46-276.82c0-2.17,1.68-3.75,3.75-3.75h460.87c2.07,0,3.75,1.68,3.75,3.75Z"/><path class="aw" d="M1483.18,776h-285.81c4.72-5.76,13.94-11.06,26.63-15.6,15.31-5.49,35.67-9.87,59.26-12.63,7.81-.92,15-5.2,19.07-11.92,2.24-3.7,4.07-8.38,5.13-17.21,1.08-8.48,1.08-14.29,.2-22.77l-.06-.37h73.74l-6.25,2.74c-.79,7.98,1.87,19.52,2.85,27.5,.02,.14,.04,.29,.06,.42,1.52,11.73,10.98,20.9,22.7,22.48,39.46,5.31,70.1,15.56,82.48,27.36Z"/></g><g><path class="aw" d="M849.58,696.03c-60.71,24.35-79.31-10.17-84.19-22.59-9.43-24.01,14.09-42.77,30.5-59.86,9.76-10.17,18.77,.88,20.74,4.52,1.22,2.26-1.28,8.77-.3,4.24,.54-2.49,.99-5.81,1.25-12.49,.27-6.4,.28-10.92,.07-17.66v-.3l5.08-9.93,7.32-53.08c-.86,.61,23.88,22.83,24.4,23.72,3.14,5.35-9.18,64.71-9.76,76.8-.46,9.68,0,37.45,0,28.24,0-5.65,.85-23.55,3.66-20.33,12.42,14.26,37.82,44.05,1.22,58.73Z"/><path class="as" d="M800.2,426.52l-25.05,211.9c.18,.93-1.29,2.26-2.44,2.26-1.22,0-1.17-.86-1.22-1.13l-15.47-78.53c-.07-.36,.05-2.03,.26-3.62l28.14-213.1c.22-1.67,.44-2.59,.51-2.23l15.52,80.9c.07,.36-.04,1.95-.25,3.55Z"/><path class="aw" d="M790.32,342.62c.35,.03,.69,.11,1.02,.23,3.73,1.33,27.21,10.13,37.03,24.61,10.22,15.06,14.38,81.65,14.73,87.48,.02,.27,0,.54-.05,.81l-23.41,133.94c-2.28,13.07-9.33,25.02-19.96,33.88l-20.26,16.87c-2.81,2.34-7.26,.2-6.8-3.28l28.02-209.35c.05-.37,.04-.74-.03-1.11l-14.77-79.68c-.46-2.48,1.77-4.68,4.47-4.41h0Z"/></g><path class="at" d="M1172.26,500.48h337.07v13.83h-337.07v-13.83Z"/><path class="aw" d="M1172.26,500.48h337.07v13.83h-337.07v-13.83Z"/><path class="aw" d="M1451.26,473.89c.19-.15,.54-.23,1.07-.23h1.51v-.92h-6.17l-4.97,14.29-5.4-14.29h-6.02v.92h1.54c.51,0,.86,.07,1.05,.22,.19,.14,.28,.36,.28,.67v12.48c0,1.03-.2,1.75-.6,2.16-.4,.41-1.16,.65-2.27,.72v.92h6.82v-.92c-.84-.05-1.44-.17-1.81-.38-.36-.21-.64-.51-.83-.89-.2-.39-.3-.98-.3-1.76v-13.15l6.44,17.1h.83l5.98-17.17v15.36c0,.26-.11,.48-.32,.65-.21,.16-.54,.24-.98,.24h-1.54v.92h8.27v-.92h-1.38c-.54,0-.92-.08-1.14-.23-.22-.16-.33-.38-.33-.66v-14.32c0-.38,.09-.65,.27-.81Zm-22.89,3.05c-.76-1.45-1.8-2.57-3.14-3.37-1.32-.8-2.75-1.21-4.28-1.21-1.4,0-2.75,.41-4.04,1.23-1.3,.8-2.32,1.92-3.07,3.36-.75,1.43-1.12,3.03-1.12,4.8s.39,3.45,1.15,4.93c.78,1.48,1.8,2.62,3.07,3.42,1.27,.79,2.64,1.18,4.09,1.18s2.88-.4,4.2-1.21c1.33-.81,2.38-1.95,3.14-3.4,.75-1.45,1.13-3.08,1.13-4.88s-.38-3.42-1.13-4.85Zm-2.66,9.85c-.46,1.23-1.09,2.12-1.88,2.68-.79,.56-1.71,.84-2.75,.84-1.5,0-2.75-.61-3.76-1.85-1.01-1.24-1.51-3.48-1.51-6.72,0-2.98,.49-5.13,1.48-6.45,.98-1.33,2.27-1.99,3.86-1.99,1,0,1.91,.3,2.73,.88,.81,.59,1.44,1.5,1.88,2.72,.44,1.21,.66,2.91,.66,5.07,0,1.99-.24,3.6-.71,4.82Zm-16.84-9.85c-.75-1.45-1.79-2.57-3.13-3.37-1.33-.8-2.75-1.21-4.28-1.21-1.4,0-2.75,.41-4.05,1.23-1.29,.8-2.32,1.92-3.07,3.36-.74,1.43-1.11,3.03-1.11,4.8s.38,3.45,1.15,4.93c.78,1.48,1.8,2.62,3.07,3.42,1.27,.79,2.63,1.18,4.08,1.18s2.89-.4,4.21-1.21c1.33-.81,2.37-1.95,3.13-3.4s1.14-3.08,1.14-4.88-.38-3.42-1.14-4.85Zm-2.65,9.85c-.47,1.23-1.09,2.12-1.89,2.68-.79,.56-1.7,.84-2.75,.84-1.49,0-2.74-.61-3.75-1.85-1.01-1.24-1.52-3.48-1.52-6.72,0-2.98,.5-5.13,1.48-6.45,.99-1.33,2.28-1.99,3.87-1.99,1,0,1.91,.3,2.72,.88,.82,.59,1.45,1.5,1.89,2.72,.44,1.21,.66,2.91,.66,5.07,0,1.99-.24,3.6-.71,4.82Zm-15.63,.06c-.05,.94-.18,1.6-.4,1.97s-.45,.55-.7,.55-.47-.15-.69-.45c-.27-.39-.53-1.12-.78-2.19-.34-1.49-.65-2.48-.92-2.96-.26-.49-.61-.88-1.05-1.18-.44-.31-1.24-.63-2.41-.95,1.6-.16,2.77-.42,3.51-.79,.75-.38,1.32-.87,1.72-1.49,.39-.63,.59-1.34,.59-2.14,0-1.34-.5-2.42-1.5-3.24-.99-.83-2.4-1.24-4.21-1.24h-9.34v.92h1.77c.39,0,.67,.08,.86,.23,.19,.16,.28,.39,.28,.7v14.45c0,.27-.09,.48-.28,.64-.18,.15-.47,.23-.86,.23h-1.77v.92h8.4v-.92h-1.73c-.42,0-.73-.08-.92-.23-.16-.12-.23-.34-.23-.64v-7.1h1.48c.78,0,1.45,.14,2.01,.41,.57,.28,.98,.65,1.24,1.1,.27,.46,.46,1.23,.59,2.32,.21,1.86,.4,3.02,.57,3.46,.22,.58,.55,1.03,.98,1.33,.44,.3,.96,.45,1.55,.45,1.89,0,2.92-1.38,3.07-4.16h-.83Zm-8.52-5.79h-2.14v-6.52c0-.33,.11-.55,.34-.69,.23-.13,.82-.2,1.78-.2,1.46,0,2.44,.1,2.94,.3,.5,.21,.9,.59,1.2,1.14,.31,.55,.46,1.31,.46,2.26,0,1.39-.41,2.35-1.22,2.9-.81,.54-1.93,.81-3.36,.81Zm-10.02,2.06c-.4-.68-1.01-1.25-1.82-1.7-.81-.44-2.22-.89-4.23-1.33-1.44-.31-2.42-.6-2.94-.87-.51-.27-.9-.63-1.16-1.06-.26-.44-.39-.95-.39-1.53,0-.93,.34-1.72,1.03-2.36,.68-.64,1.56-.97,2.64-.97,1.29,0,2.42,.47,3.41,1.4,.99,.93,1.74,2.4,2.25,4.43h.81l-.08-6.6h-.89l-1.1,1.58c-.73-.63-1.44-1.07-2.13-1.34-.68-.27-1.4-.41-2.16-.41-1.58,0-2.88,.51-3.9,1.53-1.01,1.01-1.52,2.31-1.52,3.9s.51,2.71,1.53,3.54c.72,.58,2.09,1.11,4.08,1.59,1.82,.42,3.04,.78,3.66,1.08s1.07,.67,1.36,1.11c.28,.43,.43,.93,.43,1.51,0,1.02-.39,1.89-1.15,2.61-.76,.71-1.74,1.06-2.95,1.06-1.49,0-2.83-.56-4.02-1.67-1.2-1.12-1.96-2.65-2.3-4.58h-.88v7.01h.88l1.38-1.69c1.38,1.21,3,1.81,4.86,1.81,1.74,0,3.16-.53,4.25-1.6,1.1-1.08,1.65-2.43,1.65-4.06,0-.91-.2-1.71-.6-2.39Zm-19.9-10.38v.92h.57c.49,0,.86,.13,1.11,.39,.25,.25,.38,.65,.38,1.2,0,.37-.06,.75-.19,1.15l-3.08,10.28-3.75-11.88c-.05-.15-.07-.31-.07-.48,0-.22,.1-.38,.3-.49,.2-.11,.65-.17,1.33-.17h.79v-.92h-7.55v.92h1.1c.6,0,.99,.1,1.19,.3,.2,.21,.49,.91,.87,2.12l-3.23,10.6-3.68-11.48-.08-.23c-.12-.32-.18-.55-.18-.7,0-.21,.09-.37,.26-.46,.18-.1,.58-.15,1.22-.15h.43v-.92h-6.04v.92c.56,0,.97,.1,1.22,.3,.26,.2,.49,.61,.7,1.24l5.08,16.06h.92l3.96-13.27,4.19,13.27h.85l4.45-14.86c.22-.76,.44-1.3,.65-1.63,.22-.32,.48-.57,.77-.74,.3-.18,.69-.31,1.19-.37v-.92h-5.68Zm-20.86,11.35c-.46,3.88-2.22,5.82-5.26,5.82h-2.8c-.41,0-.7-.07-.88-.21-.17-.14-.26-.33-.26-.6v-7.19h1.42c.91,0,1.62,.31,2.14,.91,.53,.59,.82,1.58,.86,2.97h.84v-8.38h-.84c-.04,1.23-.32,2.15-.84,2.74-.52,.6-1.19,.9-2.02,.9h-1.56v-6.45c0-.32,.08-.55,.22-.71,.15-.15,.37-.23,.65-.23h3.55c1.13,0,2.05,.38,2.75,1.15,.71,.76,1.23,2.11,1.55,4.03h.82l-.34-6.1h-14.33v.92h1.48c.36,0,.63,.08,.8,.23,.18,.16,.26,.39,.26,.71v14.33c0,.32-.1,.57-.29,.74-.2,.16-.54,.24-1.02,.24h-1.23v.92h14.91l.3-6.74h-.88Zm-22.78-11.35v.92c.85,.02,1.5,.25,1.93,.71,.26,.27,.45,.63,.56,1.06,.1,.36,.15,.77,.15,1.24v10.28l-.15-.2-10.76-14.01h-4.32v.92h.82c.38,0,.68,.06,.92,.17,.17,.08,.46,.34,.87,.78l.21,.22v12.27c0,.77-.26,1.43-.76,1.97-.51,.53-1.19,.81-2.06,.84v.92h6.9v-.92c-1.04-.01-1.81-.26-2.31-.74-.5-.49-.75-1.23-.75-2.22v-10.91l11.24,14.72,.05,.07h1.15v-14.37c0-.56,.12-1.08,.36-1.55,.23-.48,.51-.8,.83-.98s.8-.27,1.44-.27v-.92h-6.32Zm-22.71,11.35c-.47,3.88-2.22,5.82-5.26,5.82h-2.8c-.41,0-.7-.07-.88-.21-.17-.14-.26-.33-.26-.6v-7.19h1.42c.91,0,1.62,.31,2.14,.91,.53,.59,.82,1.58,.86,2.97h.84v-8.38h-.84c-.04,1.23-.33,2.15-.85,2.74-.51,.6-1.18,.9-2.01,.9h-1.56v-6.45c0-.32,.08-.55,.22-.71,.15-.15,.36-.23,.65-.23h3.55c1.13,0,2.05,.38,2.75,1.15,.71,.76,1.23,2.11,1.55,4.03h.82l-.34-6.1h-14.33v.92h1.48c.36,0,.63,.08,.8,.23,.17,.16,.26,.39,.26,.71v14.33c0,.32-.1,.57-.29,.74-.2,.16-.54,.24-1.02,.24h-1.23v.92h14.9l.31-6.74h-.88Zm-19.64-9.83c.09-.22,.2-.38,.34-.47,.15-.09,.4-.13,.75-.13h1.4v-.92h-7.68v.92h1.32c.53,0,.87,.08,1.01,.24,.14,.17,.22,.6,.22,1.3v5.58h-8.28v-5.58c0-.68,.07-1.1,.22-1.27,.15-.18,.48-.27,.98-.27h1.41v-.92h-7.71v.92h1.29c.51,0,.84,.09,.98,.27,.16,.17,.24,.59,.24,1.27v13.06c0,.56-.03,.91-.07,1.04-.07,.2-.18,.35-.34,.45-.15,.11-.36,.16-.62,.16h-1.48v.92h7.71v-.92h-1.41c-.5,0-.85-.13-1.06-.4-.09-.13-.14-.52-.14-1.15v-6.39h8.28v6.29c0,.66-.06,1.07-.16,1.22-.19,.29-.54,.43-1.07,.43h-1.32v.92h7.68v-.92h-1.24c-.57,0-.95-.14-1.17-.41-.1-.13-.16-.51-.16-1.14v-13.01c0-.59,.03-.95,.08-1.09Zm-18.13-1.52h-14.67l-.39,6.84h.89c.29-1.98,.76-3.43,1.41-4.36,.79-1.11,1.78-1.67,2.96-1.67,.41,0,.71,.08,.9,.24,.19,.16,.28,.39,.28,.7v14.66c0,.23-.07,.41-.22,.55-.14,.14-.36,.21-.63,.21h-2.08v.92h8.4v-.92h-1.82c-.39,0-.68-.07-.85-.21-.17-.14-.25-.35-.25-.64v-14.46c0-.37,.08-.64,.25-.81,.18-.16,.51-.24,.98-.24,2.35,0,3.8,2.01,4.36,6.03h.84l-.36-6.84Z"/><rect class="ap" x="1172.26" y="453" width="337.07" height="9.39"/><rect class="am" x="1172.26" y="453" width="337.07" height="9.39"/><path class="aj" d="M1210.34,508.6c-.08,.37-.16,.59-.22,.67-.07,.07-.18,.11-.33,.11-.32,0-.58-.01-.79-.02-.46-.02-.66-.08-.6-.16,.1-.12,.24-.26,.45-.43l.15-.13,.66-.55c.18-.16,.36-.34,.54-.56,.1-.13,.18-.26,.23-.41,.05-.14,.08-.29,.08-.43,0-.2-.05-.39-.16-.56-.11-.17-.26-.31-.48-.42-.21-.1-.44-.16-.68-.16-.07,0-.13,0-.19,.01-.18,.03-.35,.08-.51,.16-.22,.11-.38,.25-.49,.42-.1,.17-.15,.36-.15,.56s.04,.34,.14,.46h.01c.09,.11,.19,.17,.31,.17,.11,0,.2-.04,.27-.1,.07-.07,.1-.16,.1-.26,0-.2-.1-.32-.31-.36-.08-.03-.13-.05-.15-.08-.03-.02-.04-.06-.04-.11,0-.15,.08-.29,.26-.42,.14-.12,.33-.18,.56-.19,.04-.01,.08-.01,.12-.01,.24,0,.44,.07,.58,.22,.13,.14,.2,.33,.2,.59,0,.15-.03,.31-.09,.5-.07,.18-.17,.37-.32,.57-.07,.1-.23,.29-.49,.58-.11,.12-.24,.27-.4,.44l-.6,.68-.29,.33v.16h2.74l.1-1.27h-.21Zm-3.48,0c-.09,.37-.16,.59-.23,.67-.06,.07-.17,.11-.32,.11-1.02,0-1.49-.06-1.39-.18,.09-.12,.24-.26,.44-.43l.81-.68c.19-.16,.37-.34,.54-.56,.1-.13,.18-.26,.23-.41,.06-.14,.08-.29,.08-.43,0-.2-.05-.39-.16-.56-.1-.17-.26-.31-.47-.42-.21-.1-.44-.16-.69-.16s-.48,.06-.69,.17c-.22,.11-.38,.25-.49,.42-.11,.17-.16,.36-.16,.56s.05,.34,.14,.46c.1,.11,.2,.17,.33,.17,.11,0,.2-.04,.26-.1,.07-.07,.11-.16,.11-.26,0-.2-.1-.32-.31-.36-.08-.03-.13-.05-.16-.08-.03-.02-.04-.06-.04-.11,0-.15,.09-.29,.26-.42,.18-.14,.41-.2,.68-.2,.25,0,.44,.07,.58,.22,.14,.14,.21,.33,.21,.59,0,.15-.03,.31-.1,.5-.06,.18-.17,.37-.31,.57-.1,.14-.4,.48-.89,1.02l-.89,1.01v.16h2.74l.09-1.27h-.2Zm-3.67-2.58c-.27-.31-.6-.47-.99-.47-.41,0-.74,.17-.98,.51-.31,.42-.46,.99-.46,1.7,0,.75,.16,1.33,.49,1.73,.26,.31,.58,.47,.97,.47s.75-.19,1.03-.56c.29-.38,.43-.93,.43-1.65,0-.77-.16-1.35-.49-1.73Zm-.36,3.36c-.14,.25-.34,.37-.61,.37s-.47-.13-.63-.4c-.15-.26-.23-.79-.23-1.59s.07-1.34,.22-1.6c.16-.26,.37-.39,.63-.39s.48,.14,.64,.41,.24,.81,.24,1.61-.09,1.3-.26,1.59Zm-2.95-.78c-.08,.37-.15,.59-.22,.67-.06,.07-.17,.11-.33,.11-1.01,0-1.48-.06-1.38-.18,.09-.12,.24-.26,.44-.43l.81-.68c.19-.16,.37-.34,.54-.56,.1-.13,.18-.26,.23-.41,.06-.14,.08-.29,.08-.43,0-.2-.05-.39-.16-.56-.1-.17-.26-.31-.47-.42-.21-.1-.44-.16-.69-.16s-.48,.06-.69,.17c-.22,.11-.38,.25-.49,.42-.11,.17-.16,.36-.16,.56s.05,.34,.14,.46c.09,.11,.2,.17,.33,.17,.11,0,.19-.04,.26-.1,.07-.07,.11-.16,.11-.26,0-.2-.11-.32-.31-.36-.08-.03-.14-.05-.16-.08-.03-.02-.04-.06-.04-.11,0-.15,.09-.29,.26-.42,.18-.14,.4-.2,.68-.2,.25,0,.44,.07,.58,.22,.14,.14,.21,.33,.21,.59,0,.15-.04,.31-.1,.5-.07,.18-.17,.37-.31,.57-.1,.14-.4,.48-.89,1.02l-.89,1.01v.16h2.73l.1-1.27h-.21Zm-5.07,.41c-.25,.45-.57,.68-.97,.68-.27,0-.49-.1-.67-.31-.15-.17-.23-.48-.24-.92h2.05c0-.28-.04-.52-.11-.71-.1-.27-.26-.47-.46-.61-.2-.15-.44-.22-.72-.22-.37,0-.69,.15-.95,.43-.26,.29-.39,.66-.39,1.13,0,.43,.14,.79,.4,1.06,.26,.28,.58,.42,.97,.42,.56,0,.99-.29,1.29-.87l-.2-.08Zm-1.65-1.62c.15-.19,.33-.28,.54-.28,.19,0,.35,.07,.49,.23,.14,.16,.21,.35,.21,.57,0,.12-.02,.21-.06,.26-.04,.05-.1,.07-.17,.07h-1.24c.01-.38,.08-.66,.23-.85Zm-1.46,1.63c-.17,.45-.43,.68-.78,.68-.25,0-.46-.11-.62-.32-.16-.21-.24-.52-.24-.93,0-.43,.09-.78,.27-1.04,.13-.18,.32-.27,.57-.27,.13,0,.24,.03,.32,.08,.08,.06,.12,.11,.12,.17,0,.03-.02,.06-.05,.1-.07,.08-.1,.16-.1,.25s.03,.17,.09,.23,.14,.1,.23,.1c.1,0,.18-.04,.25-.11,.06-.08,.1-.17,.1-.29,0-.19-.09-.36-.28-.51-.18-.16-.41-.24-.69-.24-.38,0-.7,.14-.98,.42-.28,.28-.42,.67-.42,1.18,0,.43,.13,.78,.38,1.04,.26,.27,.58,.4,.98,.4,.54,0,.89-.29,1.05-.88l-.2-.06Zm-2.73,.62c-.11,0-.19-.02-.23-.06-.05-.04-.07-.12-.07-.22v-1.4c0-.2-.04-.38-.12-.54-.08-.16-.18-.28-.31-.35-.13-.08-.28-.11-.47-.11-.22,0-.42,.05-.6,.15-.17,.11-.32,.26-.45,.47-.02-.24-.05-.45-.09-.63l-.95,.06v.2h.15c.12,0,.22,.03,.28,.09,.07,.07,.11,.16,.11,.28v1.85c0,.06-.03,.11-.08,.15-.05,.04-.13,.06-.23,.06h-.2v.23h1.52v-.23h-.2c-.11,0-.19-.02-.24-.06-.05-.04-.07-.12-.07-.22v-1.06c0-.3,.08-.54,.23-.73,.15-.18,.35-.28,.58-.28s.4,.09,.52,.28c.08,.13,.12,.32,.12,.59v1.23c0,.08-.03,.15-.08,.19-.05,.04-.15,.06-.28,.06h-.15v.23h1.52v-.23h-.21Zm-3.95,0c-.07,0-.13-.02-.18-.06-.03-.03-.05-.07-.05-.14v-2.46l-1.14,.03v.23h.24c.13,0,.22,.03,.29,.09,.06,.05,.1,.14,.1,.25v1.81c0,.08-.02,.15-.07,.19-.04,.04-.1,.06-.19,.06h-.3v.23h1.62v-.23h-.32Zm-.33-4.24c-.07-.07-.15-.1-.24-.1s-.17,.03-.24,.1c-.07,.07-.11,.15-.11,.25,0,.09,.04,.17,.1,.24,.07,.06,.15,.1,.25,.1,.09,0,.17-.04,.24-.1,.07-.07,.1-.15,.1-.24,0-.1-.03-.18-.1-.25Zm-1.62,2.55c-.1-.17-.25-.32-.45-.43-.2-.11-.56-.22-1.06-.33-.36-.08-.6-.15-.73-.22-.13-.07-.23-.16-.29-.26-.07-.11-.1-.24-.1-.39,0-.23,.08-.43,.25-.59,.18-.16,.4-.24,.66-.24,.33,0,.61,.12,.86,.35,.25,.23,.43,.6,.56,1.11h.2l-.02-1.65h-.22l-.27,.39c-.19-.15-.37-.26-.54-.33-.17-.07-.35-.1-.54-.1-.39,0-.72,.12-.97,.38-.26,.25-.38,.58-.38,.97s.13,.68,.38,.89c.18,.14,.52,.28,1.02,.4,.46,.1,.76,.19,.92,.27,.15,.07,.26,.16,.33,.27,.08,.11,.11,.24,.11,.38,0,.26-.09,.47-.29,.65-.19,.18-.43,.27-.73,.27-.38,0-.71-.14-1.01-.42-.3-.28-.49-.66-.57-1.14h-.22v1.75h.22l.34-.42c.35,.3,.75,.45,1.22,.45,.43,0,.79-.13,1.06-.4,.28-.27,.41-.61,.41-1.02,0-.22-.05-.42-.15-.59Z"/><path class="aj" d="M1501.51,509.64c-.11,0-.19-.02-.23-.06-.05-.04-.07-.12-.07-.22v-1.4c0-.2-.04-.38-.12-.54-.08-.16-.18-.28-.31-.35-.13-.08-.29-.11-.48-.11-.22,0-.41,.05-.59,.15-.17,.11-.33,.26-.45,.47-.02-.24-.05-.45-.09-.63l-.95,.06v.2h.15c.12,0,.22,.03,.28,.09,.07,.07,.1,.16,.1,.28v1.85c0,.06-.02,.11-.08,.15-.05,.04-.12,.06-.22,.06h-.2v.23h1.52v-.23h-.2c-.12,0-.19-.02-.24-.06-.05-.04-.07-.12-.07-.22v-1.06c0-.3,.07-.54,.23-.73,.15-.18,.34-.28,.58-.28s.4,.09,.51,.28c.09,.13,.13,.32,.13,.59v1.23c0,.08-.03,.15-.08,.19-.06,.04-.15,.06-.29,.06h-.14v.23h1.51v-.23h-.2Zm-4.1-2.3c-.26-.28-.58-.42-.97-.42s-.7,.14-.96,.43c-.25,.28-.38,.64-.38,1.09s.12,.82,.38,1.1c.26,.28,.58,.42,.95,.42,.25,0,.48-.07,.7-.19,.21-.13,.38-.31,.5-.53,.12-.22,.18-.49,.18-.8,0-.45-.14-.82-.4-1.1Zm-.39,2.09c-.15,.21-.34,.31-.58,.31s-.42-.1-.56-.31c-.15-.21-.22-.55-.22-1s.07-.77,.22-.98c.15-.21,.33-.31,.56-.31s.44,.1,.58,.3c.15,.19,.22,.51,.22,.96s-.07,.82-.22,1.03Zm-2.52,.21c-.1,0-.17-.02-.21-.05-.05-.04-.07-.11-.07-.2v-1.36c0-.23-.04-.44-.12-.61s-.18-.3-.29-.37c-.15-.08-.32-.13-.5-.13-.19,0-.38,.05-.55,.15-.17,.1-.34,.24-.48,.44v-2.21l-1.09,.05v.23h.21c.12,0,.21,.03,.28,.09,.06,.06,.09,.15,.09,.27v3.42c0,.1-.02,.17-.07,.22-.05,.04-.13,.06-.25,.06h-.17v.23h1.51v-.23h-.24c-.1,0-.17-.02-.21-.06-.04-.04-.06-.12-.06-.22v-1.14c0-.17,.04-.33,.12-.49,.08-.15,.19-.27,.31-.34,.12-.08,.25-.12,.39-.12,.18,0,.32,.07,.44,.21,.11,.13,.17,.31,.17,.55v1.36c0,.09-.02,.15-.08,.19-.05,.04-.13,.06-.26,.06h-.18v.23h1.55v-.23h-.24Zm-3.79-.85c-.02,.3-.07,.51-.17,.64-.1,.13-.22,.19-.36,.19-.11,0-.21-.04-.28-.13-.08-.08-.12-.2-.12-.36v-1.84h.93v-.28h-.93v-1.17h-.2c-.02,.41-.11,.73-.29,.95-.12,.15-.29,.25-.52,.29v.21h.5v1.92c0,.21,.07,.38,.2,.51,.14,.13,.32,.2,.56,.2s.46-.1,.63-.28c.15-.18,.24-.47,.25-.85h-.2Zm-2.35,.77c-.08,.06-.17,.1-.25,.1-.07,0-.13-.04-.17-.1-.04-.07-.07-.17-.07-.31v-1.57c0-.21-.09-.39-.27-.54-.18-.14-.44-.22-.78-.22-.37,0-.67,.09-.89,.25-.23,.17-.34,.36-.34,.56,0,.11,.03,.19,.1,.26,.07,.07,.15,.11,.26,.11,.09,0,.17-.03,.23-.09,.06-.06,.09-.13,.09-.22,0-.07-.03-.14-.09-.22-.05-.07-.07-.11-.07-.15,0-.05,.04-.1,.13-.16,.13-.07,.28-.11,.46-.11,.19,0,.35,.06,.47,.17,.13,.11,.19,.24,.19,.4v.43c-.58,.06-1.05,.2-1.4,.39-.35,.2-.52,.45-.52,.74,0,.2,.08,.36,.23,.49,.15,.13,.38,.19,.67,.19,.21,0,.38-.03,.53-.1s.32-.21,.51-.41c.07,.19,.15,.32,.25,.4,.09,.07,.21,.11,.35,.11,.18,0,.35-.08,.49-.23l-.11-.17Zm-1-.8c0,.28-.09,.51-.27,.69-.17,.18-.38,.27-.62,.27-.13,0-.24-.04-.33-.13-.08-.09-.12-.21-.12-.37,0-.22,.08-.4,.24-.52,.22-.16,.58-.28,1.1-.35v.41Zm-2.51,.88c-.16,0-.27-.04-.34-.13l-1.06-1.46,.65-.59c.16-.14,.4-.22,.7-.24v-.21h-1.53v.21c.18,.01,.31,.03,.39,.07,.05,.03,.08,.07,.08,.12,0,.06-.05,.13-.14,.21l-.93,.81v-3.13l-1.09,.05v.23h.15c.15,0,.26,.03,.35,.09,.06,.05,.09,.11,.09,.2v3.54c0,.07-.03,.13-.08,.17-.04,.04-.12,.06-.22,.06h-.25v.23h1.54v-.23h-.2c-.1,0-.18-.02-.23-.05-.04-.03-.06-.08-.06-.14v-.72l.42-.36,.78,1.08s.03,.06,.03,.09-.02,.05-.06,.07c-.04,.02-.12,.03-.24,.03h-.15v.23h1.56v-.23h-.16Zm-3.82-.62c-.17,.45-.42,.68-.77,.68-.26,0-.47-.11-.63-.32-.16-.21-.24-.52-.24-.93,0-.43,.09-.78,.27-1.04,.13-.18,.32-.27,.57-.27,.14,0,.24,.03,.32,.08,.08,.06,.12,.11,.12,.17,0,.03-.01,.06-.05,.1-.07,.08-.1,.16-.1,.25s.03,.17,.09,.23c.07,.06,.14,.1,.24,.1,.09,0,.17-.04,.24-.11,.07-.08,.1-.17,.1-.29,0-.19-.09-.36-.27-.51-.19-.16-.42-.24-.7-.24-.38,0-.7,.14-.98,.42-.28,.28-.41,.67-.41,1.18,0,.43,.12,.78,.37,1.04,.26,.27,.58,.4,.98,.4,.54,0,.89-.29,1.05-.88l-.2-.06Zm-2.64,.54c-.09,.06-.18,.1-.25,.1-.08,0-.14-.04-.18-.1-.04-.07-.07-.17-.07-.31v-1.57c0-.21-.09-.39-.27-.54-.18-.14-.43-.22-.78-.22s-.66,.09-.89,.25c-.23,.17-.34,.36-.34,.56,0,.11,.03,.19,.1,.26,.07,.07,.16,.11,.26,.11,.09,0,.17-.03,.23-.09,.06-.06,.09-.13,.09-.22,0-.07-.03-.14-.09-.22-.05-.07-.07-.11-.07-.15,0-.05,.04-.1,.13-.16,.13-.07,.28-.11,.46-.11,.19,0,.35,.06,.48,.17,.12,.11,.18,.24,.18,.4v.43c-.58,.06-1.04,.2-1.39,.39-.35,.2-.53,.45-.53,.74,0,.2,.08,.36,.23,.49,.15,.13,.38,.19,.67,.19,.21,0,.38-.03,.53-.1s.32-.21,.51-.41c.07,.19,.15,.32,.25,.4,.09,.07,.21,.11,.35,.11,.18,0,.35-.08,.5-.23l-.11-.17Zm-1.01-.8c0,.28-.09,.51-.26,.69-.18,.18-.39,.27-.63,.27-.13,0-.24-.04-.32-.13-.09-.09-.13-.21-.13-.37,0-.22,.08-.4,.24-.52,.22-.16,.58-.28,1.1-.35v.41Zm-2.62,.88c-.09,0-.16-.02-.21-.05-.04-.04-.06-.11-.06-.2v-1.36c0-.23-.04-.44-.12-.61-.09-.17-.18-.3-.3-.37-.14-.08-.31-.13-.49-.13-.2,0-.38,.05-.55,.15-.18,.1-.34,.24-.49,.44v-2.21l-1.08,.05v.23h.21c.12,0,.21,.03,.27,.09,.07,.06,.1,.15,.1,.27v3.42c0,.1-.02,.17-.07,.22-.05,.04-.13,.06-.25,.06h-.17v.23h1.51v-.23h-.24c-.1,0-.17-.02-.21-.06-.04-.04-.07-.12-.07-.22v-1.14c0-.17,.04-.33,.13-.49,.08-.15,.18-.27,.3-.34,.12-.08,.26-.12,.4-.12,.17,0,.32,.07,.43,.21,.12,.13,.18,.31,.18,.55v1.36c0,.09-.03,.15-.08,.19-.05,.04-.13,.06-.27,.06h-.17v.23h1.55v-.23h-.25Zm-5.74-1.04c-.08,.37-.16,.59-.22,.67-.07,.07-.18,.11-.33,.11-1.02,0-1.48-.06-1.39-.18,.1-.12,.24-.26,.45-.43l.81-.68c.18-.16,.36-.34,.54-.56,.1-.13,.18-.26,.23-.41,.05-.14,.08-.29,.08-.43,0-.2-.06-.39-.16-.56-.11-.17-.27-.31-.48-.42-.21-.1-.44-.16-.68-.16s-.48,.06-.7,.17c-.21,.11-.38,.25-.49,.42-.1,.17-.15,.36-.15,.56s.04,.34,.14,.46c.09,.11,.2,.17,.32,.17,.11,0,.2-.04,.27-.1,.07-.07,.1-.16,.1-.26,0-.2-.1-.32-.3-.36-.09-.03-.14-.05-.16-.08-.03-.02-.04-.06-.04-.11,0-.15,.08-.29,.26-.42,.18-.14,.4-.2,.68-.2,.24,0,.44,.07,.58,.22,.13,.14,.2,.33,.2,.59,0,.15-.03,.31-.1,.5-.06,.18-.16,.37-.31,.57-.1,.14-.39,.48-.89,1.02l-.89,1.01v.16h2.74l.1-1.27h-.21Zm-3.49,0c-.08,.37-.15,.59-.22,.67-.06,.07-.17,.11-.33,.11-1.01,0-1.48-.06-1.38-.18,.09-.12,.24-.26,.44-.43l.81-.68c.19-.16,.37-.34,.54-.56,.1-.13,.18-.26,.23-.41,.06-.14,.08-.29,.08-.43,0-.2-.05-.39-.16-.56-.1-.17-.26-.31-.47-.42-.21-.1-.44-.16-.69-.16s-.48,.06-.7,.17c-.21,.11-.37,.25-.48,.42-.11,.17-.16,.36-.16,.56s.05,.34,.14,.46c.1,.11,.2,.17,.33,.17,.11,0,.2-.04,.26-.1,.07-.07,.11-.16,.11-.26,0-.2-.1-.32-.31-.36-.08-.03-.14-.05-.16-.08-.03-.02-.04-.06-.04-.11,0-.15,.09-.29,.27-.42,.17-.14,.39-.2,.67-.2,.25,0,.44,.07,.58,.22,.14,.14,.21,.33,.21,.59,0,.15-.04,.31-.1,.5-.07,.18-.17,.37-.31,.57-.1,.14-.4,.48-.89,1.02l-.89,1.01v.16h2.74l.09-1.27h-.21Zm-3.66-2.58c-.26-.31-.6-.47-1-.47s-.73,.17-.97,.51c-.31,.42-.46,.99-.46,1.7,0,.75,.16,1.33,.49,1.73,.26,.31,.58,.47,.97,.47,.41,0,.75-.19,1.03-.56,.29-.38,.43-.93,.43-1.65,0-.77-.16-1.35-.49-1.73Zm-.36,3.36c-.14,.25-.35,.37-.61,.37s-.47-.13-.63-.4c-.15-.26-.23-.79-.23-1.59s.07-1.34,.22-1.6c.16-.26,.36-.39,.64-.39,.26,0,.47,.14,.63,.41,.16,.27,.23,.81,.23,1.61s-.08,1.3-.25,1.59Zm-2.94-.78c-.09,.37-.16,.59-.23,.67-.06,.07-.17,.11-.32,.11-1.02,0-1.49-.06-1.39-.18,.09-.12,.24-.26,.44-.43l.81-.68c.19-.16,.37-.34,.54-.56,.1-.13,.18-.26,.23-.41,.06-.14,.08-.29,.08-.43,0-.2-.05-.39-.16-.56-.1-.17-.26-.31-.47-.42-.21-.1-.44-.16-.69-.16s-.48,.06-.69,.17c-.22,.11-.38,.25-.49,.42-.11,.17-.16,.36-.16,.56s.05,.34,.14,.46c.09,.11,.2,.17,.33,.17,.11,0,.19-.04,.27-.1,.06-.07,.1-.16,.1-.26,0-.2-.1-.32-.31-.36-.08-.03-.14-.05-.16-.08-.03-.02-.04-.06-.04-.11,0-.15,.09-.29,.26-.42,.18-.14,.41-.2,.68-.2,.25,0,.44,.07,.58,.22,.14,.14,.21,.33,.21,.59,0,.15-.04,.31-.1,.5-.07,.18-.17,.37-.31,.57-.1,.14-.4,.48-.89,1.02l-.89,1.01v.16h2.74l.09-1.27h-.2Zm-5.33-1.28c-.23-.27-.52-.4-.85-.4-.18,0-.34,.05-.48,.13-.15,.08-.28,.21-.4,.38v-2.13l-1.05,.05v.23h.13c.13,0,.23,.03,.3,.09,.07,.05,.11,.13,.11,.23v3.24c0,.25-.03,.5-.09,.73l.12,.05c.11-.12,.22-.27,.34-.46,.15,.17,.3,.28,.44,.35,.14,.07,.3,.11,.48,.11,.36,0,.67-.15,.92-.43,.25-.29,.38-.67,.38-1.13,0-.43-.12-.78-.35-1.04Zm-.47,2.12c-.13,.18-.29,.28-.5,.28-.23,0-.42-.1-.56-.29-.14-.19-.21-.5-.21-.94s.07-.8,.21-1c.15-.2,.34-.3,.57-.3,.2,0,.38,.1,.52,.3,.14,.19,.21,.5,.21,.93s-.08,.78-.24,1.02Zm-2.66,.2c-.11,0-.2-.03-.26-.09-.05-.07-.08-.18-.08-.33v-3.92l-1.12,.05v.23h.2c.14,0,.25,.03,.31,.08,.07,.05,.1,.11,.1,.2v1.62c-.11-.19-.23-.33-.38-.42-.14-.09-.31-.14-.49-.14-.3,0-.57,.12-.8,.34-.29,.29-.44,.68-.44,1.16,0,.45,.12,.81,.34,1.09,.23,.27,.51,.41,.84,.41,.19,0,.37-.06,.52-.16,.16-.11,.3-.26,.41-.47l.08,.58h.97v-.23h-.2Zm-1.08-.32c-.16,.21-.35,.32-.57,.32s-.38-.1-.51-.29c-.13-.19-.2-.52-.2-.98,0-.43,.06-.74,.19-.92,.13-.18,.31-.27,.53-.27s.4,.09,.54,.29c.17,.22,.26,.53,.26,.91,0,.41-.08,.73-.24,.94Zm-2.82-1.98c-.26-.28-.58-.42-.96-.42s-.7,.14-.96,.43c-.26,.28-.39,.64-.39,1.09s.13,.82,.39,1.1c.25,.28,.57,.42,.94,.42,.25,0,.48-.07,.7-.19,.22-.13,.38-.31,.5-.53,.12-.22,.18-.49,.18-.8,0-.45-.13-.82-.4-1.1Zm-.39,2.09c-.14,.21-.34,.31-.57,.31s-.42-.1-.57-.31c-.15-.21-.22-.55-.22-1s.08-.77,.22-.98c.15-.21,.34-.31,.57-.31s.43,.1,.57,.3c.15,.19,.23,.51,.23,.96s-.08,.82-.23,1.03Zm-2.28-2.47c-.07-.07-.15-.1-.25-.1-.17,0-.36,.11-.57,.31-.12-.08-.25-.14-.38-.19-.13-.04-.27-.06-.41-.06-.35,0-.63,.1-.85,.28-.22,.19-.33,.42-.33,.7,0,.18,.04,.33,.13,.47,.09,.13,.22,.25,.39,.34-.2,.07-.35,.16-.43,.26-.08,.09-.12,.2-.12,.33,0,.15,.05,.26,.15,.36,.1,.09,.26,.16,.46,.21-.25,.05-.44,.13-.54,.23-.11,.1-.16,.21-.16,.33,0,.15,.08,.3,.25,.42,.21,.16,.54,.24,.97,.24,.53,0,.93-.11,1.2-.35,.19-.17,.29-.37,.29-.62,0-.22-.09-.4-.26-.52-.16-.13-.44-.19-.82-.19h-.76c-.17,.01-.29-.01-.35-.05-.07-.05-.1-.11-.1-.19,0-.09,.04-.17,.12-.22,.08-.05,.23-.07,.47-.07h.33c.18,0,.37-.06,.57-.16,.2-.1,.34-.22,.43-.36,.09-.13,.13-.29,.13-.47,0-.1-.02-.19-.05-.28s-.09-.2-.18-.32c.08-.09,.16-.13,.23-.13,.03,0,.06,.03,.08,.09,.04,.14,.12,.21,.23,.21,.06,0,.12-.02,.16-.07,.05-.05,.07-.12,.07-.19,0-.1-.03-.17-.1-.24Zm-1.44,2.92c.23,0,.41,.01,.53,.05s.21,.1,.26,.17c.06,.07,.09,.15,.09,.23,0,.14-.09,.27-.27,.39-.18,.12-.44,.17-.79,.17-.3,0-.52-.05-.68-.15-.12-.08-.18-.19-.18-.33,0-.15,.08-.27,.24-.38,.16-.1,.43-.15,.8-.15Zm.27-1.39c-.11,.13-.26,.2-.45,.2-.18,0-.33-.07-.45-.21-.12-.14-.17-.34-.17-.6,0-.24,.05-.43,.17-.56,.12-.13,.27-.2,.45-.2s.33,.07,.45,.21c.12,.14,.18,.32,.18,.56,0,.26-.06,.46-.18,.6Zm-2.38,1.15c-.11,0-.19-.02-.23-.06-.05-.04-.07-.12-.07-.22v-1.4c0-.2-.04-.38-.12-.54-.08-.16-.18-.28-.31-.35-.13-.08-.29-.11-.48-.11-.22,0-.41,.05-.59,.15-.17,.11-.32,.26-.45,.47-.02-.24-.05-.45-.09-.63l-.95,.06v.2h.15c.12,0,.22,.03,.28,.09,.07,.07,.1,.16,.1,.28v1.85c0,.06-.02,.11-.07,.15-.06,.04-.13,.06-.23,.06h-.2v.23h1.52v-.23h-.2c-.11,0-.19-.02-.24-.06-.05-.04-.07-.12-.07-.22v-1.06c0-.3,.08-.54,.23-.73,.15-.18,.35-.28,.58-.28s.4,.09,.51,.28c.09,.13,.13,.32,.13,.59v1.23c0,.08-.03,.15-.08,.19-.06,.04-.15,.06-.28,.06h-.15v.23h1.51v-.23h-.2Zm-4.1-2.3c-.26-.28-.58-.42-.97-.42s-.69,.14-.95,.43c-.26,.28-.39,.64-.39,1.09s.13,.82,.38,1.1c.26,.28,.58,.42,.95,.42,.25,0,.48-.07,.7-.19,.22-.13,.38-.31,.5-.53,.12-.22,.18-.49,.18-.8,0-.45-.13-.82-.4-1.1Zm-.39,2.09c-.15,.21-.34,.31-.58,.31s-.42-.1-.56-.31c-.15-.21-.22-.55-.22-1s.07-.77,.22-.98c.15-.21,.33-.31,.56-.31s.44,.1,.58,.3c.15,.19,.22,.51,.22,.96s-.07,.82-.22,1.03Zm-2.49,.21c-.12,0-.2-.02-.26-.07-.04-.03-.06-.08-.06-.17v-1.42c0-.32-.09-.59-.25-.79-.13-.16-.33-.23-.59-.23-.2,0-.38,.05-.55,.16-.16,.11-.32,.28-.45,.5-.07-.23-.17-.4-.3-.51-.13-.1-.29-.15-.49-.15-.18,0-.35,.04-.51,.13-.15,.1-.31,.25-.46,.48-.02-.2-.05-.4-.09-.61l-.82,.05v.21c.16,.01,.26,.05,.32,.1,.05,.05,.08,.13,.08,.23v1.88c0,.06-.03,.11-.07,.15-.04,.04-.11,.06-.19,.06h-.21v.23h1.44v-.23h-.15c-.11,0-.2-.02-.26-.06-.03-.03-.05-.09-.05-.18v-1.14c0-.28,.08-.52,.24-.73,.12-.15,.29-.22,.5-.22,.17,0,.3,.06,.4,.19,.1,.12,.15,.33,.15,.61v1.32c0,.06-.03,.11-.08,.15-.05,.04-.12,.06-.23,.06h-.16v.23h1.45v-.23h-.19c-.1,0-.16-.02-.21-.05-.04-.04-.07-.11-.07-.19v-1.23c0-.13,.05-.28,.13-.46,.06-.13,.15-.23,.25-.29,.1-.07,.22-.11,.35-.11,.17,0,.3,.06,.41,.18,.1,.11,.15,.28,.15,.49v1.42c0,.08-.02,.14-.07,.18-.05,.04-.13,.06-.26,.06h-.14v.23h1.44v-.23h-.14Zm-7.37-.63c-.24,.45-.56,.68-.96,.68-.27,0-.5-.1-.67-.31-.15-.17-.24-.48-.25-.92h2.06c-.01-.28-.05-.52-.12-.71-.1-.27-.25-.47-.45-.61-.21-.15-.44-.22-.72-.22-.38,0-.7,.15-.96,.43-.25,.29-.38,.66-.38,1.13,0,.43,.13,.79,.39,1.06,.26,.28,.59,.42,.97,.42,.56,0,.99-.29,1.29-.87l-.2-.08Zm-1.65-1.62c.15-.19,.33-.28,.54-.28,.19,0,.36,.07,.5,.23,.14,.16,.21,.35,.21,.57,0,.12-.02,.21-.06,.26-.04,.05-.1,.07-.17,.07h-1.25c.01-.38,.09-.66,.23-.85Zm-1.46,2.25c-.09,0-.16-.02-.21-.05-.04-.04-.06-.11-.06-.2v-1.36c0-.23-.04-.44-.13-.61-.08-.17-.17-.3-.29-.37-.14-.08-.31-.13-.49-.13-.19,0-.38,.05-.55,.15-.17,.1-.34,.24-.49,.44v-2.21l-1.08,.05v.23h.2c.13,0,.22,.03,.28,.09,.07,.06,.1,.15,.1,.27v3.42c0,.1-.02,.17-.07,.22-.05,.04-.13,.06-.25,.06h-.17v.23h1.51v-.23h-.24c-.1,0-.17-.02-.21-.06-.05-.04-.07-.12-.07-.22v-1.14c0-.17,.04-.33,.13-.49,.08-.15,.18-.27,.3-.34,.12-.08,.25-.12,.39-.12,.18,0,.33,.07,.44,.21,.12,.13,.18,.31,.18,.55v1.36c0,.09-.03,.15-.08,.19-.05,.04-.14,.06-.27,.06h-.17v.23h1.55v-.23h-.25Zm-3.78-.85c-.02,.3-.08,.51-.17,.64-.1,.13-.22,.19-.36,.19-.12,0-.21-.04-.29-.13-.07-.08-.11-.2-.11-.36v-1.84h.93v-.28h-.93v-1.17h-.21c-.01,.41-.11,.73-.28,.95-.12,.15-.29,.25-.52,.29v.21h.5v1.92c0,.21,.07,.38,.2,.51s.32,.2,.56,.2,.46-.1,.62-.28c.16-.18,.25-.47,.26-.85h-.2Zm-4.09-1.69c-.09-.1-.21-.14-.37-.14-.23,0-.42,.09-.57,.29-.16,.2-.29,.48-.4,.87v-1.16l-1.03,.05v.22h.25c.11,0,.2,.03,.25,.09,.06,.07,.09,.17,.09,.31v1.82s-.02,.1-.07,.14c-.05,.04-.12,.05-.22,.05h-.28v.23h1.78v-.23h-.37c-.11,0-.2-.01-.25-.05-.05-.04-.07-.09-.07-.16v-.61c0-.23,.06-.52,.18-.89,.08-.24,.2-.43,.34-.57,.11-.09,.2-.14,.29-.14,.04,0,.06,.01,.06,.04,0,0-.02,.04-.05,.1s-.05,.12-.05,.19c0,.1,.03,.18,.08,.24,.06,.07,.13,.1,.23,.1,.09,0,.17-.04,.23-.11,.06-.07,.09-.17,.09-.3,0-.16-.04-.29-.14-.38Zm-3.13,.24c-.27-.28-.59-.42-.97-.42s-.7,.14-.96,.43c-.26,.28-.39,.64-.39,1.09s.13,.82,.39,1.1c.26,.28,.57,.42,.94,.42,.25,0,.49-.07,.7-.19,.22-.13,.39-.31,.5-.53,.12-.22,.18-.49,.18-.8,0-.45-.13-.82-.39-1.1Zm-.4,2.09c-.14,.21-.33,.31-.57,.31s-.42-.1-.57-.31c-.14-.21-.22-.55-.22-1s.08-.77,.22-.98c.15-.21,.34-.31,.57-.31s.43,.1,.58,.3c.14,.19,.22,.51,.22,.96s-.08,.82-.23,1.03Zm-1.91-4.02c-.12-.12-.3-.17-.53-.17-.31,0-.57,.13-.78,.4-.21,.26-.32,.65-.32,1.15v.22h-.49v.26h.49v2.15c0,.08-.02,.13-.06,.17-.05,.04-.12,.05-.23,.05h-.24v.23h1.75v-.23h-.39c-.11,0-.19-.02-.25-.07-.05-.04-.07-.11-.07-.2v-2.1h.71v-.26h-.71v-.64c0-.3,.06-.53,.18-.68,.12-.16,.26-.23,.44-.23,.09,0,.16,.01,.2,.04,.05,.03,.07,.06,.07,.09s-.03,.06-.09,.11c-.07,.06-.11,.14-.11,.24,0,.08,.03,.15,.08,.21,.06,.05,.13,.08,.22,.08s.17-.03,.23-.1c.07-.07,.1-.16,.1-.28,0-.18-.07-.33-.2-.44Zm-4.4,3.38c-.01,.3-.07,.51-.17,.64-.09,.13-.21,.19-.35,.19-.12,0-.21-.04-.29-.13-.07-.08-.11-.2-.11-.36v-1.84h.92v-.28h-.92v-1.17h-.21c-.01,.41-.11,.73-.28,.95-.12,.15-.3,.25-.52,.29v.21h.5v1.92c0,.21,.06,.38,.2,.51,.13,.13,.32,.2,.55,.2,.26,0,.47-.1,.63-.28,.16-.18,.25-.47,.26-.85h-.21Zm-2.48,.23c-.16,.45-.42,.68-.77,.68-.25,0-.46-.11-.63-.32-.16-.21-.24-.52-.24-.93,0-.43,.09-.78,.27-1.04,.13-.18,.32-.27,.57-.27,.14,0,.25,.03,.32,.08,.08,.06,.12,.11,.12,.17,0,.03-.01,.06-.04,.1-.07,.08-.11,.16-.11,.25s.03,.17,.1,.23c.06,.06,.14,.1,.23,.1s.17-.04,.24-.11c.07-.08,.1-.17,.1-.29,0-.19-.09-.36-.27-.51-.18-.16-.42-.24-.7-.24-.37,0-.7,.14-.98,.42-.27,.28-.41,.67-.41,1.18,0,.43,.12,.78,.38,1.04,.25,.27,.57,.4,.97,.4,.54,0,.89-.29,1.05-.88l-.2-.06Zm-2.8,0c-.24,.45-.57,.68-.96,.68-.28,0-.5-.1-.67-.31-.16-.17-.24-.48-.25-.92h2.05c0-.28-.04-.52-.11-.71-.1-.27-.25-.47-.46-.61-.2-.15-.44-.22-.71-.22-.38,0-.7,.15-.96,.43-.26,.29-.38,.66-.38,1.13,0,.43,.13,.79,.39,1.06,.26,.28,.58,.42,.97,.42,.56,0,.99-.29,1.29-.87l-.2-.08Zm-1.65-1.62c.15-.19,.33-.28,.54-.28,.19,0,.36,.07,.49,.23,.14,.16,.21,.35,.21,.57,0,.12-.02,.21-.06,.26-.04,.05-.09,.07-.17,.07h-1.24c.01-.38,.08-.66,.23-.85Zm-2.81-.38v.21h.26c.13,0,.24,.03,.31,.09s.1,.15,.1,.26v2.41c0,.17-.02,.34-.05,.51-.03,.12-.07,.21-.12,.26-.04,.04-.07,.06-.11,.06-.03,0-.05-.01-.07-.03-.01-.01-.02-.05-.04-.11-.04-.19-.13-.28-.28-.28-.09,0-.16,.03-.22,.09s-.09,.14-.09,.24c0,.12,.04,.21,.11,.27,.08,.07,.18,.1,.31,.1,.27,0,.51-.13,.73-.39,.22-.26,.33-.6,.33-.99v-2.74l-1.17,.04Zm1.11-1.62c-.06-.06-.15-.1-.25-.1-.09,0-.17,.04-.24,.11-.07,.06-.1,.14-.1,.24,0,.09,.03,.17,.1,.24,.07,.06,.15,.1,.25,.1,.09,0,.18-.03,.24-.1,.07-.06,.1-.15,.1-.25,0-.09-.03-.18-.1-.24Zm-1.83,1.95c-.26-.28-.58-.42-.97-.42s-.7,.14-.95,.43c-.26,.28-.39,.64-.39,1.09s.13,.82,.38,1.1c.26,.28,.58,.42,.95,.42,.25,0,.48-.07,.7-.19,.22-.13,.38-.31,.5-.53,.12-.22,.18-.49,.18-.8,0-.45-.14-.82-.4-1.1Zm-.39,2.09c-.15,.21-.34,.31-.58,.31s-.42-.1-.56-.31c-.15-.21-.22-.55-.22-1s.07-.77,.22-.98c.15-.21,.33-.31,.56-.31,.25,0,.44,.1,.58,.3,.15,.19,.22,.51,.22,.96s-.07,.82-.22,1.03Zm-2.38-2.33c-.1-.1-.22-.14-.37-.14-.23,0-.42,.09-.58,.29-.15,.2-.29,.48-.4,.87v-1.16l-1.03,.05v.22h.25c.11,0,.2,.03,.26,.09,.06,.07,.09,.17,.09,.31v1.82s-.03,.1-.08,.14c-.05,.04-.12,.05-.21,.05h-.29v.23h1.78v-.23h-.36c-.12,0-.2-.01-.25-.05-.05-.04-.08-.09-.08-.16v-.61c0-.23,.06-.52,.19-.89,.08-.24,.19-.43,.34-.57,.1-.09,.2-.14,.28-.14,.04,0,.06,.01,.06,.04,0,0-.02,.04-.05,.1-.03,.06-.05,.12-.05,.19,0,.1,.03,.18,.09,.24,.05,.07,.13,.1,.22,.1s.17-.04,.23-.11c.07-.07,.1-.17,.1-.3,0-.16-.05-.29-.14-.38Zm-3.09-1.41c-.26-.22-.64-.34-1.15-.34h-2.23v.23h.34c.14,0,.24,.02,.3,.06,.05,.04,.08,.11,.08,.2v3.61c0,.06-.03,.11-.07,.14-.04,.04-.1,.05-.19,.05h-.46v.23h2.17v-.23h-.51c-.1,0-.18-.02-.23-.07-.05-.04-.07-.1-.07-.19v-1.55h.81c.49,0,.91-.13,1.25-.4,.24-.19,.36-.47,.36-.84s-.13-.67-.4-.9Zm-.56,1.68c-.17,.16-.45,.24-.84,.24h-.62v-1.77c0-.11,.03-.18,.09-.22,.06-.05,.21-.07,.43-.07,.35,0,.59,.04,.74,.1,.15,.07,.26,.18,.34,.32,.08,.13,.12,.33,.12,.6,0,.37-.09,.64-.26,.8Z"/><path class="aw" d="M1328.07,557.13c-.05-.22-.13-.41-.25-.57-.11-.16-.29-.29-.52-.39s-.49-.15-.77-.15c-.63,0-1.12,.25-1.46,.75v-.65h-.7v4.61h.78v-2.52c0-.59,.12-.99,.36-1.2,.24-.21,.53-.32,.86-.32,.21,0,.39,.05,.54,.15,.16,.09,.27,.21,.33,.37,.06,.16,.09,.4,.09,.71v2.81h.78v-2.84c0-.36-.02-.61-.04-.76Zm-5.68-1.01v4.61h.78v-4.61h-.78Zm0-1.75v.89h.78v-.89h-.78Zm-3.24,5.66c-.15,.02-.26,.03-.35,.03-.11,0-.2-.02-.27-.06-.06-.04-.1-.09-.13-.15-.03-.06-.04-.21-.04-.43v-2.69h.79v-.61h-.79v-1.61l-.78,.47v1.14h-.57v.61h.57v2.65c0,.47,.04,.77,.1,.92,.06,.15,.17,.26,.33,.35,.16,.09,.38,.14,.66,.14,.17,0,.37-.03,.59-.07l-.11-.69Zm-2.95-2.9c-.05-.22-.13-.41-.25-.57-.11-.16-.29-.29-.52-.39s-.49-.15-.77-.15c-.64,0-1.12,.25-1.46,.75v-.65h-.71v4.61h.79v-2.52c0-.59,.12-.99,.36-1.2,.24-.21,.53-.32,.86-.32,.21,0,.39,.05,.54,.15,.16,.09,.27,.21,.33,.37,.06,.16,.09,.4,.09,.71v2.81h.78v-2.84c0-.36-.02-.61-.04-.76Zm-4.67,1.49c0-.09,.01-.16,.01-.21,0-.72-.18-1.29-.54-1.7-.01-.02-.03-.05-.05-.07-.39-.41-.89-.62-1.51-.62s-1.15,.21-1.55,.64-.6,1.03-.6,1.8,.19,1.33,.59,1.75c.39,.41,.93,.62,1.6,.62,.54,0,.98-.13,1.32-.39,.07-.05,.14-.11,.2-.18,.24-.24,.41-.55,.51-.92l-.51-.06-.3-.04c-.12,.33-.28,.57-.48,.72-.2,.15-.45,.23-.73,.23-.39,0-.71-.14-.97-.4-.25-.27-.4-.66-.42-1.17h3.43Zm-3.39-.64c.02-.4,.16-.72,.4-.96,.25-.24,.55-.36,.91-.36,.39,0,.72,.15,.97,.45,.16,.19,.26,.48,.29,.87h-2.57Zm-2.08-1.86l-1.03,2.81c-.12,.34-.22,.63-.29,.88-.09-.32-.19-.63-.29-.93l-.99-2.76h-.83l1.76,4.61h.72l1.75-4.61h-.8Zm-3.91,2.29c0-.76-.2-1.35-.59-1.77-.39-.41-.89-.62-1.51-.62s-1.15,.21-1.55,.64-.6,1.03-.6,1.8,.2,1.33,.59,1.75c.4,.41,.93,.62,1.6,.62,.54,0,.98-.13,1.32-.39,.35-.26,.58-.63,.71-1.1l-.81-.1c-.11,.33-.28,.57-.48,.72-.2,.15-.44,.23-.73,.23-.39,0-.71-.14-.96-.4-.26-.27-.4-.66-.43-1.17h3.43c.01-.09,.01-.16,.01-.21Zm-3.4-.43c.03-.4,.16-.72,.4-.96,.25-.24,.55-.36,.91-.36,.4,0,.72,.15,.97,.45,.16,.19,.26,.48,.29,.87h-2.57Zm-4.18,.73c-.12-.18-.29-.32-.51-.41-.22-.1-.61-.22-1.16-.37-.38-.1-.61-.17-.69-.2-.13-.05-.23-.12-.3-.2-.06-.09-.09-.18-.09-.28,0-.16,.07-.3,.23-.41,.15-.12,.41-.18,.76-.18,.31,0,.54,.06,.71,.2,.17,.13,.27,.32,.3,.55l.76-.1c-.04-.3-.13-.54-.26-.71-.13-.18-.34-.32-.61-.43-.27-.1-.59-.15-.95-.15-.24,0-.47,.03-.68,.09-.21,.06-.37,.14-.49,.23-.17,.11-.29,.26-.39,.43-.09,.18-.14,.37-.14,.57,0,.23,.06,.44,.17,.62,.12,.19,.28,.33,.5,.44,.23,.11,.62,.23,1.2,.37,.42,.11,.69,.2,.8,.27,.15,.1,.23,.24,.23,.42,0,.19-.09,.36-.26,.51-.18,.15-.44,.22-.8,.22s-.64-.08-.84-.25c-.19-.16-.31-.4-.36-.71l-.77,.12c.09,.49,.29,.86,.6,1.11,.32,.25,.77,.37,1.37,.37,.36,0,.69-.06,.97-.19,.29-.12,.51-.3,.66-.53,.15-.23,.23-.48,.23-.74s-.06-.49-.19-.66Zm-5.3-2.59v4.61h.78v-4.61h-.78Zm0-1.75v.89h.78v-.89h-.78Zm-1.36,2.4c-.11-.23-.29-.42-.54-.55-.25-.14-.55-.2-.89-.2-.56,0-1.02,.21-1.38,.63v-2.28h-.78v6.36h.78v-2.52c0-.37,.04-.65,.13-.85,.09-.21,.23-.37,.43-.49,.21-.12,.43-.18,.66-.18,.31,0,.55,.09,.72,.27,.17,.17,.25,.46,.25,.85v2.92h.78v-2.92c0-.45-.05-.8-.16-1.04Zm-4.36,3.26c-.14,.02-.25,.03-.34,.03-.12,0-.21-.02-.27-.06-.06-.04-.11-.09-.14-.15-.02-.06-.03-.21-.03-.43v-2.69h.78v-.61h-.78v-1.61l-.78,.47v1.14h-.57v.61h.57v2.65c0,.47,.03,.77,.09,.92,.07,.15,.18,.26,.33,.35,.16,.09,.38,.14,.66,.14,.18,0,.37-.03,.59-.07l-.11-.69Zm-4.94,0c-.15,.02-.26,.03-.35,.03-.11,0-.2-.02-.27-.06-.06-.04-.1-.09-.13-.15-.03-.06-.04-.21-.04-.43v-2.69h.79v-.61h-.79v-1.61l-.78,.47v1.14h-.57v.61h.57v2.65c0,.47,.03,.77,.1,.92,.06,.15,.17,.26,.33,.35,.15,.09,.37,.14,.66,.14,.17,0,.37-.03,.59-.07l-.11-.69Zm-3.72-3.91v2.47c0,.39-.04,.69-.13,.9-.08,.21-.23,.37-.43,.49-.21,.12-.43,.18-.66,.18s-.43-.06-.59-.17c-.16-.12-.27-.29-.31-.49-.04-.14-.05-.42-.05-.83v-2.55h-.78v2.85c0,.34,.01,.58,.04,.73,.05,.23,.13,.43,.24,.58,.12,.16,.29,.29,.53,.4,.24,.1,.49,.15,.76,.15,.62,0,1.11-.26,1.46-.78v.68h.7v-4.61h-.78Zm-4.46,.52c-.4-.42-.92-.62-1.55-.62-.57,0-1.05,.17-1.45,.51-.48,.41-.71,1.04-.71,1.89,0,.78,.2,1.38,.59,1.79,.4,.41,.92,.62,1.57,.62,.4,0,.77-.09,1.11-.28,.34-.19,.6-.45,.78-.79,.17-.34,.26-.81,.26-1.4,0-.73-.2-1.31-.6-1.72Zm-.58,3.11c-.26,.29-.58,.44-.97,.44s-.72-.15-.97-.44c-.26-.29-.39-.74-.39-1.33s.13-1.03,.39-1.32c.25-.29,.58-.44,.97-.44s.7,.15,.96,.44c.26,.3,.39,.73,.39,1.3,0,.6-.13,1.05-.38,1.35Zm-3.94-2.33c-.09-.3-.22-.54-.38-.75-.16-.21-.37-.37-.63-.48-.25-.12-.52-.17-.8-.17-.51,0-.93,.2-1.26,.62v-2.27h-.78v6.36h.72v-.58c.31,.45,.74,.68,1.28,.68s1.02-.21,1.41-.65c.39-.43,.58-1.04,.58-1.83,0-.33-.04-.64-.14-.93Zm-1.03,2.33c-.25,.29-.54,.44-.88,.44-.42,0-.76-.2-1-.6-.15-.25-.23-.65-.23-1.2s.13-.99,.38-1.29c.25-.29,.54-.44,.88-.44s.63,.14,.87,.43c.24,.28,.36,.73,.36,1.33s-.13,1.03-.38,1.33Zm-3.99,.43c-.03-.2-.04-.66-.04-1.38v-1.04c0-.35-.02-.59-.04-.73-.05-.21-.13-.39-.25-.52-.11-.15-.29-.26-.54-.36-.24-.09-.56-.13-.96-.13s-.74,.05-1.04,.16-.53,.26-.69,.46c-.16,.2-.27,.47-.34,.79l.76,.11c.08-.33,.21-.56,.39-.68,.17-.13,.44-.2,.81-.2,.39,0,.69,.09,.89,.27,.15,.13,.22,.35,.22,.67v.2c-.3,.11-.76,.2-1.4,.27-.3,.04-.54,.08-.69,.12-.21,.06-.4,.14-.56,.25-.17,.12-.3,.27-.41,.46-.1,.18-.15,.39-.15,.61,0,.39,.14,.7,.41,.95s.66,.37,1.17,.37c.3,0,.59-.05,.86-.15,.26-.1,.54-.28,.83-.52,.03,.22,.08,.41,.16,.57h.81c-.09-.18-.16-.36-.2-.55Zm-.83-1.48c0,.35-.04,.61-.13,.78-.11,.23-.28,.41-.51,.54-.24,.13-.51,.2-.81,.2s-.53-.07-.69-.21c-.16-.14-.24-.31-.24-.52,0-.14,.04-.26,.11-.37,.07-.11,.18-.2,.31-.25,.13-.06,.36-.11,.68-.16,.57-.08,.99-.18,1.28-.3v.29Zm-6.38-.29c0-.76-.19-1.35-.58-1.77-.39-.41-.9-.62-1.51-.62-.64,0-1.16,.21-1.56,.64-.39,.43-.59,1.03-.59,1.8s.19,1.33,.59,1.75c.39,.41,.93,.62,1.6,.62,.54,0,.98-.13,1.32-.39,.34-.26,.58-.63,.71-1.1l-.81-.1c-.12,.33-.28,.57-.48,.72-.2,.15-.45,.23-.73,.23-.39,0-.71-.14-.97-.4-.25-.27-.4-.66-.43-1.17h3.44v-.21Zm-3.39-.43c.02-.4,.16-.72,.4-.96,.25-.24,.55-.36,.91-.36,.39,0,.72,.15,.96,.45,.17,.19,.26,.48,.3,.87h-2.57Zm-1.86-1.96c-.18,0-.35,.05-.5,.15-.15,.11-.32,.32-.5,.65v-.7h-.7v4.61h.78v-2.42c0-.32,.04-.63,.13-.91,.06-.18,.16-.32,.29-.42,.14-.11,.29-.16,.46-.16,.19,0,.38,.06,.57,.17l.27-.72c-.27-.17-.54-.25-.8-.25Zm-3.22,.62c-.4-.42-.91-.62-1.55-.62-.57,0-1.05,.17-1.45,.51-.47,.41-.71,1.04-.71,1.89,0,.78,.2,1.38,.6,1.79,.39,.41,.92,.62,1.56,.62,.4,0,.77-.09,1.11-.28,.34-.19,.6-.45,.78-.79,.18-.34,.27-.81,.27-1.4,0-.73-.2-1.31-.61-1.72Zm-.58,3.11c-.26,.29-.58,.44-.97,.44s-.71-.15-.97-.44c-.26-.29-.39-.74-.39-1.33s.13-1.03,.39-1.32c.26-.29,.58-.44,.97-.44s.71,.15,.96,.44c.27,.3,.4,.73,.4,1.3,0,.6-.13,1.05-.39,1.35Zm-4.37-3.35c-.24-.26-.59-.38-1.05-.38-.58,0-1.06,.26-1.42,.8-.09-.25-.25-.45-.47-.59-.21-.14-.49-.21-.83-.21-.31,0-.58,.06-.82,.2s-.44,.32-.58,.55v-.65h-.7v4.61h.78v-2.39c0-.42,.04-.74,.13-.97,.08-.22,.22-.39,.4-.5,.19-.12,.39-.18,.61-.18,.29,0,.5,.09,.63,.26,.12,.18,.19,.44,.19,.78v3h.78v-2.68c0-.47,.11-.82,.32-1.03,.21-.22,.48-.33,.81-.33,.18,0,.33,.04,.47,.13,.13,.08,.22,.19,.27,.33,.05,.14,.08,.36,.08,.67v2.91h.77v-3.17c0-.52-.12-.91-.37-1.16Zm-9.59,.73c-.04-.22-.13-.41-.24-.57-.12-.16-.29-.29-.53-.39-.23-.1-.48-.15-.76-.15-.64,0-1.13,.25-1.47,.75v-.65h-.7v4.61h.78v-2.52c0-.59,.12-.99,.36-1.2,.24-.21,.53-.32,.87-.32,.2,0,.38,.05,.54,.15,.15,.09,.26,.21,.32,.37,.06,.16,.09,.4,.09,.71v2.81h.79v-2.84c0-.36-.02-.61-.05-.76Zm-4.97-1.11c-.18,0-.35,.05-.5,.15-.15,.11-.31,.32-.49,.65v-.7h-.71v4.61h.78v-2.42c0-.32,.05-.63,.13-.91,.06-.18,.16-.32,.3-.42,.13-.11,.28-.16,.45-.16,.2,0,.39,.06,.58,.17l.27-.72c-.28-.17-.54-.25-.81-.25Zm-2.86,4.16c-.03-.2-.04-.66-.04-1.38v-1.04c0-.35-.02-.59-.04-.73-.05-.21-.13-.39-.24-.52-.12-.15-.3-.26-.55-.36-.24-.09-.56-.13-.96-.13s-.74,.05-1.04,.16-.53,.26-.69,.46c-.16,.2-.27,.47-.34,.79l.76,.11c.08-.33,.21-.56,.39-.68,.17-.13,.44-.2,.81-.2,.39,0,.69,.09,.89,.27,.15,.13,.22,.35,.22,.67v.2c-.3,.11-.76,.2-1.4,.27-.3,.04-.54,.08-.69,.12-.21,.06-.4,.14-.56,.25-.17,.12-.3,.27-.41,.46-.1,.18-.15,.39-.15,.61,0,.39,.14,.7,.41,.95s.66,.37,1.17,.37c.3,0,.59-.05,.86-.15,.26-.1,.54-.28,.83-.52,.03,.22,.08,.41,.16,.57h.81c-.09-.18-.16-.36-.2-.55Zm-.83-1.48c0,.35-.04,.61-.13,.78-.11,.23-.28,.41-.51,.54-.24,.13-.51,.2-.81,.2s-.53-.07-.69-.21c-.16-.14-.24-.31-.24-.52,0-.14,.04-.26,.11-.37s.18-.2,.31-.25c.13-.06,.36-.11,.68-.16,.57-.08,.99-.18,1.28-.3v.29Zm-3.9-.29c0-.76-.2-1.35-.59-1.77-.39-.41-.89-.62-1.51-.62s-1.15,.21-1.55,.64c-.4,.43-.6,1.03-.6,1.8s.2,1.33,.59,1.75c.4,.41,.93,.62,1.6,.62,.54,0,.98-.13,1.32-.39,.35-.26,.58-.63,.71-1.1l-.81-.1c-.11,.33-.28,.57-.48,.72-.2,.15-.44,.23-.73,.23-.39,0-.71-.14-.96-.4-.26-.27-.4-.66-.43-1.17h3.43c.01-.09,.01-.16,.01-.21Zm-3.4-.43c.03-.4,.16-.72,.4-.96,.25-.24,.55-.36,.91-.36,.4,0,.72,.15,.97,.45,.16,.19,.26,.48,.29,.87h-2.57Zm-2.59-3.61v6.36h.78v-6.36h-.78Zm-3.7,2.76c-.04-.22-.12-.41-.24-.57-.12-.16-.29-.29-.52-.39-.24-.1-.49-.15-.77-.15-.64,0-1.13,.25-1.46,.75v-.65h-.71v4.61h.78v-2.52c0-.59,.12-.99,.36-1.2,.25-.21,.53-.32,.87-.32,.2,0,.39,.05,.54,.15,.16,.09,.26,.21,.32,.37,.07,.16,.1,.4,.1,.71v2.81h.78v-2.84c0-.36-.02-.61-.05-.76Zm-4.86,3.05c-.04-.2-.05-.66-.05-1.38v-1.04c0-.35-.02-.59-.04-.73-.05-.21-.13-.39-.24-.52-.12-.15-.3-.26-.55-.36-.24-.09-.56-.13-.96-.13s-.74,.05-1.04,.16c-.3,.11-.53,.26-.69,.46-.16,.2-.27,.47-.34,.79l.76,.11c.08-.33,.21-.56,.39-.68,.17-.13,.44-.2,.81-.2,.39,0,.69,.09,.89,.27,.15,.13,.22,.35,.22,.67v.2c-.3,.11-.76,.2-1.4,.27-.3,.04-.54,.08-.69,.12-.21,.06-.4,.14-.56,.25-.17,.12-.3,.27-.41,.46-.1,.18-.15,.39-.15,.61,0,.39,.14,.7,.41,.95,.27,.25,.66,.37,1.17,.37,.3,0,.59-.05,.86-.15,.26-.1,.54-.28,.83-.52,.03,.22,.08,.41,.16,.57h.81c-.09-.18-.16-.36-.19-.55Zm-.84-1.48c0,.35-.04,.61-.13,.78-.11,.23-.28,.41-.51,.54-.24,.13-.51,.2-.81,.2s-.53-.07-.69-.21c-.16-.14-.24-.31-.24-.52,0-.14,.04-.26,.11-.37,.08-.11,.18-.2,.31-.25,.13-.06,.36-.11,.68-.16,.57-.08,.99-.18,1.28-.3v.29Zm-4.38,.34c-.06,.39-.19,.68-.39,.87-.21,.19-.46,.28-.77,.28-.38,0-.69-.14-.93-.42-.23-.28-.35-.73-.35-1.35s.12-1.06,.37-1.34c.24-.28,.56-.42,.95-.42,.27,0,.49,.08,.67,.23,.18,.16,.31,.39,.38,.7l.76-.12c-.09-.46-.29-.82-.61-1.07-.32-.26-.73-.38-1.23-.38-.39,0-.76,.09-1.1,.28-.33,.18-.58,.46-.75,.83-.16,.38-.25,.81-.25,1.31,0,.77,.2,1.36,.58,1.78,.38,.41,.89,.61,1.52,.61,.5,0,.93-.15,1.27-.45,.35-.3,.56-.71,.65-1.24l-.77-.1Zm-7.49-2.92v2.47c0,.39-.04,.69-.13,.9-.08,.21-.23,.37-.43,.49-.21,.12-.43,.18-.66,.18s-.43-.06-.59-.17c-.16-.12-.27-.29-.31-.49-.04-.14-.05-.42-.05-.83v-2.55h-.78v2.85c0,.34,0,.58,.04,.73,.05,.23,.13,.43,.24,.58,.12,.16,.29,.29,.53,.4,.24,.1,.49,.15,.76,.15,.62,0,1.11-.26,1.46-.78v.68h.7v-4.61h-.78Zm-4.46,.52c-.4-.42-.92-.62-1.55-.62-.57,0-1.05,.17-1.45,.51-.48,.41-.71,1.04-.71,1.89,0,.78,.2,1.38,.59,1.79,.4,.41,.92,.62,1.57,.62,.4,0,.77-.09,1.11-.28,.34-.19,.6-.45,.78-.79,.17-.34,.26-.81,.26-1.4,0-.73-.2-1.31-.6-1.72Zm-.58,3.11c-.26,.29-.58,.44-.97,.44s-.72-.15-.97-.44c-.26-.29-.39-.74-.39-1.33s.13-1.03,.39-1.32c.25-.29,.58-.44,.97-.44s.7,.15,.96,.44c.26,.3,.39,.73,.39,1.3,0,.6-.13,1.05-.38,1.35Zm-3.66-5.38l-1.23,1.87c-.28,.41-.51,.79-.7,1.12-.2-.36-.41-.72-.64-1.08l-1.26-1.91h-1.02l2.45,3.66v2.7h.84v-2.7l2.54-3.66h-.98Z"/><path class="al" d="M1385.62,556.4c-.25-.26-.6-.38-1.06-.38-.58,0-1.05,.26-1.42,.8-.09-.25-.24-.45-.46-.59-.22-.14-.5-.21-.84-.21-.31,0-.58,.06-.82,.2s-.43,.32-.58,.55v-.65h-.7v4.61h.79v-2.39c0-.42,.04-.74,.12-.97,.08-.22,.22-.39,.4-.5,.19-.12,.4-.18,.62-.18,.29,0,.49,.09,.62,.26,.13,.18,.19,.44,.19,.78v3h.78v-2.68c0-.47,.11-.82,.32-1.03,.22-.22,.49-.33,.81-.33,.18,0,.34,.04,.47,.13,.13,.08,.22,.19,.27,.33,.05,.14,.08,.36,.08,.67v2.91h.78v-3.17c0-.52-.13-.91-.37-1.16Zm-7.4,.24c-.4-.42-.92-.62-1.55-.62-.57,0-1.06,.17-1.45,.51-.48,.41-.71,1.04-.71,1.89,0,.78,.2,1.38,.59,1.79,.4,.41,.92,.62,1.57,.62,.4,0,.77-.09,1.11-.28,.34-.19,.6-.45,.77-.79,.18-.34,.27-.81,.27-1.4,0-.73-.2-1.31-.6-1.72Zm-.58,3.11c-.26,.29-.58,.44-.97,.44s-.72-.15-.97-.44c-.26-.29-.39-.74-.39-1.33s.13-1.03,.39-1.32c.25-.29,.58-.44,.97-.44s.7,.15,.96,.44c.26,.3,.39,.73,.39,1.3,0,.6-.13,1.05-.38,1.35Zm-4.28-.71c-.05,.39-.18,.68-.39,.87-.2,.19-.46,.28-.77,.28-.38,0-.69-.14-.93-.42-.23-.28-.35-.73-.35-1.35s.12-1.06,.37-1.34c.24-.28,.56-.42,.96-.42,.26,0,.48,.08,.66,.23,.19,.16,.31,.39,.39,.7l.76-.12c-.09-.46-.3-.82-.62-1.07-.31-.26-.72-.38-1.22-.38-.4,0-.77,.09-1.11,.28-.33,.18-.58,.46-.75,.83-.16,.38-.24,.81-.24,1.31,0,.77,.19,1.36,.57,1.78,.38,.41,.89,.61,1.52,.61,.51,0,.93-.15,1.27-.45,.35-.3,.57-.71,.65-1.24l-.77-.1Zm-5.26,.8v.89h.89v-.89h-.89Zm-1.18-1.43c0-.76-.19-1.35-.58-1.77-.39-.41-.9-.62-1.51-.62-.64,0-1.16,.21-1.56,.64-.39,.43-.59,1.03-.59,1.8s.19,1.33,.59,1.75c.39,.41,.93,.62,1.6,.62,.54,0,.98-.13,1.32-.39,.34-.26,.58-.63,.71-1.1l-.81-.1c-.12,.33-.28,.57-.48,.72-.2,.15-.45,.23-.73,.23-.39,0-.71-.14-.97-.4-.26-.27-.4-.66-.43-1.17h3.44v-.21Zm-3.39-.43c.02-.4,.16-.72,.4-.96,.25-.24,.55-.36,.91-.36,.39,0,.72,.15,.96,.45,.17,.19,.26,.48,.3,.87h-2.57Zm-2.5-1.86v.55c-.35-.43-.8-.65-1.34-.65-.41,0-.77,.1-1.07,.3-.3,.2-.53,.49-.69,.86-.16,.37-.24,.78-.24,1.22,0,.64,.17,1.18,.52,1.64,.35,.46,.84,.69,1.47,.69,.51,0,.94-.2,1.28-.61,0,.51-.02,.85-.06,1.01-.07,.26-.2,.46-.4,.6-.19,.15-.47,.22-.84,.22-.33,0-.6-.07-.79-.22-.14-.1-.23-.27-.26-.51l-.76-.11c0,.36,.07,.66,.26,.88,.06,.09,.14,.16,.23,.23,.34,.25,.78,.38,1.33,.38,.46,0,.85-.09,1.17-.26,.17-.1,.32-.21,.44-.35,.1-.11,.19-.23,.25-.36,.15-.3,.22-.81,.22-1.53v-3.98h-.72Zm-.37,3.55c-.24,.27-.55,.41-.9,.41-.37,0-.67-.14-.91-.42-.24-.27-.36-.71-.36-1.32,0-.55,.12-.97,.37-1.25,.24-.29,.54-.43,.88-.43,.36,0,.66,.14,.91,.43,.25,.29,.37,.71,.37,1.28s-.12,1.02-.36,1.3Zm-3.84,.51c-.03-.2-.04-.66-.04-1.38v-1.04c0-.35-.02-.59-.04-.73-.05-.21-.13-.39-.25-.52-.11-.15-.29-.26-.54-.36-.25-.09-.56-.13-.96-.13s-.74,.05-1.04,.16c-.3,.11-.53,.26-.69,.46-.16,.2-.28,.47-.35,.79l.77,.11c.08-.33,.21-.56,.38-.68,.18-.13,.45-.2,.82-.2,.39,0,.69,.09,.89,.27,.15,.13,.22,.35,.22,.67v.2c-.3,.11-.77,.2-1.4,.27-.31,.04-.54,.08-.69,.12-.21,.06-.4,.14-.57,.25-.16,.12-.3,.27-.4,.46-.1,.18-.15,.39-.15,.61,0,.39,.14,.7,.41,.95s.66,.37,1.16,.37c.31,0,.6-.05,.86-.15,.27-.1,.55-.28,.84-.52,.02,.22,.08,.41,.16,.57h.81c-.1-.18-.16-.36-.2-.55Zm-.83-1.48c0,.35-.05,.61-.13,.78-.11,.23-.28,.41-.52,.54-.23,.13-.5,.2-.8,.2s-.53-.07-.69-.21c-.16-.14-.24-.31-.24-.52,0-.14,.04-.26,.11-.37,.07-.11,.18-.2,.31-.25,.13-.06,.36-.11,.68-.16,.57-.08,.99-.18,1.28-.3v.29Zm-4.12-1.52c-.16-.37-.38-.66-.68-.86-.06-.04-.13-.08-.19-.11-.26-.13-.54-.19-.85-.19s-.56,.05-.77,.17-.4,.29-.57,.53v-.6h-.71v6.37h.78v-2.24c.13,.17,.3,.31,.51,.42,.2,.11,.44,.16,.7,.16,.31,0,.62-.08,.91-.25,.03,0,.07-.03,.1-.05,.33-.2,.57-.49,.74-.87,.17-.37,.26-.8,.26-1.27,0-.44-.08-.84-.23-1.21Zm-.87,2.46s-.04,.08-.07,.11c-.25,.29-.55,.44-.89,.44s-.64-.14-.88-.43c-.24-.28-.36-.72-.36-1.31s.13-1.04,.39-1.35c.25-.32,.55-.47,.88-.47s.62,.14,.87,.44c.02,.03,.05,.06,.06,.09,.2,.29,.3,.7,.3,1.22,0,.55-.09,.97-.3,1.26Zm-4-2.22c-.09-.3-.22-.54-.38-.75s-.37-.37-.63-.48c-.25-.12-.52-.17-.8-.17-.51,0-.93,.2-1.26,.62v-2.27h-.78v6.36h.72v-.58c.31,.45,.74,.68,1.28,.68s1.02-.21,1.41-.65c.39-.43,.58-1.04,.58-1.83,0-.33-.04-.64-.14-.93Zm-1.03,2.33c-.25,.29-.54,.44-.88,.44-.42,0-.76-.2-1-.6-.15-.25-.23-.65-.23-1.2s.13-.99,.38-1.29c.25-.29,.54-.44,.88-.44s.63,.14,.87,.43c.23,.28,.35,.73,.35,1.33s-.12,1.03-.37,1.33Zm-3.78-1.34c0-.76-.19-1.35-.58-1.77-.39-.41-.9-.62-1.51-.62-.64,0-1.16,.21-1.56,.64-.4,.43-.59,1.03-.59,1.8s.19,1.33,.59,1.75c.39,.41,.93,.62,1.6,.62,.54,0,.98-.13,1.32-.39,.34-.26,.58-.63,.71-1.1l-.81-.1c-.12,.33-.28,.57-.48,.72-.2,.15-.45,.23-.74,.23-.38,0-.7-.14-.96-.4-.26-.27-.4-.66-.43-1.17h3.44v-.21Zm-3.39-.43c.02-.4,.16-.72,.4-.96,.25-.24,.55-.36,.91-.36,.39,0,.71,.15,.96,.45,.17,.19,.26,.48,.3,.87h-2.57Zm-2.01-1.86l-.79,2.66-.27,.89-.23-.88-.69-2.67h-.8l-.73,2.7c-.15,.58-.23,.9-.24,.95l-.27-.99-.74-2.66h-.81l1.41,4.61h.82l.93-3.55,.18,.79,.73,2.76h.82l1.44-4.61h-.76Z"/><path class="al" d="M1331.2,561.99h55.36v.65h-55.36v-.65Z"/><rect class="aw" x="1170.76" y="577.91" width="119.07" height="10.07"/><rect class="aw" x="1170.76" y="627.67" width="119.07" height="10.07"/><rect class="aw" x="1170.76" y="594.49" width="119.07" height="10.07"/><rect class="aw" x="1170.76" y="644.25" width="72.27" height="10.07"/><rect class="aw" x="1170.76" y="611.08" width="119.07" height="10.07"/><rect class="aw" x="1170.76" y="660.84" width="119.07" height="10.07"/><rect class="aw" x="1305.22" y="577.91" width="119.07" height="10.07"/><rect class="aw" x="1305.22" y="627.67" width="119.07" height="10.07"/><rect class="aw" x="1305.22" y="594.49" width="119.07" height="10.07"/><rect class="aw" x="1305.22" y="644.25" width="117.88" height="10.07"/><rect class="aw" x="1305.22" y="611.08" width="27.84" height="10.07"/><rect class="aw" x="1305.22" y="660.84" width="81.16" height="10.07"/><rect class="au" x="1439.1" y="524" width="69.9" height="62.2"/><rect class="aw" x="1439.1" y="594.49" width="69.9" height="5.92"/><rect class="aw" x="1439.1" y="624.7" width="69.9" height="5.92"/><rect class="aw" x="1439.1" y="654.91" width="69.9" height="5.92"/><rect class="aw" x="1439.1" y="604.56" width="69.9" height="5.92"/><rect class="aw" x="1439.1" y="634.77" width="69.9" height="5.92"/><rect class="aw" x="1439.1" y="664.98" width="69.9" height="5.92"/><rect class="aw" x="1439.1" y="614.63" width="65.16" height="5.92"/><rect class="aw" x="1439.1" y="644.84" width="65.16" height="5.92"/><rect class="aw" x="1439.1" y="675.05" width="65.16" height="5.92"/><path class="aw" d="M1444.88,530.21l-2.83,8.86-2.88-8.86h-3.88v13.75h2.02v-12.04l1.79,5.63,1.73,5.45,.31,.96h1.3l.3-.96,3.51-11.08v12.04h2.53v-13.75h-3.9Zm-13.46,1.81c-1.03-1.35-2.44-2.02-4.23-2.02s-3.2,.67-4.28,2.02c-1.08,1.35-1.62,3.02-1.62,5.02s.5,3.71,1.52,5.08c.25,.33,.52,.63,.82,.88,.92,.78,2.07,1.17,3.45,1.17s2.54-.39,3.49-1.17c.28-.22,.55-.48,.79-.78,1.08-1.31,1.62-3.03,1.62-5.15s-.52-3.7-1.56-5.05Zm-4.27-.03c1.07,0,1.87,.45,2.38,1.35,.51,.9,.76,2.13,.76,3.71,0,1.94-.31,3.28-.93,4.02-.61,.74-1.37,1.11-2.26,1.11-1.01,0-1.78-.43-2.33-1.28-.54-.86-.8-2.12-.8-3.78,0-3.42,1.06-5.13,3.18-5.13Zm-9.01,.03c-1.03-1.35-2.44-2.02-4.23-2.02s-3.2,.67-4.28,2.02c-1.08,1.35-1.62,3.02-1.62,5.02s.5,3.71,1.52,5.08c.25,.33,.52,.63,.82,.88,.92,.78,2.07,1.17,3.45,1.17s2.54-.39,3.49-1.17c.28-.22,.55-.48,.79-.78,1.08-1.31,1.62-3.03,1.62-5.15s-.52-3.7-1.56-5.05Zm-4.27-.03c1.07,0,1.87,.45,2.38,1.35,.51,.9,.76,2.13,.76,3.71,0,1.94-.3,3.28-.92,4.02-.62,.74-1.38,1.11-2.27,1.11-1.01,0-1.78-.43-2.33-1.28-.53-.86-.8-2.12-.8-3.78,0-3.42,1.06-5.13,3.18-5.13Zm-10.08,5.9c1.65-.67,2.47-1.88,2.47-3.65,0-1.19-.39-2.15-1.16-2.9-.78-.75-2-1.13-3.66-1.13h-5.97v13.75h2.48v-5.65h3.49l1.77,4.69,.36,.96h2.62l-.38-.96-2.02-5.11Zm-.76-2.13c-.44,.38-1.1,.57-1.99,.57h-3.09v-4.14h3.29c.77,0,1.37,.18,1.8,.56,.43,.37,.65,.86,.65,1.46,0,.66-.22,1.18-.66,1.55Zm-10.41,1.77c-.48-.7-1.43-1.23-2.85-1.59l-2.33-.58c-1.28-.32-1.92-.87-1.92-1.65,0-.5,.2-.91,.61-1.23s1-.49,1.77-.49c1.33,0,2.17,.53,2.54,1.57l2.35-.59c-.25-.95-.85-1.68-1.78-2.19-.93-.52-1.98-.78-3.16-.78-1.43,0-2.59,.37-3.51,1.12-.91,.74-1.37,1.72-1.37,2.95,0,.62,.13,1.2,.38,1.74,.27,.55,.61,.97,1.04,1.27,.43,.3,1.1,.56,2,.8l2.63,.68c.7,.18,1.16,.44,1.38,.76,.21,.31,.32,.66,.32,1.04,0,.51-.24,.95-.72,1.3-.47,.35-1.14,.52-2.02,.52-1.93,0-3.04-.68-3.33-2.05l-2.4,.52c.27,1.01,.79,1.79,1.55,2.35,.15,.12,.31,.22,.48,.32,1.03,.57,2.22,.85,3.59,.85,1.62,0,2.93-.38,3.95-1.15l.02-.02c1.01-.77,1.51-1.84,1.51-3.18,0-.84-.24-1.6-.73-2.29Zm-12.84-7.32l-2.61,10.03-2.74-10.03h-2.51l-2.48,10.03-2.66-10.03h-2.63l3.5,12.79,.26,.96h2.55l.24-.96,2.25-9.15,2.48,9.15,.26,.96h2.6l.26-.96,3.41-12.79h-2.18Zm-22.93,11.62v-3.85h5.12v-2h-5.12v-3.72h6.37v-2.05h-8.85v13.75h8.94v-2.13h-6.46Zm-7.47-11.62v9.58c-.54-.92-.83-1.41-.87-1.48l-4.82-8.1h-2.74v13.75h2v-10.07c.16,.29,.29,.5,.37,.63,.18,.31,.31,.52,.39,.66l5.22,8.78h2.41v-13.75h-1.96Zm-22.19,11.62v-3.85h5.12v-2h-5.12v-3.72h6.37v-2.05h-8.85v13.75h8.94v-2.13h-6.46Zm-7.99-11.62v5.65h-5.25v-5.65h-2.48v13.75h2.48v-5.97h5.25v5.97h2.48v-13.75h-2.48Zm-19.21,0v2.13h3.66v11.62h2.66v-11.62h3.65v-2.13h-9.97Zm-7.52,1.81c-1.03-1.35-2.44-2.02-4.23-2.02s-3.2,.67-4.28,2.02c-1.08,1.35-1.62,3.02-1.62,5.02s.51,3.71,1.52,5.08c1.02,1.37,2.44,2.05,4.27,2.05s3.21-.65,4.28-1.95c1.08-1.31,1.63-3.03,1.63-5.15s-.53-3.7-1.57-5.05Zm-2.05,9.05c-.62,.74-1.38,1.11-2.27,1.11-1.01,0-1.78-.43-2.33-1.28-.53-.86-.8-2.12-.8-3.78,0-3.42,1.06-5.13,3.18-5.13,1.08,0,1.87,.45,2.38,1.35,.51,.9,.77,2.13,.77,3.71,0,1.94-.31,3.28-.93,4.02Zm-18.84-10.86v2.13h3.66v11.62h2.66v-11.62h3.65v-2.13h-9.97Zm-12.25,11.62v-3.85h5.12v-2h-5.12v-3.72h6.37v-2.05h-8.85v13.75h8.94v-2.13h-6.46Zm-9.41-11.62l-2.83,8.86-2.88-8.86h-3.88v13.75h2.02v-12.04l3.83,12.04h1.3l3.81-12.04v12.04h2.53v-13.75h-3.9Zm-13.46,1.81c-1.03-1.35-2.44-2.02-4.23-2.02s-3.2,.67-4.28,2.02c-1.08,1.35-1.63,3.02-1.63,5.02s.51,3.71,1.53,5.08c1.02,1.37,2.44,2.05,4.27,2.05s3.2-.65,4.28-1.95c1.08-1.31,1.62-3.03,1.62-5.15s-.52-3.7-1.56-5.05Zm-2.06,9.05c-.61,.74-1.37,1.11-2.26,1.11-1.01,0-1.79-.43-2.33-1.28-.54-.86-.81-2.12-.81-3.78,0-3.42,1.07-5.13,3.19-5.13,1.07,0,1.87,.45,2.38,1.35,.51,.9,.76,2.13,.76,3.71,0,1.94-.31,3.28-.93,4.02Zm-11.61-1.88c-.07,.79-.36,1.47-.87,2.04s-1.13,.86-1.85,.86c-.91,0-1.64-.42-2.19-1.27-.55-.85-.82-2.11-.82-3.78s.25-2.89,.76-3.75c.52-.86,1.24-1.3,2.17-1.3,1.44,0,2.38,1.04,2.8,3.12l1.21-.13,1.09-.11c-.18-1.17-.54-2.13-1.09-2.89-.19-.27-.4-.5-.63-.72-.9-.84-2.04-1.26-3.4-1.26-1.74,0-3.11,.66-4.1,1.97-1,1.31-1.49,3.02-1.49,5.11,0,1.31,.21,2.5,.63,3.58s1.03,1.94,1.8,2.57c.79,.63,1.81,.94,3.07,.94,1.49,0,2.69-.44,3.6-1.33,.19-.19,.37-.38,.52-.59,.61-.78,.97-1.72,1.09-2.81l-1.09-.12-1.21-.13Zm-15.37,2.53v-11.51h-2.61v13.75h8.46v-2.24h-5.85Zm-11.22,.11v-3.85h5.12v-2h-5.12v-3.72h6.37v-2.05h-8.85v13.75h8.94v-2.13h-6.46Zm-6.38-11.62l-2.61,10.03-2.74-10.03h-2.51l-2.48,10.03-2.66-10.03h-2.63l3.76,13.75h2.55l2.48-10.11,2.74,10.11h2.6l3.68-13.75h-2.18Z"/></g><g id="e"><path class="am" d="M816.06,355.52c-2.89-2.06-5.9-3.88-8.78-5.46l-.85-.46c-5.71-3.06-10.85-5.16-13.56-6.19-.66-.26-1.18-.45-1.53-.57-.33-.11-.67-.19-1.02-.22-2.55-.25-4.67,1.68-4.52,3.98v.03l.63,3.26s-.04-.03-.06-.05c-1.05-.96-1.82-2.08-2.22-3.46-.01-.02-.02-.03-.02-.05-1.53-5.3,2.96-12.48,9-15.03,1.08-.46,2.22-.77,3.38-.89,1.38-.15,2.69-.02,3.9,.3,1.5,.39,2.86,1.06,4.07,1.82,1.87,1.19,3.36,2.62,4.42,3.63,0,0,.34,.32,.62,.61,2.7,2.73,6.26,17.58,6.54,18.75Z"/><path class="am" d="M849.6,349.87c14.26-9.16,14.63-9.32,15.48-10.62,4.14-6.29,3.87-15.25,.44-21.24-1.89-3.3-3.15-2.93-7.08-7.08-8.66-9.15-6.23-14.86-12.83-20.79-6.71-6.04-18.03-8.05-21.68-3.98-1.91,2.14-1.86,6.12-.44,8.85,2.57,4.95,8.09,2.88,13.27,7.96,2.16,2.12,3.65,6.57,6.64,15.48,1.91,5.7,2.86,8.56,3.1,10.18,1.91,13.29-7.16,23.5-4.87,25.22,.82,.62,2.37-.39,7.96-3.98Z"/><path class="ak" d="M838.54,343.24c3.49,1.77,9.59-1.61,12.39-6.19,2.66-4.35,3.33-11.39-.88-15.04-2.74-2.37-7.12-2.95-10.18-1.33-7.22,3.83-6.77,19.8-1.33,22.56Z"/><path class="ak" d="M807.57,341.91c-.2,.27-2.9,3.8-6.64,3.54-5.1-.35-9.91-7.61-7.96-13.71,1.55-4.84,7.12-8.28,11.06-7.08,5.37,1.64,7.53,11.87,3.54,17.25Z"/><path class="ak" d="M858.01,378.19c-.02,.18-.07,.35-.14,.52-.41,1.08-1.62,1.98-3.3,2.72-.94,.41-2.02,.78-3.2,1.1-4.04,1.12-9.18,1.79-13.27,2.3-1.14,.14-2.3,.27-3.48,.39-1.1-4.85-2.31-9.15-3.65-12.57-.82-2.09-1.69-3.85-2.6-5.2-1.29-1.89-2.81-3.69-4.48-5.38-2.37-2.39-5.05-4.58-7.83-6.55-2.89-2.06-5.9-3.88-8.78-5.46-.11-.81-.04-1.61,.29-2.4,.86-2.06,3.34-3.71,6.58-4.74,6.91-2.2,17.25-1.58,22.62,3.86,2.93,2.96,2.76,5.72,3.57,9.41,.38,1.73,.97,3.66,2.2,5.91,.26,.48,.55,.98,.87,1.49,.28,.44,.56,.86,.85,1.26h.01c2.08,2.95,4.43,5.03,6.58,6.63,1.64,1.22,3.16,2.17,4.38,3,0,0,0,.01,.01,.01h0c1.83,1.27,2.97,2.3,2.77,3.7Z"/><path class="ak" d="M847.11,341.18c-.62,4.84-2.05,9.36-4.76,12.84-.6,.78-1.27,1.5-2.01,2.17-.29,.26-.59,.52-.91,.76-3.65,2.84-8.47,4.06-9.07,4.21-1.08,.27-3.52,.87-6.47,.91-2.37-2.39-5.05-4.58-7.83-6.55-2.89-2.06-5.9-3.88-8.78-5.46-.41-.14-.68-.33-.85-.46-1.01-.81-.86-1.97-2.05-4.95-.04-.1-.08-.21-.12-.31-.86-2.16-1.91-4.78-2.73-7.88-.47-1.76-.87-3.67-1.12-5.75-.22-1.85-.33-3.84-.26-5.95,.02-.68,.06-1.38,.12-2.09,.37-4.34,1.2-14.23,8.85-22.13,3.23-3.32,8.22-6.86,13.44-8.59,2.45-.81,4.95-1.21,7.35-1.01,1.53,.13,3.02,.51,4.43,1.2,5.35,2.62,7,8.48,9.51,17.92,.41,1.53,1.39,5.23,2.24,9.97,1.08,6.12,1.94,13.97,1.02,21.15Z"/><path class="am" d="M829.91,290.94c-.18,2.48-1.2,4.87-2.87,6.29-.27,.23-.54,.42-.81,.57-2.45,1.41-4.84-.01-8.04,1.64-3.71,1.91-4.29,5.77-7.08,14.6-1.66,5.26-2.96,9.4-4.15,12.66-.86,2.38-1.66,4.29-2.48,5.83-.7,1.32-1.42,2.36-2.21,3.19-.25,.26-.49,.5-.74,.74-2.4,2.29-4.78,3.59-6.69,5.08-.74,.57-1.41,1.17-1.97,1.87-.66-.26-1.18-.45-1.53-.57-.33-.11-.67-.19-1.02-.22-2.55-.25-4.67,1.68-4.52,3.98v.03l.63,3.26,.66,3.46s-.06-.03-.08-.05c-.97-.64-2.1-1.52-3.43-2.6-.66-.52-1.36-1.1-2.11-1.71-1.93-1.58-2.89-2.37-3.98-3.54-2.16-2.32-5.26-5.65-5.75-10.18-.23-2.11,.4-1.84,.88-7.07,.52-5.57-.18-5.98,.45-7.97,1.33-4.24,5.25-4.78,9.29-8.4,4.94-4.43,3.81-7.87,7.52-14.16,6.61-11.24,20.43-17.7,30.97-16.37,4.1,.51,6.11,2.01,7,2.94,.25,.25,.42,.47,.52,.6,1.24,1.69,1.72,3.93,1.54,6.1Z"/><path class="as" d="M829.78,476.23c-.11,.03-.21,.06-.31,.08l.03-.12c.09,.01,.18,.03,.28,.04Z"/><path class="as" d="M823.26,455.96c.09,.02,.18,.04,.27,.07h-.28s.02-.05,.01-.07Z"/><path class="as" d="M882.81,454.91c-.02,.38-.04,.76-.06,1.14h-14.01l-25.74-.02,.05-.29c.05-.27,.07-.54,.05-.81-.07-1.17-.3-4.77-.69-9.92-.07-.98-.16-2.02-.24-3.11-1.21-14.95-3.62-39.28-7.55-56.68-1.1-4.85-2.31-9.15-3.65-12.57,1.48-.31,2.99-.81,4.48-1.54,4.73-2.33,5.24-5.13,7.33-5.99,.19-.09,.4-.16,.63-.2,.28-.06,.55-.08,.85-.07h.01c2.26,.06,4.93,2,7.77,5.36,1.04,1.24,2.11,2.67,3.19,4.27,0,0,0,.01,.01,.01h0c.86,1.31,1.74,2.7,2.63,4.22,3.39,5.81,6.8,13.1,9.87,21.16,4.89,12.84,9.02,23.71,11.72,33.2,.62,2.17,1.17,4.27,1.63,6.3,.38,1.71,.71,3.37,.97,4.99,.07,.43,.14,.85,.2,1.27,.47,3.26,.66,6.34,.55,9.28Z"/><path class="am" d="M829.78,476.23c-.11,.03-.21,.06-.31,.08l.03-.12c.09,.01,.18,.03,.28,.04Z"/><path class="aw" d="M890.12,456.05h-19.36c.16-2.27,.46-4.29,.9-6.01,.37-1.5,.85-2.78,1.42-3.8,.6-1.07,1.3-1.86,2.11-2.32h.01c.17-.1,.33-.18,.51-.25,1.37-.52,2.93-.14,4.45,.64h.01c.72,.37,1.42,.83,2.09,1.32,.08,.07,.16,.13,.24,.19,2.3,1.74,4.1,3.84,4.27,4.04,1.67,1.99,2.7,3.99,3.35,6.19Z"/><path class="aw" d="M766.43,381.29c3.02-2.56,5.79-1.54,13.52-3.11l-10.28,77.83h-2.64c-.05-.28-.11-.56-.16-.84-3.39-18.26-1.61-19.99-3.54-52.21-.67-11.29-1.3-17.94,3.1-21.67Z"/><path class="aw" d="M916.41,453.84c-.6,.84-1.36,1.58-2.26,2.22h-29.01c-.61-.28-1.21-.57-1.8-.87-.18-.09-.36-.19-.53-.28-3.29-1.76-6.22-4.03-8.43-6.82-.5-.63-.93-1.24-1.3-1.85-.6-.98-1.06-1.94-1.39-2.9-.37-1.03-.6-2.07-.74-3.14-.05-.34-.09-.68-.11-1.03-.51-5.91,1.15-13.02-1.77-25.59-3.35-14.44-10.17-24.95-14.5-32.15-2.78-4.62-4.54-7.88-3.72-9.95,.12-.29,.29-.56,.52-.81,.19-.2,.38-.35,.67-.46,.44-.15,1.13-.2,2.39-.15h.01c2.86,.09,8.65,.65,21.27,1.49,5.32,.36,5.29,.33,5.75,.44,9.97,2.63,10.76,15.01,21.23,35.84,7.07,14.05,11.66,18.27,14.16,30.97,1.31,6.66,2.18,11.41-.44,15.04Z"/><path class="am" d="M823.53,456.03h-.28s.02-.05,.01-.07c.09,.02,.18,.04,.27,.07Z"/><path class="am" d="M883.34,455.19c.04,.28,.07,.57,.1,.86h-14.7c-.4-2.73-.79-5.32-1.17-7.79-.43-2.76-.84-5.36-1.24-7.83-4-24.67-6.84-35.56-9.65-43.66-2.14-6.17-3.96-10.9-5.31-14.24-1.68-4.1-2.65-6.11-2.65-6.11-2.57-5.3-4.78-8.99-5.94-11.3-.79-1.57-1.1-2.5-.7-2.86,.11-.09,.26-.15,.46-.16,1.72-.06,6.73,3.24,11.89,7.96t.01,0c2.12,1.93,4.26,4.09,6.22,6.36,8.42,9.73,12.97,20.81,17.7,42.91,1.05,4.9,1.82,8.99,2.4,12.54,.45,2.77,.79,5.2,1.06,7.44,.22,1.79,.39,3.46,.55,5.06,.04,.49,.09,.97,.13,1.45,.28,3.12,.5,6.07,.84,9.37Z"/><path class="ak" d="M867.74,441.45c-.19-1.2,3.64-1.74,10.18-7.08,3.96-3.24,4.24-4.41,6.19-4.87,5.91-1.38,14.9,6.6,13.71,10.62-1.88,6.34-29.59,4.51-30.08,1.33Z"/><path class="aw" d="M829.78,476.23c-.11,.03-.21,.06-.31,.08l.03-.12c.09,.01,.18,.03,.28,.04Z"/><path class="aw" d="M823.53,456.03h-.28s.02-.05,.01-.07c.09,.02,.18,.04,.27,.07Z"/><path class="aw" d="M880.14,456.05h-11.4l-25.74-.02,.05-.29c.05-.27,.07-.54,.05-.81-.07-1.17-.3-4.77-.69-9.92,.07-.01,.11-.02,.12-.02,0,0,11.03-1.38,22.12,2.22,.86,.28,1.86,.63,2.92,1.05,1.3,.5,2.7,1.1,4.09,1.78,3.49,1.67,6.92,3.8,8.48,6.01Z"/><path class="aw" d="M923.87,456.06h-43.73l-9.38-.02h-27.76l.05-.3c.05-.27,.07-.54,.05-.81-.07-1.17-.3-4.77-.69-9.92-.07-.98-.16-2.02-.24-3.11h.36c9.82-.09,9.03-1.11,19.02-1.33,1.85-.04,3.42-.09,4.78-.14,.88-.03,1.68-.06,2.41-.1,.81-.04,1.53-.08,2.21-.13,3.46-.22,5.67-.5,10.14-.83,.23-.02,.48-.04,.73-.06,.31-.02,.63-.05,.97-.07,6.11-.43,10.98-.86,14.9-1.22,13.13-1.23,15.75-1.75,19.16,.78,2.14,1.59,3.85,3.83,5.05,6.33h0c1.7,3.5,2.41,7.49,1.97,10.93Z"/></g><g id="f"><path class="aw" d="M732.54,456h-3.49c-15.15,.03-30.19,1.61-44.85,4.69-.85,.18-1.69,.36-2.54,.55-2.78,.62-5.55,1.29-8.31,2.02-12.53,3.32-24.73,7.75-36.41,13.25-3.59,1.69-7.11,3.49-10.55,5.4-7.29,4.02-14.24,8.52-20.81,13.47,1.06-3.04,2.46-7.07,3.61-13.16,.2-1.05,.39-2.16,.57-3.34,3.65-23.9-3.07-36.38,4.42-42.23,2.7-2.09,5.79-2.22,10.72-1.68,0-.01,0,0,.02,0,1.61,.17,3.42,.42,5.47,.7,18.61,2.51,32.46,4.37,42.66,5.09,2.53,.18,4.84,.28,6.94,.31,1.32,.02,2.6,0,3.85-.03,24.98-.76,35.79-12.18,43.76-4.9l.02,.02c2.2,2.02,1.54,3.03,4.92,19.84Z"/><path id="g" class="am" d="M615.66,429.29c-.74-3.41,2.79-6.73,2.95-6.87,6.96-6.39,18.84,1.48,42.23,6.38,22.89,4.8,40.28,8.44,55,.98,3.39-1.72,10.02-5.74,12.77-3.44,1.85,1.55,1.5,5.62,0,8.35-2.5,4.56-8.35,5.73-12.28,6.38-16.71,2.78-31.48,1.7-34.37,1.47-15.89-1.25-24.05-1.91-34.87-3.44-26.77-3.78-30.77-6.79-31.43-9.82Z"/><path id="h" class="as" d="M718.78,299.15c-5.69-4.31-8.52-2.14-30.45-10.31-17.47-6.51-18.63-8.98-24.06-8.84-17.02,.45-30.8,25.36-36.34,40.27-11.75,31.63-10.76,83.93,23.08,104.11,14.55,8.67,36.97,12.48,53.53,2.46,18.73-11.34,20.92-34.91,24.06-68.75,2.11-22.75,4.47-48.12-9.82-58.93Z"/><path class="aw" d="M673.35,463.26c-12.53,3.32-24.73,7.75-36.41,13.25-3.59,1.69-7.11,3.49-10.55,5.4-6.98,.47-12.65,.66-17.2,.31-6.31-.49-10.51-2.02-13.18-5.3-6.31-7.76,.17-18.14,6.39-50.09,.12-.61,.23-1.2,.35-1.8,1.29-6.62,2.42-12.52,3.31-18.2,.85-5.34,1.49-10.48,1.86-15.85,.22-3.01,.34-6.1,.37-9.33,.19-20.56-3.55-44.55-3.93-77.59-.04-4.07-.04-8.98,2.95-13.75,1.69-2.7,3.73-4.38,6.27-5.68h.01c5.66-2.92,13.81-4.01,26.13-10.52,11.68-6.18,13.89-10.24,17.19-8.84,.14,.06,.28,.13,.41,.21,.52,.28,.96,.68,1.34,1.18,1.65,2.21,2.01,6.4,1.87,12.07h0c-.01,.59-.03,1.18-.05,1.78-.08,2.11-.21,4.41-.36,6.86v.02c-.28,4.83-.62,10.27-.73,16.13-.03,1.78-.05,3.6-.03,5.45,.13,13.06,1.61,19.8,3.66,27.11,1.25,4.45,2.71,9.11,4.2,15.53,.23,1.02,.47,2.08,.71,3.2h0c.34,1.63,.69,3.36,1.03,5.22,.93,5.01,1.83,10.95,2.68,18.19,1.94,16.58,1.42,21.7,.9,28.63v.03c-.39,5.2-.77,11.43-.1,24.29,.02,.29,.03,.59,.05,.89,.14,2.62,.32,5.5,.56,8.7,.02,.26,.04,.53,.06,.8,.01,.09,.01,.19,.02,.28,.64,8.4,1.34,15.5,.22,21.42Z"/><path class="aw" d="M752.99,456.01h-23.94c-15.15,.02-30.19,1.6-44.85,4.68-.13-1.92,.23-4.27,.21-9.31,0-3.13-.17-6.03-.41-8.69h0c-.05-.57-.1-1.11-.16-1.65-.32-3.01-.75-5.71-1.21-8.11,0-.04-.01-.09-.02-.13-.79-4.19-1.65-7.47-2.13-9.9-1.48-7.51-.88-14.84,.66-22.75,0,0,0-.02,.01-.03,1.43-7.38,3.69-15.27,5.85-24.3,0-.01,0-.02,.01-.03,1.86-7.85,3.65-16.56,4.76-26.55,.23-2.13,.43-4.23,.58-6.3h0c.33-4.19,.5-8.25,.57-12.18,.06-3.16,.05-6.24-.02-9.21-.06-3.25-.19-6.38-.35-9.36-.09-1.69-.2-3.34-.3-4.93-.46-6.82-1.03-12.72-1.34-17.42v-.06c-.15-2.16-.23-4.06-.22-5.68,0-.32,.01-.63,.02-.92,0-.67,.05-1.29,.12-1.85h0c.14-1.36,.42-2.37,.88-3.01h0c.19-.29,.41-.49,.68-.63,.04-.03,.08-.05,.12-.06,.08-.03,.16-.06,.25-.08,.92-.23,1.55,.41,2.71,1.62,1.36,1.43,3.45,3.67,7.6,6.23,5.54,3.42,8.92,3.81,14.6,6.33,.04,.02,.09,.04,.13,.06,.87,.37,1.79,.81,2.78,1.32,.05,.03,.09,.05,.13,.07,.64,.32,1.3,.67,2,1.06,4.26,2.37,6.58,3.65,8.35,5.4,2.48,2.46,3.6,5.55,3.89,9.19v.02c.64,7.81-2.45,18.13-3.89,30.08-1.63,13.59,.32,27.88,4.65,53.02,.68,3.98,1.42,8.22,2.22,12.78,.07,.39,.14,.77,.2,1.15,1.11,6.29,1.95,11.08,2.81,15.1,.86,4.12,1.74,7.44,2.89,10.76,4.82,13.91,9.41,18.43,9.16,24.27Z"/><path id="i" class="aw" d="M702.58,210.76c-11.94-7.59-34.87,4.74-36.83,.98-.61-1.17,1.57-2.44,7.37-11.29,3.73-5.69,3.37-6,4.91-7.37,4.88-4.32,11.69-4.11,17.68-3.93,6.1,.19,9.9,1.61,10.8,1.96,3.07,1.2,5.84,2.27,7.86,4.91,2.47,3.22,1.15,5.26,2.95,12.28,1.86,7.27,4.59,10.23,3.44,11.29-1.08,1-4.34-.79-10.8-4.42-4.05-2.27-6.9-4.12-7.37-4.42Z"/><path id="j" class="am" d="M661.33,236.3c-11.59-5.78-12.92-10.03-13.26-11.79-1.19-6.18,4.04-11.83,4.91-12.77,9.76-10.53,27.85-8.15,41.25-6.38,16.66,2.19,25.17,7.45,27.99,9.33,4.72,3.13,12.76,8.48,13.26,16.7,.06,.93,.25,5.74-2.95,9.33-1.25,1.4-3.59,3.28-12.77,4.42-8.77,1.09-15.22,.49-15.22,.49-19.02-1.78-30.18-2.82-43.21-9.33Z"/><path id="k" class="am" d="M680.48,422.9c.53,0-2.5-19.15,4.91-42.23,2.16-6.72,5.81-18.09,14.24-29.96,4.97-7,9.41-14.38,14.73-21.12,4.02-5.09,5.95-7.06,5.89-10.31-.12-6.57-8.17-8.26-15.71-17.19-9.99-11.84-9.28-24.82-11.79-24.55-2.06,.22-2.49,9.03-3.93,26.52,0,0-1.35,16.35-3.44,36.34-2.54,24.32-4.06,23.57-5.4,40.27-1.96,24.42-.02,42.23,.49,42.23Z"/><path id="l" class="ao" d="M668.69,240.72c-2.95,.82-2.43,6.02-6.87,18.17-2.48,6.79-3.18,6.61-3.44,9.33-.72,7.47,3.83,15.79,10.8,20.13,7.83,4.88,19.49,5.24,22.59,.49,1.27-1.95,.29-3.53,0-7.86-.91-13.5,7.3-17.95,4.42-24.06-2.34-4.96-7.83-2.21-18.66-10.31-5.18-3.87-6.62-6.51-8.84-5.89Z"/><path id="m" class="as" d="M660.84,262.81c1.35,.45-.88,5.12,1.47,11.29,1.89,4.97,6.59,10.55,13.75,12.28,8.11,1.96,14.58-2.19,15.71-2.95,.51,.51,6.69,6.84,4.91,15.22-.94,4.43-3.55,9.14-5.4,8.84-2.71-.44-.9-11.1-7.37-15.22-1.79-1.14-3.62-1.4-4.42-1.47-2.11-.18-4.93,.28-9.82,3.93-7.09,5.28-7.3,8.86-9.82,8.84-4.26-.04-9.12-10.36-8.84-20.13,.33-11.55,7.79-21.3,9.82-20.62Z"/><path id="n" class="am" d="M664.27,329.6c1.85-14.6,1.96-15.2,2.46-16.7,0,0,1.53-4.59,4.42-9.82,1.53-2.77,1.96-3.44,1.96-3.44,1-1.54,1.32-1.74,1.47-2.46,.35-1.6-.83-2.35-1.47-4.42-.88-2.8-.3-6.45,1.47-7.37,.6-.31,1.39-.21,2.95,0,1.83,.24,2.75,.37,3.44,.98,1.66,1.49,1.16,4.95,.49,6.87-.66,1.92-1.5,2.38-1.47,3.93,.03,1.55,.9,2.6,1.47,3.44,2.16,3.13,2.45,6.55,2.95,12.28,.05,.56,.03,2.67,0,6.87-.07,8.66-.22,10.26-.98,12.28-.72,1.91-1.62,4.3-3.93,5.89-4.84,3.34-13.18,1.32-15.22-2.95-.53-1.1-.36-2.55,0-5.4Z"/><path id="o" class="ao" d="M667.96,222.3c-1.11,1.27-3.12,3.56-4.17,7.12-1.15,3.88-.3,6.34,2.21,19.89,1.19,6.44,1.36,6.08,1.47,7.86,.44,7.17,4.01,12.44,5.89,15.22,2.6,3.85,5.5,8.13,10.31,9.33,9.03,2.25,20.39-7.43,23.33-16.45,.62-1.91,.89-3.87,2.46-8.35,1.6-4.58,2.77-6.7,4.17-10.07,3.14-7.53,4.73-11.3,4.42-14.73-.82-9.24-14.14-16.94-25.54-18.17-1.45-.16-16.01-1.4-24.55,8.35Z"/><path id="p" class="ao" d="M667.71,227.95c-.95-1.9-5.48-2.49-7.86-.49-1.34,1.12-1.57,2.71-1.96,5.4-.49,3.32-.05,5.87,.49,8.84,.57,3.14,.88,4.73,1.96,5.89,1.55,1.66,4.54,2.98,5.89,1.96,2.4-1.79-3.4-8.63-.49-16.21,1.06-2.75,2.66-4.02,1.96-5.4Z"/><path id="q" class="am" d="M657.15,265.51c2.36,.89,.79,6.73,2.46,18.66,.97,6.95,2.37,11.16,3.68,15.96,2.39,8.71,11.76,43.72,12.77,77.1,.83,27.58-2.62,48.16-3.44,48.12-.79-.03,2.42-19.03-3.93-43.21-3.79-14.43-9.79-26.16-14.24-34.87-7.62-14.9-21.52-38.16-17.19-42.23,.24-.22,1.98-1.75,4.42-3.44,2.95-2.04,3.79-2.14,3.93-2.95,.44-2.53-7.44-3.87-8.35-8.35-.5-2.49,1.33-4.63,4.91-8.84,12.27-14.43,13.49-16.52,14.98-15.96Z"/><path class="aw" d="M673,321c-5.06-3.06-11.35-7.38-11-8,.43-.76,10.65,4.24,16,7,7.43,3.83,20.46,11.07,20,12-.43,.88-13.07-3.8-25-11Z"/><path id="r" class="ao" d="M660.84,362.01c1.71,.36,3.77-2.48,5.89-5.4,3.62-4.99,2.96-7.35,5.89-9.82,2.86-2.41,4.3-.84,8.35-2.95,5.56-2.89,4.27-6.6,10.31-11.79,5.38-4.62,9.31-4.17,10.31-7.86,.99-3.64-1.97-7.26-2.46-7.86-4.57-5.59-13.8-5.91-20.13-3.44-1.29,.5-5.95,2.32-8.84,6.87-2.57,4.06-1.32,6.46-3.93,11.79-2.33,4.75-4.17,4.56-6.38,8.35-5.07,8.67-2.31,21.4,.98,22.1Z"/><path id="s" class="as" d="M657.4,339.42c1.48,.17,1.11,2.9,3.93,6.87,3.88,5.48,8.05,5.2,8.84,8.84,.58,2.67-1.17,5.07-3.93,8.84-2.79,3.81-6.1,8.34-9.33,7.86-4.42-.66-7.06-10.47-6.38-18.17,.64-7.26,4.4-14.53,6.87-14.24Z"/><path id="t" class="aw" d="M634.32,278.53c-1.16-.85-2.35,.64-10.8,3.44-13.79,4.56-18.41,2.72-22.59,6.87-3.51,3.49-4.5,7.64-5.89,19.15-2.54,21.01-1.58,26.47-2.95,43.71-1.42,17.91-3.43,24.3,1.47,30.94,4.18,5.66,10.42,7.49,11.79,7.86,7.37,1.99,11.29-1.28,27.01-6.87,19.45-6.92,26.93-6.71,29.46-13.26,1.01-2.6-.01-3.04-.49-11.29-.92-15.95,2.38-22.84-.98-25.04-1.61-1.06-3.3-.09-10.8,2.95-13.5,5.47-3.28,.41-26.52,9.82-13.13,5.32-13.84,6.08-14.73,5.4-7.7-5.86,33.29-68.33,26.03-73.66Z"/><path id="u" class="am" d="M715.84,382.63c-4.76,.87-10.38-1.53-13.75-5.4-.66-.75-2.8-3.37-3.44-6.87-2.16-11.99,14.53-28.02,23.08-25.04,4.38,1.52,5.8,7.74,6.38,10.31,2.46,10.77-2.79,25.28-12.28,27.01Z"/><path class="as" d="M702,314c-4.19,.75-4.46,5.93-10.24,15.92-6.27,10.86-11.36,14.1-9.76,18.08,1.05,2.59,4.21,3.69,8,5,2.66,.92,7.45,2.58,12,1,1.86-.65,4.28-2.05,11-15,7.8-15.03,6.93-17.74,6-19-.36-.49-.75-.8-7-3-6.01-2.12-9.03-3.17-10-3Z"/><path id="v" class="ao" d="M721.24,378.22c-7.82,1.39-17.71-11.11-19.15-20.62-.22-1.44-.35-3.38-1.47-5.89-2.08-4.64-5.19-5.65-8.84-9.33-1.81-1.82-8.88-8.95-6.87-14.73,1.56-4.5,8.36-7.46,12.77-5.89,2.8,.99,2.61,3.09,8.35,8.35,5.35,4.9,7.19,4.62,7.86,4.42,2.28-.67,3.27-3.88,3.44-4.42,1.16-3.73-.8-6.32,.49-7.37,.97-.78,3.14-.22,4.42,.98,2.17,2.03,1.66,5.8,.98,10.31-.99,6.59-2.66,7.9-1.96,11.79,.28,1.56,1.17,3.19,2.95,6.38,4.71,8.49,5.91,8.82,6.38,11.29,1.09,5.73-3.8,13.75-9.33,14.73Z"/><path id="w" class="as" d="M701.1,361.03c-1.66,3.53,1.7,8.52,2.95,10.31,.7,1.01,6.25,9.01,11.79,7.86,5.94-1.23,7.64-12.12,8.35-16.7,1.36-8.72,.02-18.31-2.46-18.66-2.4-.34-2.69,8.44-10.31,12.77-5.01,2.85-8.92,1.46-10.31,4.42Z"/><path id="x" class="aw" d="M714.36,300.14c-5.9-9.13-12.13-13.61-11.29-14.73,.52-.7,3.08,.79,14.73,6.38,9.16,4.39,11.09,5.16,13.26,7.86,2.29,2.86,3,5.67,4.42,11.29,1.71,6.77,1.34,9.62,2.46,17.19,.47,3.19,1.39,7.38,3.44,15.71,3.86,15.71,4.58,17.22,4.91,22.1,.44,6.44,.82,12.01-2.46,17.68-.61,1.06-5.64,9.5-13.26,9.82-4.28,.18-4.95-2.39-15.71-8.35-7.99-4.42-13.08-6.03-12.77-7.86,.21-1.24,2.64-1,6.38-2.95,4.55-2.36,7.06-5.86,8.84-8.35,2.18-3.04,5.3-7.44,5.4-13.26,.09-5.15-2.24-9.06-1.23-9.58,.86-.44,3.12,2.1,3.44,2.46,1.68,1.89,1.93,3.24,2.21,3.19,.93-.17,.86-15.84-5.4-32.9-1.99-5.43-3.74-10.09-7.37-15.71Z"/><path id="y" class="am" d="M637.26,410.13c1.19,1.63,.95,3.88,.49,8.35-.41,3.97-.64,6.19-1.96,7.86-1.54,1.94-4.25,2.75-22.1,.49-11.58-1.47-15.48-2.45-16.7-5.4-.66-1.59-.36-3.33,0-5.4,.2-1.14,1.05-6.08,3.93-8.35,3.52-2.78,7.32,.62,17.19,1.47,11.03,.95,16.68-2.4,19.15,.98Z"/><path id="a`" class="am" d="M702.58,413.08c2.21-3.18,6.37-.94,15.71-2.95,10.79-2.32,15.39-7.5,19.15-4.91,1.05,.73,1.85,2.45,3.44,5.89,1.97,4.27,2.96,6.4,2.46,7.86-1.08,3.15-6.86,2.45-18.66,4.42-12.45,2.08-15.67,4.47-19.15,1.96-3.7-2.66-5.2-9.04-2.95-12.28Z"/></g><g id="aa"><path class="aw" d="M2102.16,543.37c-2.76,11.06-6.07,24.01-8.86,38.52-3.9,20.26-5.55,37.15-6.37,52.13-.16,2.91-.29,5.75-.4,8.52-.37,9.49-.5,18.25-.8,26.73-.08,2.05-.16,4.07-.26,6.09-.12,2.46-.26,4.9-.44,7.33-.17,2.25-.36,4.49-.6,6.73-1.2,11.72-3.41,23.55-7.82,36.69-9.47-2.39-18.93-4.78-28.4-7.17-11.87-3-23.73-5.99-35.6-8.98-5.2-1.32-10.39-2.63-15.59-3.94-.79-.2-1.59-.4-2.38-.6-4.96-1.25-9.92-2.5-14.88-3.75l-147.03-37.11c3.92-19.03,11.25-39.27,21-58.8,11.38-22.8,26.06-44.64,42.49-62.49,24.11-26.2,51.98-43.82,78.68-43.26,2.48,.05,26.65,.72,57.46,4.1,24.87,2.72,33.12,4.92,48.75,2.04,14.26-2.63,19.27-6.65,23.5-3.07,6.06,5.13,2.8,19.3-2.45,40.29Z"/><path class="am" d="M2068.83,655.46c-.51,2.56-1.15,5.26-1.89,8.15-.58,2.26-1.23,4.63-1.94,7.15-.36,1.29-.74,2.62-1.13,4-.6,2.09-1.24,4.28-1.91,6.57-.36,1.22-.71,2.41-1.04,3.57-5.5,18.81-8.52,28.64-12.71,34.04-11.87-3-23.73-5.99-35.6-8.98-5.2-1.32-10.39-2.63-15.59-3.94-.79-.2-1.59-.4-2.38-.6-4.96-1.25-9.92-2.5-14.88-3.75l-147.03-37.11c-28.85-7.28-57.69-14.56-86.54-21.83,3.11-3.43,6.54-6.11,10.44-7.96,4.33-2.05,11.92-4.37,24.13-11.03,5.6-3.05,9.3-5.45,15.67-7.4,7.88-2.41,14.19-2.39,17.41-2.47,15.27-.38,30.44-4.79,39.89-8.11,4.34-1.53,7.47-2.82,8.86-3.4,16.81-6.96,21.62-13.41,33.96-12.34,5.43,.46,5,1.76,13.93,4.11,15.15,3.99,22.77,1.94,44.39,3.29,15,.94,13.41,2.05,23.51,2.47,34.94,1.43,44.48-12.31,61.81-6.58,11.38,3.76,18.63,13.42,23.02,21.97,3.69,7.21,5.34,13.61,5.71,15.04,2.08,8.06,1.84,15.6-.09,25.14Z"/><path class="aw" d="M2152.5,738.09c-11.75-25.95-36.08-55.71-66.77-68.82-6.03-2.59-12.31-4.53-18.79-5.66-4.26-.76-8.62-1.16-13.04-1.17-28.13-.08-53.93,15.65-74.14,39.23,4.96,1.25,9.92,2.5,14.88,3.75,9.11-10.27,19.38-18.62,30.28-24.13,.02-.02,.04-.03,.06-.04,9.9-5,20.33-7.67,30.88-7.33,2.7,.09,5.37,.37,8.01,.84,7.34,1.3,14.43,4.03,21.16,7.93,12.37,7.16,23.52,18.28,32.79,31.77,5.39,7.84,10.15,16.48,14.15,25.61,1.32,.34,2.64,.67,3.96,1.01,4.81,1.21,9.61,2.42,14.42,3.63,1.81,.46,3.62,.92,5.43,1.37-.99-2.69-2.09-5.36-3.28-7.99Z"/><path class="as" d="M2085.47,675.36c-6.64-2.58-13.49-4.17-20.47-4.6-1.61-.1-3.22-.14-4.84-.12-12.38,.18-24.24,4.03-35.18,10.61-.02,.01-.04,.02-.06,.04-10.21,6.14-19.61,14.64-27.9,24.73,5.2,1.31,10.39,2.62,15.59,3.94,13.38-14.73,29.77-24.45,47.87-25.05,.15-.01,.3-.01,.44-.01,8.05-.2,15.95,1.42,23.51,4.52,12.22,4.99,23.58,13.82,33.39,25.04,6.89,7.86,13.01,16.91,18.11,26.62,4.81,1.21,9.61,2.42,14.42,3.63-13.99-31.71-37.63-58.79-64.88-69.35Z"/><path class="aw" d="M1919.18,456.45c-17.96,1.99-28.5,22.77-46.14,57.58-3.28,6.48-54.14,108.5-23.51,130.8,15,10.92,33.19-9.19,107.08-18.92,36.55-4.81,44.14-1.48,51.36-9.05,31.03-32.52-40.6-165.75-88.8-160.41Z"/><path class="ax" d="M2007.11,448.22c.05-3.94-8.1-4.09-11.32-12.34-2.4-6.16,.84-9.38,0-21.39-.37-5.24-.88-12.61-3.48-13.16-4.78-1.01-7.94,22.91-22.63,27.15-12.43,3.58-26.03-8.97-28.73-5.76-1.91,2.27,5.71,7.59,6.96,18.1,1.21,10.14-4.83,13.99-2.61,18.1,6.13,11.33,61.68-.43,61.81-10.69Z"/><path class="aw" d="M2080.85,621.67c-19.9-20.97-62.47,17.37-127.97,4.11-20.5-4.15-37.48-12.19-46.14-4.11-6.43,6-6.37,19.09-.87,27.97,11.89,19.21,48.08,16.95,108.82,13.16,59.03-3.68,68.59-11.78,71.39-18.92,2.61-6.68,.66-16.01-5.22-22.21Z"/><path class="ax" d="M1879.14,500.87s-14.87,31.27-33.95,58.41c-1.34,1.9-3.79,5.33-7.84,9.05-8.44,7.77-16.87,10.49-23.51,13.16-13.35,5.37-31.22,12.56-38.31,26.32-5.16,10.04-5.11,24.59,1.74,28.79,4.44,2.72,11.3,.84,40.05-16.45,26.33-15.83,40.11-24.12,60.07-40.31,19.64-15.93,29.46-23.89,37.43-36.2,8.01-12.37,11.14-23.32,17.41-45.24,6.99-24.43,10.36-36.75,4.35-41.95-7.17-6.22-24.04-1.69-34.82,5.76-8.35,5.77-9.35,10.74-22.63,38.66Z"/><path class="aw" d="M1938.34,446.58c-4.93-6.22-34.19,.26-51.36,18.1-12.63,13.12-7.03,20.23-21.76,46.07-13.88,24.34-23.93,26.94-22.63,37.84,2.14,17.95,32.34,35.66,49.62,28.79,6.14-2.44,6.47-6.32,22.63-54.29,7.08-21,9.87-43.5,20.02-63.34,2.79-5.46,5.67-10.4,3.48-13.16Z"/><path class="as" d="M1943.56,449.87c-18.88,3.18-30.43,19.19-40.92,33.73-10.16,14.09-21.3,29.53-19.15,50.18,1.51,14.5,8.91,25.34,12.19,29.61,6.88,8.98,14.53,13.85,20.02,17.28,12.68,7.91,25.4,11.7,37.43,13.98,28.2,5.36,68.66,13.06,88.8-7.4,10.33-10.5,10.08-27.02,9.58-60.05-.4-25.91-1.14-50.94-19.15-70.75-5.15-5.66-13.3-14.62-25.25-15.63-12.16-1.02-16.72,7.18-34.82,9.87-15.24,2.27-17.07-2.79-28.73-.82Z"/><path class="aw" d="M2053.25,502.52c10.36,15.79-1.13,25.73,5.22,57.58,4.66,23.35,12.93,28.56,8.71,39.49-5.69,14.71-26.41,20.07-41.79,23.86-41.29,10.15-99.16,8.68-103.6-8.23-3.96-15.09,40.3-20.79,64.42-65.81,17.7-33.04,9.94-59.98,26.99-65.81,12.9-4.41,31.65,6.12,40.05,18.92Z"/><path class="ax" d="M1974.03,508.27c-5.81,4.67-11.71,15.18-23.51,36.2-9.62,17.13-9.62,19.66-14.8,24.68-7.29,7.05-15.98,10.47-43.53,15.63-39.54,7.41-66.2,8.73-66.16,11.52,.02,1.47,7.52,3.14,7.84,2.47,.43-.93-11.19-9.51-23.51-8.23-4.8,.5-8.11,2.34-11.32,4.11-2.57,1.42-19.61,10.88-19.15,25.5,.04,1.41,.3,9.53,6.09,13.16,6.48,4.06,15.52-.26,25.25-3.29,10.47-3.26,9.04-1.07,43.53-4.94,44.83-5.03,67.73-7.76,91.41-18.1,11.35-4.96,18.91-9.72,26.99-14.81,23.5-14.8,83.07-57.44,74-78.97-6.78-16.09-52.39-21.62-73.13-4.94Z"/><path class="ax" d="M1951.39,330.59c-15.32,7.64-19.88,25.61-20.89,29.61-.72,2.85-1.06,8.2-1.74,18.92-1.02,16.14-1.54,24.21-.87,27.97,2.16,12.23,11.67,29.13,25.25,32.08,20.83,4.53,44.77-25.13,53.11-49.36,3.67-10.68,9.95-28.93-.87-44.42-11.15-15.97-36.6-23.47-53.98-14.81Z"/><path class="aw" d="M2007.11,440.82c-6.08,.78-6.57,4.3-22.63,9.87-11.91,4.13-18.27,4.27-22.63,9.87-3.36,4.32-3,8.56-3.48,13.98-1.72,19.15-11.12,20.1-15.67,39.49-4.67,19.89,4.21,23.19-2.61,38.66-5.14,11.67-14.53,19.62-12.19,22.21,1.38,1.53,4.83-.98,11.32-.82,9.52,.23,16.56,6.08,19.15,8.23,11.14,9.22,7.87,17.88,13.93,20.57,12.65,5.61,40.27-26.19,61.81-51,16.2-18.66,24.37-28.17,26.12-37.02,7.08-35.89-30.93-76.89-53.11-74.04Z"/><path class="aw" d="M1938.34,446.58c.25,.43-4.78,2.5-5.22,6.58-.29,2.64,1.6,3.72,1.74,6.58,.13,2.67-1.35,5.2-4.35,8.23-7.79,7.85-19.11,12.32-19.15,12.34-21.97,8.69-27.49,36.53-30.47,35.37-2.95-1.14-.44-29.4,20.02-49.36,15.86-15.47,36.96-20.55,37.43-19.74Z"/><path class="an" d="M1929,372c-3.16-.24-7.34-22.09,1-28,2.89-2.05,5.71-1.04,8-4,3.1-4,.08-8.45,3-12,1.67-2.03,3.44-1.53,10-3,11.41-2.55,11.98-5.39,18-5,4.76,.31,3.87,2.04,12,4,8.48,2.04,10.6,.43,15,3,3.82,2.23,3.01,3.92,8,9,7.52,7.67,11.42,5.94,14,11,1.43,2.81,.3,3.47-1,19-.95,11.34-2.26,11.09-2,15,.47,7.05,2.75,9.36,1,14-1.12,2.98-2.72,3.77-4,8-.98,3.26-.66,4.88-1,7-1.39,8.66-12.25,15.81-15,14-1.44-.95,.49-3.61,0-10-.44-5.76-2.22-6.47-5-16-1.56-5.34-2.53-8.96-3-14-.73-7.81,1.12-9.88-1-13-2.59-3.81-6.14-1.86-11-6-5.14-4.38-3.16-8.26-8-12-4.49-3.47-10.16-3.19-14-3-2.25,.11-9.19,.45-15,5-8.56,6.7-7.8,17.17-10,17Z"/></g><g id="ab"><path class="aw" d="M444.39,652.32l-35.87,35.42-20.55,20.29-68.84,67.97h-96.58c-12.73-26.56-16.03-55.37-7.55-77,.68-1.73,1.43-3.42,2.27-5.07,.72-1.45,1.51-2.88,2.36-4.27,7.4-12.29,19.11-22.49,33.56-30.62h.01c21.33-12.02,48.61-19.54,76.75-22.58,36.4-3.95,74.24-.43,102.48,10.48,4.21,1.63,8.22,3.42,11.96,5.38Z"/><path id="ac" class="aw" d="M263.21,440.53c-11.99-1.06-41.7,3.93-50.44,5.4-18.05,3.04-22.22,5.02-37.83,6.3-12.4,1.02-15.36,.23-18.91,2.7-10.3,7.16-7.26,28.96-.9,58.54,12.71,59.1,21.57,69.57,31.52,115.28,8.33,38.27,5.32,45.58,14.41,53.14,26.76,22.24,101.94-.35,131.5-49.54,44.06-73.34-24.13-187.84-69.35-191.84Z"/><path class="am" d="M447.77,648.98l-3.38,3.34-35.87,35.42-20.55,20.29c-81.43-3.95-134.49,8.29-144.68,.03-.92-.73-1.48-1.64-1.7-2.73-.02-.1-.04-.21-.04-.31-.27-1.99,.7-4.14,2.57-6.37,4.01-4.77,12.16-9.89,21.15-14.55,8.39-4.37,17.5-8.34,24.67-11.29,4.89-2.02,8.87-3.55,11.09-4.41,38.3-14.78,89.04-25.15,131.4-21.46,5.26,.46,10.38,1.13,15.34,2.04Z"/><path class="aw" d="M498.36,599.03h0l-50.59,49.95-3.38,3.34-35.87,35.42c-15.18-2.3-16.7-2.63-22.82-2.23-8.12,.54-18.68,2-34.23,0-9.56-1.23-12.26-2.64-18.01-3.6-24.91-4.14-37.25,11.95-69.35,18.91-7.84,1.7-14.68,3.18-20.59,3.97-.67,.09-1.33,.16-1.97,.23-8.09,.89-14.32,.25-18.87-3.3-2.45-1.91-4.24-4.53-5.41-7.79-.55-1.52-.97-3.19-1.26-4.99-3.09-18.93,7.67-52.8,24.54-94.57,6.91-17.12,14.86-35.57,23.3-54.87,2.45-5.6,4.94-11.28,7.46-17.01,10.58-24.07,19.96-43.93,28.28-60.32,37.85-74.56,53.64-77.1,59.99-75.67,5.77,1.3,9.81,7.31,13.56,15.17,8.14,17.09,14.88,42.9,35.07,47.87,3.66,.9,14.26,2.72,27.02,2.7,10.69-.02,15.17-1.3,18.49-1.85,1.72-.27,3.13-.35,4.93,.05,12.82,2.87,18.25,24.09,30.18,92.7,1.27,7.28,2.61,15.1,4.04,23.49,1.49,8.74,2.76,16.22,3.84,22.62,.4,2.38,.78,4.6,1.13,6.69,.18,1.07,.35,2.1,.52,3.09Z"/><path class="ak" d="M279.18,607.59c-1.89,3.51-3.91,7.26-6.07,11.27-12.28,22.78-14.33,23.05-18.01,34.23-.66,2.01-1.3,3.99-1.9,5.95h-.01c-3.53,11.46-6.1,21.92-7.63,30.13-.56,3.01-.99,5.71-1.27,8.05-.06,.49-.12,.96-.17,1.43-.26,2.24-.45,4.3-.6,6.14-.09,1.18-.17,2.27-.23,3.27-.17,2.71-.23,4.74-.29,5.94-.66,15.03-4.91,40.33-12.78,62h-65.6c2.09-14.03,8.62-32.86,14.38-62,6.74-34.05,7.36-44.55,11.44-65.94,1.29-6.77,2.93-14.64,5.22-24.69,4.1-18.04,7.75-31.94,11.01-42.68h0c9.46-31.1,15.71-35.83,20.51-38.38,10.6-5.62,24.27-5.94,36.67-2.81h0c15.13,3.83,28.36,12.79,31.78,23.52,2.46,7.72-3.65,20.62-16.45,44.57Z"/><path id="ad" class="am" d="M374.89,373.89c-2.08-1.78-5.26-2.3-57.64,18.01-27.19,10.54-40.79,15.81-44.13,18.01-19.83,13.06-21.36,25.94-51.34,85.56-24.08,47.9-34.26,61.81-27.02,75.65,2.17,4.14,5.9,8.3,34.22,18.91,47.67,17.87,75.31,28.23,87.36,16.21,5.05-5.04,2.9-9.56,6.3-38.73,0,0,.41-3.51,7.21-44.13,10.74-64.19,60.03-136.66,45.03-149.51Z"/><path class="am" d="M442.44,464.85c4.51-.07,4.72-13.88,11.71-15.31,7.89-1.62,14.7,13.3,18.01,11.71,4.12-1.97-4.93-25.71-13.51-41.43-2.37-4.34-5.21-9-9.01-9.01-3.6,0-6.25,4.35-9.01,9.01-3.05,5.14-7.3,12.3-7.21,22.52,.09,10.49,4.75,22.59,9.01,22.52Z"/><path id="ae" class="ak" d="M393.8,345.07c-1.14,.92-5.08,4.75-9.01,9.91,0,0-3.21,4.22-5.4,8.11-3.39,6.01-4.9,22.13,8.56,47.28,15.52,29.02,41.84,53.02,48.64,48.64,3.79-2.45-2.64-11.09,2.25-25.67,2.72-8.1,5.97-9.22,13.96-22.97,6.35-10.92,9.52-16.38,9.91-20.72,2.32-25.95-56.48-54.63-68.9-44.58Z"/><path class="am" d="M378.49,363.98c-8.42-3.01-22.34,6.64-22.52,15.31-.09,4.48,3.54,6.62,9.01,13.51,5.49,6.92,5.57,9.47,13.51,25.22,11.53,22.85,20.22,39.76,27.92,38.73,3.83-.51,4.64-5.09,9.91-5.4,3.27-.2,5.42,1.41,11.71,5.4,9.14,5.8,13.71,8.7,14.41,8.11,2.27-1.95-15.39-26.27-22.52-36.03-22.77-31.21-25.5-30.95-30.62-43.23-5.31-12.74-5.02-19.55-10.81-21.62Z"/><path id="af" class="ak" d="M384.79,299.13c-2.74,10.09-2.3,18.81-1.8,28.82,.52,10.36,2.16,18.34,3.6,25.22,2.73,13.01,4.09,19.52,7.21,26.12,1.62,3.43,14.75,30.31,38.73,32.42,10.25,.91,18.09-3.1,26.12-7.21,4.95-2.53,21.73-11.4,29.72-29.72,2.71-6.21,1.35-6.49,4.5-24.32,5.28-29.85,9.72-32.56,9.01-46.83-.34-6.72-.99-19.73-9.91-31.52-13-17.18-34.09-19.27-39.63-19.81-25.85-2.55-43.99,12.05-46.83,14.41-2.18,1.81-15.49,13.18-20.72,32.42Z"/><path class="av" d="M402,324c2.1-14.1,6.14-24.04,1-29-5.06-4.88-13.43,.49-16-3-4.98-6.75,15.41-41.66,47-48,14.97-3,27.95,1.28,36,4,12.13,4.09,23.16,7.81,30,19,10.4,17.01,2.37,37.02,2,37-.34-.02,4.01-16.62-5-27-1-1.15-5.3-5.84-12-7-7.68-1.33-10.3,3.41-19,4-9.15,.62-10.32-5.08-21-6-3.23-.28-12.59-1.09-19,4-7.79,6.19-7.06,17.95-6,36,.78,13.22,1.18,20.14,6,28,5.96,9.73,14.56,14.18,20,17,7.24,3.75,18.85,9.76,30,6,11.87-4.01,14.37-16.16,18-15,5.53,1.77,8.24,29.3-6,47-12.22,15.19-34.83,23.13-54,16-22.95-8.54-29.32-34.24-31-41-4.45-17.93-1.33-39.82-1-42Z"/><path id="ag" class="ak" d="M391.29,291.74c-4.53-1.53-10.77,.42-14,3.35-1.33,1.21-3.5,3.8-2,20.07,.9,9.8,1.41,14.79,4,19.24,2.24,3.84,8.99,13.45,14,12.55,10.48-1.9,13.77-49.87-2-55.2Z"/><g id="ah"><path class="aw" d="M721.5,606.1c-1.23,2.02-4.82,5.86-31.68,2.7-2.49-.29-4.87-.57-7.13-.84-22.15-2.66-33.35-4.54-34.81-10.84-2.03-8.73,15.01-23.5,32.53-26.07,1.35-.19,22.93-3,35.1,12.59,2.48,3.18,5.46,8.27,6.69,13.2,.84,3.39,.85,6.7-.7,9.26Z"/><path class="ak" d="M726.64,598.01c-.73,.68-2.44,0-4.44-1.17-1.6-.93-3.38-2.19-4.98-3.32-9.92-6.99-9.82-10.55-15.41-13.48-10.64-5.57-22.82,1.14-23.97,1.8-4.91,2.8-11.42,8.61-10.27,12.58,.6,2.1,3.83,3.22,10.27,5.39,8.34,2.81,12.77,3.13,12.84,4.49,.07,1.34-4.05,2.82-7.7,3.6-.1,.02-.19,.04-.29,.06-9.25,1.89-16.51-.53-21.97-1.86-1.18-.28-9.63-.79-26.54-1.8-30.15-1.79-50.29,1.8-83.04,0-23.98-1.31-39.92-2.31-50.86-7.16-.84-.37-1.66-.76-2.44-1.2-2.38-1.26-4.5-2.77-6.4-4.56-1.32-1.24-2.53-2.62-3.65-4.15-8.79-12.05-11.83-32.83-3.42-41.34,1.31-1.33,2.77-2.23,4.46-2.75,3.18-1,7.16-.68,12.48,.6,8.87,2.14,21.42,6.95,40.07,12.82,10.77,3.38,23.57,7.12,38.87,10.9,44.99,11.1,56.67,8.9,65.92,4.49,6.96-3.31,15.81-9.52,30.81-11.68,8.27-1.19,17.22-2.35,25.69,2.7,7.45,4.44,11.69,10.43,17.12,18.87,.85,1.32,9.01,14.14,6.85,16.17Z"/><path id="ai" class="am" d="M492.65,591.5c5.05-.22,8.53-9.64,10.27-14.38,6.69-18.12-2.28-30.28-11.13-67.4-6.58-27.6-4.7-33.78-12.84-49.43-4.02-7.72-15.85-28.1-21.4-26.06-14.28,5.23,14.51,158.18,35.1,157.27Z"/></g></g></svg>